<?xml version="1.0" encoding="UTF-8"?>
<svg version="1.1" xmlns="http://www.w3.org/2000/svg" width="512" height="512">
<path d="M0 0 C1.98 0.495 1.98 0.495 4 1 C4 17.83 4 34.66 4 52 C7.79483887 51.97905273 11.58967773 51.95810547 15.49951172 51.93652344 C28.0523358 51.87017744 40.6051573 51.82583009 53.15810966 51.79275131 C60.76728151 51.77216521 68.37628671 51.74412078 75.98535156 51.69824219 C82.62087882 51.65825273 89.25628533 51.63253848 95.89192975 51.62364602 C99.40237772 51.61845161 102.91248041 51.60632676 106.42281723 51.57707977 C110.35078942 51.54462156 114.27843021 51.54404833 118.20654297 51.54589844 C119.93392952 51.52432678 119.93392952 51.52432678 121.69621277 51.50231934 C129.59894734 51.54246777 137.22443601 52.53197761 143.25390625 58.0703125 C143.68574219 58.74835938 144.11757813 59.42640625 144.5625 60.125 C145.01753906 60.80820313 145.47257812 61.49140625 145.94140625 62.1953125 C147.83047832 65.41579699 148.1144958 67.25941576 148.07746887 71.00135803 C148.06991577 72.05969849 148.06236267 73.11803894 148.05458069 74.20845032 C148.04148361 75.37466415 148.02838654 76.54087799 148.01489258 77.74243164 C147.99545362 80.28125159 147.97649984 82.82007529 147.95796204 85.35890198 C147.95240441 86.02881578 147.94684678 86.69872957 147.94112074 87.38894379 C147.90076941 92.30231516 147.88002419 97.21548831 147.8712616 102.12901306 C147.86997798 102.84212444 147.86869437 103.55523582 147.86737186 104.28995663 C147.86249075 107.23307769 147.85831482 110.17619921 147.85458529 113.11932194 C147.8432949 121.47029532 147.81263419 129.82012658 147.72241211 138.1706543 C147.65087702 144.80321268 147.62197715 151.43442517 147.64257544 158.06735891 C147.65189131 161.57596628 147.64009535 165.08157021 147.57660866 168.58967781 C146.44027858 183.47202035 146.44027858 183.47202035 151.59623718 196.67044067 C154.43512723 199.12763839 157.51964674 200.59773481 161 202 C162.58394203 202.87790151 164.16249555 203.76576052 165.73046875 204.671875 C167.20766669 205.38248564 168.69355815 206.07530083 170.1875 206.75 C170.9913916 207.12068604 171.7952832 207.49137207 172.62353516 207.87329102 C189.27140786 215.32875627 206.13942677 218.14806861 224.3125 218.625 C226.15618164 218.68300781 226.15618164 218.68300781 228.03710938 218.7421875 C231.02460254 218.8351834 234.01210905 218.92102491 237 219 C243.02855077 269.11232827 236.60111806 322.85879583 205.3125 364 C193.11869417 378.65184574 179.63916877 388.90751924 163 398 C163.80743652 398.01458252 164.61487305 398.02916504 165.44677734 398.04418945 C169.0900127 398.11846086 172.73231033 398.21519025 176.375 398.3125 C177.64601563 398.33505859 178.91703125 398.35761719 180.2265625 398.38085938 C181.43828125 398.41630859 182.65 398.45175781 183.8984375 398.48828125 C185.57945557 398.52755737 185.57945557 398.52755737 187.29443359 398.56762695 C188.18727051 398.71031006 189.08010742 398.85299316 190 399 C190.66 399.99 191.32 400.98 192 402 C191.67 402.66 191.34 403.32 191 404 C47.12 404 -96.76 404 -245 404 C-245.33 402.68 -245.66 401.36 -246 400 C-243.95301586 397.95301586 -239.69588759 398.29954307 -237 398 C-237.35364953 397.43239271 -237.70729905 396.86478543 -238.07166523 396.27997792 C-242.20309074 388.99636264 -242.70901237 382.96918124 -242.62818909 374.70285034 C-242.63528347 373.39321386 -242.64237786 372.08357739 -242.64968723 370.73425496 C-242.66851658 367.1235563 -242.65642942 363.51354023 -242.6389643 359.90285945 C-242.62554327 355.9996065 -242.64104415 352.09645033 -242.65278625 348.19320679 C-242.67113102 340.55700109 -242.66267223 332.92105189 -242.64469803 325.28485428 C-242.63065407 319.078049 -242.62678308 312.8713132 -242.6301403 306.66449356 C-242.63061775 305.78004265 -242.63109519 304.89559173 -242.6315871 303.98433927 C-242.63261346 302.18744045 -242.63366882 300.39054164 -242.63475286 298.59364285 C-242.64331326 282.71781353 -242.62666528 266.84210783 -242.59692383 250.96630859 C-242.56807827 235.56846935 -242.56100836 220.17080808 -242.57641602 204.77294922 C-242.59318259 187.99412216 -242.59720849 171.21537953 -242.57970566 154.43655026 C-242.57786131 152.64699182 -242.57602658 150.85743337 -242.57420158 149.06787491 C-242.57328949 148.1874352 -242.5723774 147.30699549 -242.57143768 146.39987578 C-242.56583587 140.20086373 -242.56913605 134.00189296 -242.57574654 127.80288315 C-242.58348327 120.24803393 -242.57671462 112.69335982 -242.5515715 105.13854586 C-242.53908542 101.28534087 -242.53291904 97.43240837 -242.54411316 93.57919312 C-242.55602421 89.40027061 -242.5368789 85.2220627 -242.5146637 81.04318237 C-242.52290446 79.82820285 -242.53114523 78.61322332 -242.53963572 77.36142623 C-242.46271118 69.53194681 -241.44257736 64.15677173 -236.32421875 57.9765625 C-235.78410156 57.53054687 -235.24398437 57.08453125 -234.6875 56.625 C-234.15511719 56.16351563 -233.62273437 55.70203125 -233.07421875 55.2265625 C-227.27474897 51.79712086 -221.23450255 51.71450889 -214.692276 51.75949097 C-213.31735628 51.75692769 -213.31735628 51.75692769 -211.91466039 51.75431263 C-208.85456618 51.75102805 -205.79469303 51.76200448 -202.73461914 51.77294922 C-200.53657028 51.77351356 -198.33852105 51.77319633 -196.14047241 51.77206421 C-190.18030013 51.77149057 -184.2202084 51.78324675 -178.26005483 51.79721212 C-172.02871564 51.80971759 -165.79737458 51.81088984 -159.56602478 51.81326294 C-149.10935092 51.81877215 -138.65270462 51.83126321 -128.19604492 51.84912109 C-117.42781725 51.8674919 -106.65959761 51.88164252 -95.89135742 51.89013672 C-95.22709647 51.89066217 -94.56283552 51.89118761 -93.87844545 51.89172898 C-90.54589205 51.89433914 -87.2133386 51.89686203 -83.88078511 51.89935279 C-56.25383618 51.92025592 -28.62692017 51.9554329 -1 52 C-1.00222061 51.36328873 -1.00444122 50.72657745 -1.00672913 50.0705719 C-1.0287804 43.46884724 -1.04390593 36.86713296 -1.05493164 30.26538086 C-1.05997356 27.79857967 -1.06680691 25.33178148 -1.07543945 22.86499023 C-1.08751125 19.32795471 -1.09322956 15.79095855 -1.09765625 12.25390625 C-1.10281754 11.14350479 -1.10797882 10.03310333 -1.11329651 8.88905334 C-1.11337204 7.86807053 -1.11344757 6.84708771 -1.11352539 5.79516602 C-1.115746 4.89137711 -1.11796661 3.9875882 -1.12025452 3.05641174 C-1 1 -1 1 0 0 Z M-234.4375 63.5625 C-239.83846166 71.98800019 -237 77.96901344 -237 90 C-180.57 90 -124.14 90 -66 90 C-65.67 85.38 -65.34 80.76 -65 76 C-61.29466428 76.92633393 -59.70842453 77.6726173 -56.75 79.875 C-56.04359375 80.38804687 -55.3371875 80.90109375 -54.609375 81.4296875 C-53.81273437 82.20699219 -53.81273437 82.20699219 -53 83 C-53 83.99 -53 84.98 -53 86 C-55.92879371 85.37240135 -58.36095629 84.41377341 -61 83 C-61 85.31 -61 87.62 -61 90 C6.65 90 74.3 90 144 90 C145.12118093 74.91832468 145.12118093 74.91832468 139.28125 61.94140625 C138.6934375 61.48636719 138.105625 61.03132813 137.5 60.5625 C136.9121875 60.08941406 136.324375 59.61632812 135.71875 59.12890625 C132.2364337 56.84165759 129.15294583 56.8725201 125.10903645 56.86577892 C123.25256897 56.85909216 123.25256897 56.85909216 121.3585971 56.85227031 C119.97769693 56.85235961 118.59679676 56.85254946 117.21589661 56.85282898 C115.75470386 56.84953036 114.29351202 56.84580479 112.83232135 56.8416875 C108.80698422 56.8316592 104.78166201 56.82794937 100.75631416 56.82529819 C96.41874359 56.8213976 92.08118485 56.8118191 87.74362183 56.80308533 C77.26347001 56.78331406 66.78331721 56.7732539 56.3031514 56.76435754 C51.36952163 56.75997576 46.43589294 56.75460866 41.50226402 56.74936867 C25.10462701 56.73235579 8.70699068 56.71786117 -7.6906538 56.71061993 C-11.94684538 56.70870999 -16.20303696 56.70678966 -20.45922852 56.70483398 C-21.51710177 56.70435024 -22.57497503 56.7038665 -23.66490505 56.7033681 C-40.8053381 56.69506615 -57.94570141 56.6697267 -75.086104 56.63725331 C-92.67827206 56.60419537 -110.27040467 56.58617231 -127.86260396 56.58297569 C-137.7422142 56.58080943 -147.62172272 56.5720438 -157.50130272 56.54651451 C-165.91450384 56.52482481 -174.32757854 56.51674857 -182.74080446 56.52648129 C-187.03345507 56.53103101 -191.32584475 56.52910087 -195.6184597 56.50971985 C-199.54982282 56.49212315 -203.48073398 56.49305723 -207.41210166 56.50861714 C-208.8327426 56.51099855 -210.25341455 56.50664198 -211.67400803 56.49478849 C-220.80894664 56.42330024 -227.81906275 56.60465571 -234.4375 63.5625 Z M-237 95 C-237.0873882 146.75194581 -237.0873882 146.75194581 -237.14648438 198.50390625 C-237.1523581 205.47802756 -237.15841957 212.45214866 -237.16479492 219.42626953 C-237.16558617 220.30037605 -237.16637741 221.17448258 -237.16719264 222.07507718 C-237.18024471 236.19149168 -237.20389845 250.30786957 -237.23145839 264.42426236 C-237.25950144 278.908788 -237.27617393 293.39329445 -237.28226548 307.87784612 C-237.28638421 316.81739916 -237.29939834 325.75684874 -237.3237494 334.69636993 C-237.33959301 340.8244484 -237.34440348 346.9524733 -237.34050413 353.08057077 C-237.33858044 356.61750047 -237.34155349 360.15424923 -237.35761642 363.69114685 C-237.3749017 367.52517298 -237.36897028 371.35896279 -237.36076355 375.19302368 C-237.36950207 376.31170354 -237.3782406 377.43038339 -237.38724393 378.58296263 C-237.35045284 384.92160371 -236.99904249 389.78728527 -232.46484375 394.64453125 C-227.90372287 398.13244722 -225.88530636 399.12504741 -220.17850304 399.12304783 C-218.93094872 399.12503888 -217.6833944 399.12702993 -216.39803541 399.12908131 C-215.00082021 399.1262279 -213.60360521 399.12328229 -212.20639038 399.12025452 C-210.73211035 399.12069022 -209.2578304 399.1215651 -207.78355086 399.12284368 C-203.71769789 399.12508891 -199.65187106 399.12106697 -195.58602142 399.11606562 C-191.20701089 399.11176171 -186.82800192 399.1132075 -182.44898987 399.1139679 C-174.85718815 399.11449317 -167.26539499 399.11134602 -159.67359543 399.10573006 C-148.69702185 399.09761551 -137.72045243 399.09499988 -126.74387617 399.09374207 C-108.93667031 399.09155148 -91.12946901 399.0848912 -73.32226562 399.07543945 C-56.02050805 399.06626552 -38.71875171 399.05918459 -21.41699219 399.05493164 C-19.81824423 399.05453756 -19.81824423 399.05453756 -18.18719833 399.05413551 C-12.84042616 399.05283051 -7.49365399 399.05156679 -2.14688182 399.05032361 C42.23541529 399.03995077 86.61770741 399.02233226 131 399 C128.0724496 396.75146925 125.07531044 394.83805213 121.87426758 392.99487305 C104.71465238 383.07288201 90.4433155 369.88666192 80 353 C79.6277832 352.40767578 79.25556641 351.81535156 78.87207031 351.20507812 C54.26652322 311.55931172 52.25027956 264.27218302 55 219 C55.72364746 219.01571045 56.44729492 219.0314209 57.19287109 219.04760742 C82.34782752 219.52008521 103.41368414 217.26234672 125.9375 205.625 C126.59886963 205.28645996 127.26023926 204.94791992 127.94165039 204.59912109 C134.03599854 201.30418153 138.3608706 197.51130352 144 193 C144 160.66 144 128.32 144 95 C76.68 95 9.36 95 -60 95 C-59.15571383 100.42715335 -59.15571383 100.42715335 -57 105 C-56.360625 104.835 -55.72125 104.67 -55.0625 104.5 C-49.94093485 103.6638261 -45.07466838 103.17013265 -40.1875 105.125 C-36.94375399 107.90535372 -34.42711455 110.62239568 -33.6484375 114.95703125 C-33.45105228 119.64941615 -34.39915045 123.00583819 -37 127 C-40.24706405 129.94265179 -42.91352651 130.918002 -47.3125 131.25 C-52.76942803 130.88003878 -55.70853127 129.42741281 -59.375 125.375 C-61.62228923 120.70755313 -61.95394897 115.99060077 -60.36328125 111.00390625 C-59.87273416 108.29798521 -60.65229379 106.99526373 -61.875 104.5625 C-63.56699142 101.16076899 -64.22128546 98.89357271 -65 95 C-121.76 95 -178.52 95 -237 95 Z M-53 110 C-48.30648861 114.53217194 -44.23138026 117.03219571 -38 119 C-38.23316485 114.95847594 -38.4228959 112.66197236 -41.125 109.5625 C-45.30954906 107.28828855 -49.43803887 106.43803887 -53 110 Z M-57 114 C-57.41856088 118.269321 -57.48038638 120.3303705 -54.9375 123.875 C-51.42309156 126.41733802 -49.32499429 127 -45 127 C-42.10960374 125.70208018 -42.10960374 125.70208018 -40 124 C-42.42639961 122.38240026 -44.82282702 120.96053332 -47.375 119.5625 C-50.6243006 117.77087911 -53.83574235 115.93938372 -57 114 Z M140.375 201.5 C116.28797092 219.22855457 88.14134407 223.25045001 59 224 C55.1342036 259.5248709 58.37682739 298.05038379 73 331 C73.29100586 331.65758301 73.58201172 332.31516602 73.88183594 332.99267578 C87.45424643 363.03150811 111.30436242 385.87590452 142 398 C148.3990802 400.02026761 153.23239156 396.74616811 159 394 C159.59167969 393.71979004 160.18335938 393.43958008 160.79296875 393.15087891 C190.40500356 378.90521717 211.79639906 352.46203737 222.82080078 321.71044922 C233.43433928 290.16483238 236.23227536 257.06294097 233 224 C232.4330542 223.98541748 231.8661084 223.97083496 231.28198242 223.95581055 C202.04815884 223.12341573 171.71273597 218.94153469 148.63671875 199.25 C145.16045408 196.5950962 143.35665509 199.15791443 140.375 201.5 Z " fill="#000000" transform="translate(266,54)"/>
<path d="M0 0 C3.2278886 1.20673374 5.97386441 2.83764649 8.9140625 4.63671875 C28.64883539 16.26181077 49.98623774 20.36812041 72.52392578 22.63964844 C74.5390625 22.94921875 74.5390625 22.94921875 75.5390625 23.94921875 C75.83199812 28.44089821 75.78507604 32.94884861 75.7890625 37.44921875 C75.78973724 38.1233783 75.79041199 38.79753784 75.79110718 39.49212646 C75.72380418 81.99365584 65.13363632 122.26846303 34.5390625 152.94921875 C25.73870296 161.09026797 11.76555388 171.68164266 -0.41796875 173.35546875 C-4.40584729 172.82306905 -7.62760447 171.29263782 -11.1484375 169.44921875 C-11.85178223 169.08755615 -12.55512695 168.72589355 -13.27978516 168.35327148 C-40.24045488 154.14643308 -58.82242416 129.2689383 -67.92578125 100.5378418 C-75.64195106 75.09799463 -76.80225846 50.32282658 -76.4609375 23.94921875 C-71.36935483 22.32977557 -66.5370089 21.57450232 -61.2109375 21.13671875 C-41.23496722 19.15506605 -21.73056588 12.83590374 -5.1953125 1.35546875 C-2.4609375 -0.05078125 -2.4609375 -0.05078125 0 0 Z M-5.1796875 7.92578125 C-26.19292606 19.59061933 -47.47080527 25.42131898 -71.4609375 26.94921875 C-72.28326784 66.62771183 -67.64494133 107.23076295 -41.4609375 138.94921875 C-40.84863281 139.72523438 -40.23632812 140.50125 -39.60546875 141.30078125 C-31.60250551 150.95894157 -21.40009682 158.2153238 -10.4609375 164.19921875 C-9.75525635 164.59431641 -9.0495752 164.98941406 -8.32250977 165.39648438 C-5.12888493 167.06159843 -3.06094169 167.95768035 0.5859375 167.90625 C4.19038322 166.73814259 7.47502172 165.19837163 10.7890625 163.38671875 C11.44656494 163.03101807 12.10406738 162.67531738 12.78149414 162.30883789 C18.54719646 159.10331898 23.59162195 155.31088234 28.5390625 150.94921875 C29.14443848 150.44592041 29.74981445 149.94262207 30.37353516 149.42407227 C35.20680382 145.34632649 39.2297996 141.05326907 43.0390625 136.01171875 C43.59730713 135.27445557 44.15555176 134.53719238 44.73071289 133.77758789 C50.02199276 126.59826054 54.03037797 119.12797058 57.5390625 110.94921875 C57.81298828 110.32789063 58.08691406 109.7065625 58.36914062 109.06640625 C69.69680396 82.97183721 70.92542063 54.95423908 70.5390625 26.94921875 C69.32734375 26.86285156 68.115625 26.77648437 66.8671875 26.6875 C44.72896177 24.91198084 24.69238817 19.33111143 5.28393555 8.48901367 C0.72641738 5.94907255 -0.68168844 5.3732424 -5.1796875 7.92578125 Z " fill="#000000" transform="translate(412.4609375,267.05078125)"/>
<path d="M0 0 C0.92683594 0.40089844 1.85367188 0.80179688 2.80859375 1.21484375 C17.59472535 8.45061028 28.0142558 20.91585906 33.4375 36.375 C38.14549623 52.28263484 36.841341 69.02703501 29.3125 83.875 C25.91812358 89.56934432 21.66523339 94.31873488 17 99 C16.37351562 99.6496875 15.74703125 100.299375 15.1015625 100.96875 C3.81842779 111.82341124 -11.93297697 115.43475848 -27.11328125 115.2734375 C-43.73089484 114.10435916 -57.51941666 107.1383251 -69 95 C-78.58432868 83.45013517 -83.40695625 70.61563554 -83.3125 55.6875 C-83.30686035 54.75687744 -83.3012207 53.82625488 -83.29541016 52.86743164 C-83.17713718 46.17798255 -82.60496577 40.22626288 -80 34 C-79.5978125 33.03191406 -79.195625 32.06382812 -78.78125 31.06640625 C-71.74774291 15.72945329 -60.67013568 5.20423924 -45 -1 C-30.89883746 -6.07641852 -13.76671037 -6.0406886 0 0 Z M-64 18 C-73.63076265 28.55245673 -78.81913534 41.71169187 -79 56 C-78.14964858 69.70010628 -74.05160634 80.67021294 -65 91 C-63.46589188 88.96373637 -61.94427915 86.922414 -60.45703125 84.8515625 C-53.42852834 75.33553718 -44.25744604 68.56327579 -32.4765625 66.31640625 C-20.86415174 64.83280172 -8.91977415 66.43124361 1 73 C7.66361111 78.16663763 12.76171761 83.71222175 17 91 C25.43782826 84.05120026 29.42301057 72.53954604 31 62 C32.35090835 45.45137275 27.92672648 30.92946234 17.1875 18.125 C6.20554783 6.61608276 -8.05960386 0.50439716 -23.90625 -0.11328125 C-39.85573763 0.47072777 -52.9682344 6.48942513 -64 18 Z M-53.875 82.875 C-56.95505335 86.64679111 -59.01925698 90.56313564 -61 95 C-57.18081746 99.24106898 -53.36957065 101.71606604 -48.25 104.1875 C-47.53408691 104.53554688 -46.81817383 104.88359375 -46.08056641 105.2421875 C-32.93592871 111.47283529 -18.80252122 111.89295726 -5 107 C1.70704149 104.15359703 7.68771911 101.01715417 13 96 C10.91791121 87.67164483 5.0588722 80.74163332 -2 76 C-19.47910659 66.69457635 -39.85475132 67.65899451 -53.875 82.875 Z " fill="#000000" transform="translate(243,198)"/>
<path d="M0 0 C0.70801357 -0.00438225 1.41602713 -0.00876451 2.14549565 -0.01327956 C4.52988141 -0.02668773 6.91423019 -0.03285093 9.29864502 -0.03897095 C11.00347054 -0.04687035 12.70829438 -0.05513919 14.41311646 -0.06375122 C20.02240396 -0.08999075 25.631699 -0.10528106 31.24102783 -0.11953735 C33.17066706 -0.12489629 35.10030624 -0.1302738 37.02994537 -0.13566971 C45.05592069 -0.15730151 53.08189398 -0.17603871 61.10789108 -0.1872921 C72.61676854 -0.20353397 84.1253085 -0.23671408 95.63405871 -0.29369295 C103.72244867 -0.33237476 111.8107483 -0.35192272 119.89922833 -0.35721266 C124.73190963 -0.36086862 129.56423114 -0.37291567 134.39681244 -0.4053154 C138.9441224 -0.43536501 143.4908543 -0.44171905 148.03824234 -0.42993164 C149.70635506 -0.42971064 151.37449436 -0.43803751 153.0425148 -0.45558548 C155.32249606 -0.47826382 157.60037875 -0.46999101 159.88037109 -0.45410156 C161.15537853 -0.45741171 162.43038597 -0.46072186 163.74403 -0.46413231 C168.33291206 0.35789003 169.94607479 1.85082962 173.19415283 5.15390015 C174.36209216 8.65771812 174.37483427 11.84243903 174.39727783 15.48983765 C174.40297791 16.20620392 174.40867798 16.92257019 174.41455078 17.66064453 C174.4239882 19.17530852 174.43052977 20.68999292 174.43438721 22.2046814 C174.44408872 24.51364217 174.47512058 26.82171083 174.50665283 29.13046265 C174.51318388 30.60441571 174.51843395 32.07837512 174.52227783 33.55233765 C174.53462463 34.23895477 174.54697144 34.9255719 174.55969238 35.63299561 C174.53954194 40.00151784 173.89227397 42.70240752 171.19415283 46.15390015 C167.70288699 49.52977843 164.93864045 49.53059731 160.17903137 49.53485107 C159.47268694 49.53953105 158.76634251 49.54421102 158.03859371 49.54903281 C155.67171735 49.56099895 153.30541826 49.55151955 150.9385376 49.54208374 C149.24164492 49.54614877 147.54475488 49.55149026 145.84786987 49.55801392 C141.23834801 49.57170255 136.62902735 49.56638222 132.01950192 49.55687666 C127.19717439 49.54928684 122.37486421 49.5563239 117.55253601 49.56103516 C109.45281885 49.56649521 101.35318371 49.5592951 93.253479 49.54501343 C83.88876631 49.52869195 74.5242496 49.53397077 65.15954167 49.55049264 C57.12121578 49.56410697 49.0829489 49.56602726 41.04461521 49.55817664 C36.24285637 49.55349912 31.44118964 49.55287733 26.63943672 49.5627861 C22.124187 49.5714525 17.60918987 49.56543983 13.09396744 49.54810333 C11.43674705 49.54413651 9.7795054 49.5452759 8.12229347 49.55189133 C5.85999466 49.56008951 3.59850518 49.54980684 1.33625793 49.53485107 C0.07030068 49.53372 -1.19565657 49.53258892 -2.49997616 49.53142357 C-6.09712591 49.12063674 -7.94690003 48.33712017 -10.80584717 46.15390015 C-13.32424555 42.37630258 -13.12925783 39.322766 -13.14178467 34.94296265 C-13.14844147 34.13781219 -13.15509827 33.33266174 -13.16195679 32.50311279 C-13.17207842 30.80014326 -13.17677396 29.0971341 -13.17645264 27.39413452 C-13.18081985 24.79515789 -13.21712545 22.19788812 -13.25506592 19.59921265 C-13.2609355 17.94296844 -13.26490395 16.28671619 -13.26678467 14.63046265 C-13.2811557 13.8563504 -13.29552673 13.08223816 -13.31033325 12.28466797 C-13.27870635 8.52893423 -12.9498701 6.37837497 -10.90203857 3.18661499 C-7.31462592 -0.29216416 -4.91724472 0.0215158 0 0 Z M-7.80584717 7.15390015 C-9.87398863 12.47677272 -8.99041292 18.98404461 -8.99334717 24.59140015 C-9.00559326 25.81923218 -9.01783936 27.04706421 -9.03045654 28.31210327 C-9.03239014 29.49610718 -9.03432373 30.68011108 -9.03631592 31.8999939 C-9.0404248 32.97950317 -9.04453369 34.05901245 -9.04876709 35.17123413 C-8.79828045 38.24680722 -8.20721457 40.41370164 -6.80584717 43.15390015 C-3.8949332 44.60935713 -1.34637783 44.28999769 1.90629578 44.30107117 C2.95311519 44.3065862 2.95311519 44.3065862 4.02108246 44.31221265 C6.37101626 44.32326893 8.72090587 44.32709656 11.07086182 44.3309021 C12.75099835 44.33716514 14.43113348 44.34381179 16.11126709 44.35081482 C20.68351349 44.36823599 25.25574943 44.37877899 29.82802081 44.38702035 C32.68208738 44.39216668 35.53615066 44.39824249 38.39021492 44.40453148 C47.31281564 44.42358413 56.23540805 44.43781678 65.15802521 44.44614345 C75.47147429 44.45592611 85.78470934 44.48227208 96.09808296 44.52264434 C104.06158811 44.5527529 112.0250317 44.56760719 119.98859268 44.57092446 C124.74902175 44.57328041 129.50922216 44.58231149 134.26959038 44.60738564 C138.74542889 44.63058049 143.2208868 44.6349345 147.69676971 44.62462425 C149.34194514 44.62412673 150.98713876 44.63051065 152.63225746 44.6441803 C154.87364273 44.66176663 157.11364223 44.65486052 159.35502625 44.64164734 C160.61067603 44.64403569 161.86632582 44.64642405 163.1600256 44.64888477 C166.2587452 44.43803305 166.2587452 44.43803305 168.09733677 42.32568645 C169.67279661 39.20614597 169.58318103 36.60498746 169.59259033 33.12265015 C169.59546051 32.44971924 169.59833069 31.77678833 169.60128784 31.08346558 C169.60332379 29.66471512 169.59782665 28.2459363 169.58526611 26.82723999 C169.56920359 24.66074615 169.58512838 22.49611751 169.60430908 20.3296814 C169.60232656 18.94816688 169.59848271 17.56665352 169.59259033 16.18515015 C169.58751465 14.30666382 169.58751465 14.30666382 169.58233643 12.39022827 C169.15178422 8.80066851 168.77232476 7.63162996 166.19415283 5.15390015 C163.04966904 4.55302298 163.04966904 4.55302298 159.36175537 4.65942383 C158.66302134 4.654595 157.96428731 4.64976617 157.24437952 4.64479101 C154.89718169 4.63349671 152.55106777 4.65085552 150.20391846 4.6680603 C148.52363286 4.665915 146.8433487 4.66203814 145.16307068 4.65655518 C140.59486514 4.64684648 136.02704933 4.66218402 131.45889091 4.68246126 C126.68367823 4.70000422 121.90847809 4.69650772 117.13323975 4.69573975 C109.11327579 4.69761391 101.093463 4.71499337 93.07354736 4.74227905 C83.79461755 4.77373109 74.51585337 4.78427531 65.2368741 4.78280795 C56.31959002 4.78158811 47.40236001 4.7917924 38.48509216 4.80839157 C34.68610716 4.81546172 30.88714129 4.81911871 27.08815002 4.82017899 C22.61645233 4.82218507 18.14489422 4.8343718 13.67324257 4.85451126 C12.02970039 4.86036307 10.38614214 4.86281163 8.74258995 4.86165619 C6.50376068 4.8606777 4.26532486 4.87195672 2.02655029 4.88647461 C0.77219933 4.8898263 -0.48215164 4.89317799 -1.77451324 4.89663124 C-4.9827382 4.9234635 -4.9827382 4.9234635 -7.80584717 7.15390015 Z " fill="#000000" transform="translate(138.80584716796875,384.8460998535156)"/>
<path d="M0 0 C1.06920403 -0.00657338 1.06920403 -0.00657338 2.16000813 -0.01327956 C4.56054739 -0.02668794 6.96104991 -0.03285095 9.36161804 -0.03897095 C11.07791816 -0.04687026 12.79421661 -0.0551391 14.51051331 -0.06375122 C20.15707305 -0.08998927 25.80364029 -0.10527977 31.45024109 -0.11953735 C33.39228508 -0.12489614 35.33432902 -0.13027364 37.27637291 -0.13566971 C45.35296263 -0.15730028 53.42955033 -0.17603814 61.50616169 -0.1872921 C73.09061339 -0.20353878 84.67473006 -0.23673193 96.25905544 -0.29369295 C104.39923402 -0.3323578 112.53932286 -0.35192064 120.67959088 -0.35721266 C125.54409724 -0.36087063 130.40824642 -0.37293908 135.27265358 -0.4053154 C139.84868659 -0.43533563 144.42414518 -0.44172961 149.00025558 -0.42993164 C150.6800761 -0.4297104 152.3599228 -0.43805696 154.03965187 -0.45558548 C156.33311882 -0.47821646 158.62449201 -0.47001305 160.91796875 -0.45410156 C162.84292411 -0.45906678 162.84292411 -0.45906678 164.80676746 -0.46413231 C169.02261269 0.31533792 170.47834943 1.87976691 173.14945984 5.15390015 C174.65289897 8.16077841 174.35362309 11.27542308 174.38774109 14.57577515 C174.39581284 15.31338074 174.40388458 16.05098633 174.41220093 16.8109436 C174.42604035 18.37445731 174.43676315 19.93800121 174.44462585 21.5015564 C174.461795 23.8810546 174.50567371 26.25914707 174.54985046 28.63827515 C174.55998167 30.15909828 174.56849644 31.67993322 174.57524109 33.20077515 C174.59274918 33.90724182 174.61025726 34.6137085 174.6282959 35.34158325 C174.60628084 40.41194248 173.41013425 43.2999527 170.14945984 47.15390015 C166.61236204 49.53442417 163.40541233 49.40771537 159.21699524 49.41459656 C158.1707876 49.42033488 158.1707876 49.42033488 157.10344446 49.42618912 C154.76665544 49.43650672 152.4301127 49.43252938 150.0933075 49.42855835 C148.41774264 49.43290555 146.74217978 49.43808872 145.06661987 49.44404602 C140.51492378 49.45744729 135.96331066 49.45801337 131.41159868 49.45548272 C127.61188982 49.45441365 123.8121978 49.45929481 120.01249254 49.46408814 C111.04771886 49.4751875 102.08298707 49.4756185 93.11820984 49.46957397 C83.87054025 49.46353454 74.62302283 49.47584343 65.3753792 49.49714404 C57.43555787 49.5147597 49.49578496 49.52076141 41.5559448 49.5175063 C36.81394845 49.51569305 32.0720606 49.51833374 27.33008194 49.53222084 C22.86983412 49.54479376 18.40982341 49.54286017 13.94957924 49.52980995 C12.31373706 49.52744335 10.67787822 49.53018187 9.04205513 49.53843307 C6.8063924 49.5488956 4.57152601 49.54080454 2.33589172 49.52812195 C0.46046157 49.52837356 0.46046157 49.52837356 -1.45285606 49.52863026 C-5.23682638 49.11129669 -7.62855606 48.15765358 -10.85054016 46.15390015 C-13.36893854 42.37630258 -13.17395082 39.322766 -13.18647766 34.94296265 C-13.19313446 34.13781219 -13.19979126 33.33266174 -13.20664978 32.50311279 C-13.21677141 30.80014326 -13.22146695 29.0971341 -13.22114563 27.39413452 C-13.22551284 24.79515789 -13.26181845 22.19788812 -13.29975891 19.59921265 C-13.30562849 17.94296844 -13.30959694 16.28671619 -13.31147766 14.63046265 C-13.32584869 13.8563504 -13.34021973 13.08223816 -13.35502625 12.28466797 C-13.32339934 8.52893423 -12.99456309 6.37837497 -10.94673157 3.18661499 C-7.34900745 -0.30216337 -4.93193888 0.02143412 0 0 Z M-7.85054016 7.15390015 C-9.65199781 12.55827309 -9.07789624 18.37358181 -9.10054016 24.02890015 C-9.12116516 25.30893921 -9.14179016 26.58897827 -9.16304016 27.9078064 C-9.16819641 29.14143921 -9.17335266 30.37507202 -9.17866516 31.64608765 C-9.18801086 32.7738562 -9.19735657 33.90162476 -9.20698547 35.06356812 C-8.8087573 38.51615179 -7.9126979 40.38322869 -5.85054016 43.15390015 C-2.95923828 44.59955109 -0.45282612 44.28992637 2.77894592 44.30107117 C3.46795286 44.30474786 4.15695979 44.30842454 4.86684573 44.31221265 C7.18680657 44.32326849 9.50672266 44.3270965 11.82670593 44.3309021 C13.48551578 44.33716523 15.14432422 44.34381189 16.8031311 44.35081482 C21.31759519 44.36823646 25.83204868 44.37877936 30.34653807 44.38702035 C33.16510039 44.39216716 35.9836594 44.39824298 38.80221939 44.40453148 C47.61536526 44.42358527 56.42850273 44.43781701 65.24166524 44.44614345 C75.42549445 44.455923 85.60910671 44.4822604 95.79285944 44.52264434 C103.65786724 44.55276654 111.52281272 44.56760854 119.38787711 44.57092446 C124.08853561 44.57327907 128.78896239 44.58229275 133.48955917 44.60738564 C137.91041017 44.63060391 142.33087585 44.63492495 146.75177193 44.62462425 C148.37556423 44.62412728 149.99937511 44.63049504 151.62310982 44.6441803 C153.83787455 44.66180463 156.05124217 44.65484154 158.26600647 44.64164734 C159.50598577 44.64403569 160.74596508 44.64642405 162.02351952 44.64888477 C165.75053608 44.05872127 166.93454707 43.16241539 169.14945984 40.15390015 C169.78163884 36.74209234 169.78163884 36.74209234 169.71586609 32.90390015 C169.72516396 31.86120972 169.72516396 31.86120972 169.73464966 30.79745483 C169.74173557 29.33164873 169.73859506 27.86576194 169.72587585 26.3999939 C169.7119989 24.16020426 169.74609796 21.92458756 169.78422546 19.68515015 C169.78517667 18.25806579 169.78331777 16.83097623 169.77836609 15.40390015 C169.77909119 14.1096814 169.77981628 12.81546265 169.78056335 11.48202515 C169.4479047 8.06391916 169.4479047 8.06391916 167.04453373 5.97721767 C163.48292773 3.73411822 161.3879429 3.65340829 157.19717407 3.6526947 C156.16594409 3.64439311 156.16594409 3.64439311 155.11388117 3.6359238 C152.81669474 3.62234085 150.52059929 3.63727238 148.22343445 3.65219116 C146.57403096 3.64840714 144.92463064 3.64290641 143.27523804 3.63581848 C138.80006647 3.62185849 134.32527912 3.63303689 129.85012889 3.6495297 C125.16747787 3.66337973 120.48484917 3.65692026 115.80218506 3.65339661 C107.93960883 3.65069471 100.07718529 3.6641692 92.21464539 3.68734741 C83.12197217 3.71396627 74.02955409 3.71570124 64.93685526 3.70395905 C56.19148805 3.69318413 47.44621322 3.69936548 38.70085335 3.71351433 C34.97803631 3.71927569 31.25528683 3.71919029 27.5324688 3.71444893 C23.1501569 3.70968046 18.76812482 3.7197753 14.38586617 3.74140358 C12.77660694 3.74697307 11.16732083 3.74743525 9.55805969 3.74245071 C7.36331552 3.73650466 5.16942883 3.74898872 2.97476196 3.76622009 C1.74605346 3.76864999 0.51734495 3.77107988 -0.74859715 3.77358341 C-4.113191 4.18610271 -5.49344572 4.75739678 -7.85054016 7.15390015 Z " fill="#000000" transform="translate(138.8505401611328,323.8460998535156)"/>
<path d="M0 0 C4.28590933 2.79515826 7.22425239 5.92275717 8.875 10.875 C9.47359542 16.9806733 7.86339398 20.73869785 4.875 25.875 C4.215 25.875 3.555 25.875 2.875 25.875 C3.06199463 26.87877686 3.24898926 27.88255371 3.44165039 28.91674805 C4.13490963 32.65172218 4.81596385 36.38883685 5.4934082 40.12670898 C5.78794803 41.74222514 6.08576649 43.35714719 6.38696289 44.97143555 C6.82006441 47.29586637 7.24121534 49.6221994 7.66015625 51.94921875 C7.79656021 52.66712082 7.93296417 53.38502289 8.07350159 54.12467957 C8.75687775 57.99256402 8.96524825 61.08015965 7.875 64.875 C3.7632744 64.89965746 -0.34842278 64.91783959 -4.46020508 64.92993164 C-5.85995228 64.9349708 -7.2596942 64.94180216 -8.65942383 64.95043945 C-10.66745777 64.9625232 -12.67552957 64.96769807 -14.68359375 64.97265625 C-15.89329834 64.97789307 -17.10300293 64.98312988 -18.34936523 64.98852539 C-21.125 64.875 -21.125 64.875 -22.125 63.875 C-21.92984664 55.10645124 -20.05804324 46.44843383 -18.41015625 37.86523438 C-18.23097656 36.89005859 -18.05179687 35.91488281 -17.8671875 34.91015625 C-17.7007373 34.0375415 -17.53428711 33.16492676 -17.36279297 32.26586914 C-16.95040094 28.11950866 -17.95033747 26.15022581 -20.1875 22.625 C-22.4341411 18.7653858 -22.92728874 15.26251653 -22.125 10.875 C-20.71354532 6.03194614 -18.78778691 2.84292521 -14.3125 0.375 C-9.26640917 -1.73143866 -5.17954578 -1.86463648 0 0 Z M-15.9375 8.625 C-17.69598729 11.95687066 -17.63762487 14.15846973 -17.125 17.875 C-15.8875 19.36 -15.8875 19.36 -14.625 20.875 C-11.4885775 24.638707 -11.83793479 26.08007487 -12.125 30.875 C-12.43703107 33.2250255 -12.80380716 35.56829026 -13.21875 37.90234375 C-13.44433594 39.18818359 -13.66992188 40.47402344 -13.90234375 41.79882812 C-14.14309948 43.13674209 -14.3839865 44.47463244 -14.625 45.8125 C-14.86643094 47.17763801 -15.1073213 48.54287174 -15.34765625 49.90820312 C-15.93479546 53.23141106 -16.5291859 56.55333641 -17.125 59.875 C-10.525 59.875 -3.925 59.875 2.875 59.875 C2.38198878 52.0854228 1.40003748 44.57458125 -0.10864258 36.92797852 C-0.9481147 32.52632389 -1.43059898 28.3797553 -1.125 23.875 C0.20833333 22.54166667 1.54166667 21.20833333 2.875 19.875 C4.13632791 15.95824491 4.28139273 12.89098184 2.75 9.0625 C0.0091744 5.86487014 -2.41949163 4.13082626 -6.625 3.5 C-10.59608434 4.09566265 -13.0855002 5.87134502 -15.9375 8.625 Z " fill="#000000" transform="translate(420.125,314.125)"/>
<path d="M0 0 C6.07566429 3.43905526 10.92132228 7.09999647 13.3125 13.875 C14.8363789 20.75166359 14.63530768 26.82858025 11.0859375 33.01171875 C7.24109758 38.57337221 3.40550121 41.98062644 -3.26171875 43.4375 C-9.6082551 44.28724545 -14.96334555 43.87006263 -20.6875 40.875 C-25.75279223 36.71020417 -30.25473639 31.20263611 -30.92578125 24.4921875 C-31.12372424 17.17871476 -30.26717202 11.00142307 -25.33203125 5.3125 C-17.92043649 -1.36389636 -9.32275456 -2.84423021 0 0 Z M-22.296875 9.5703125 C-26.02772162 14.74738617 -26.63145107 19.63443461 -25.6875 25.875 C-23.65485788 31.86000181 -19.73635926 35.01180823 -14.4375 38.25 C-8.77933568 39.53594644 -3.50541342 38.75029165 1.6875 36.25 C6.46862415 31.92422101 8.89593509 27.23337041 9.4140625 20.85546875 C9.13251419 15.36527674 6.04096423 10.70999178 2.3125 6.875 C-5.64600397 1.50763685 -15.67548975 2.59535813 -22.296875 9.5703125 Z " fill="#000000" transform="translate(227.6875,213.125)"/>
<path d="M0 0 C0.8545021 0.00092179 1.70900419 0.00184359 2.58940029 0.00279331 C3.56681683 0.00141865 4.54423336 0.00004398 5.55126858 -0.00137234 C6.63235897 0.00222294 7.71344936 0.00581821 8.82730007 0.00952244 C10.52464039 0.0093034 10.52464039 0.0093034 12.25627041 0.00907993 C16.01686389 0.00977964 19.77740855 0.01757472 23.53799343 0.02539158 C26.13731261 0.02725555 28.73663215 0.02867955 31.33595181 0.0296793 C37.49122295 0.03311442 43.64647378 0.04100527 49.80173725 0.05102879 C56.80767064 0.06219089 63.81360485 0.06770062 70.81954491 0.07272422 C85.23481851 0.08318791 99.65007722 0.10078675 114.06533718 0.12304783 C114.62783718 2.06054783 114.62783718 2.06054783 115.06533718 4.12304783 C114.06533718 5.12304783 114.06533718 5.12304783 112.13067436 5.24609566 C111.27617227 5.24517386 110.42167017 5.24425207 109.54127407 5.24330235 C108.07514927 5.24536434 108.07514927 5.24536434 106.57940578 5.24746799 C105.49831539 5.24387272 104.417225 5.24027744 103.30337429 5.23657322 C101.60603397 5.23679226 101.60603397 5.23679226 99.87440395 5.23701572 C96.11381047 5.23631602 92.35326581 5.22852094 88.59268093 5.22070408 C85.99336175 5.2188401 83.39404222 5.2174161 80.79472256 5.21641636 C74.63945141 5.21298123 68.48420058 5.20509039 62.32893711 5.19506687 C55.32300373 5.18390477 48.31706951 5.17839504 41.31112945 5.17337143 C26.89585585 5.16290775 12.48059714 5.14530891 -1.93466282 5.12304783 C-2.49716282 3.18554783 -2.49716282 3.18554783 -2.93466282 1.12304783 C-1.93466282 0.12304783 -1.93466282 0.12304783 0 0 Z " fill="#000000" transform="translate(266.9346628189087,124.87695217132568)"/>
<path d="M0 0 C2.0625 0.4375 2.0625 0.4375 4 1 C4.33 3.64 4.66 6.28 5 9 C5.7425 8.505 6.485 8.01 7.25 7.5 C10 6 10 6 14 6 C14.3125 8.3125 14.3125 8.3125 14 11 C11.5 12.8125 11.5 12.8125 9 14 C10.63412443 15.70840281 11.86906094 16.93453047 14 18 C14 19.65 14 21.3 14 23 C10.65626525 22.44271087 7.96687001 21.64826111 5 20 C4.67 22.64 4.34 25.28 4 28 C2.0625 28.5625 2.0625 28.5625 0 29 C-2.04698414 26.95301586 -1.70045693 22.69588759 -2 20 C-2.7425 20.515625 -3.485 21.03125 -4.25 21.5625 C-7 23 -7 23 -9.3125 22.6875 C-9.869375 22.460625 -10.42625 22.23375 -11 22 C-10.65120368 18.74456771 -9.97866739 17.98126893 -7.4375 15.75 C-6.633125 15.1725 -5.82875 14.595 -5 14 C-6.98 12.68 -8.96 11.36 -11 10 C-10.67 8.68 -10.34 7.36 -10 6 C-6.62537285 6.54723683 -4.91765 7.0549 -2 9 C-1.855625 7.700625 -1.71125 6.40125 -1.5625 5.0625 C-1.125 1.125 -1.125 1.125 0 0 Z " fill="#000000" transform="translate(158,395)"/>
<path d="M0 0 C2.0625 0.4375 2.0625 0.4375 4 1 C4.33 3.64 4.66 6.28 5 9 C5.7425 8.505 6.485 8.01 7.25 7.5 C10 6 10 6 14 6 C14 7.65 14 9.3 14 11 C12.02 11.99 10.04 12.98 8 14 C9.98 15.32 11.96 16.64 14 18 C13.67 19.65 13.34 21.3 13 23 C10.07120629 22.37240135 7.63904371 21.41377341 5 20 C4.67 22.64 4.34 25.28 4 28 C2.0625 28.5625 2.0625 28.5625 0 29 C-2.04698414 26.95301586 -1.70045693 22.69588759 -2 20 C-2.7425 20.515625 -3.485 21.03125 -4.25 21.5625 C-7 23 -7 23 -9.3125 22.6875 C-9.869375 22.460625 -10.42625 22.23375 -11 22 C-10.65120368 18.74456771 -9.97866739 17.98126893 -7.4375 15.75 C-6.633125 15.1725 -5.82875 14.595 -5 14 C-6.98 12.68 -8.96 11.36 -11 10 C-10.67 8.68 -10.34 7.36 -10 6 C-6.62537285 6.54723683 -4.91765 7.0549 -2 9 C-1.855625 7.700625 -1.71125 6.40125 -1.5625 5.0625 C-1.125 1.125 -1.125 1.125 0 0 Z " fill="#000000" transform="translate(277,395)"/>
<path d="M0 0 C2.0625 0.4375 2.0625 0.4375 4 1 C4.33 3.64 4.66 6.28 5 9 C5.7425 8.484375 6.485 7.96875 7.25 7.4375 C10 6 10 6 12.3125 6.3125 C12.869375 6.539375 13.42625 6.76625 14 7 C13.65120368 10.25543229 12.97866739 11.01873107 10.4375 13.25 C9.633125 13.8275 8.82875 14.405 8 15 C9.98 16.32 11.96 17.64 14 19 C13.67 20.32 13.34 21.64 13 23 C9.62537285 22.45276317 7.91765 21.9451 5 20 C4.67 22.64 4.34 25.28 4 28 C2.0625 28.5625 2.0625 28.5625 0 29 C-2.04698414 26.95301586 -1.70045693 22.69588759 -2 20 C-2.7425 20.515625 -3.485 21.03125 -4.25 21.5625 C-7 23 -7 23 -9.3125 22.6875 C-9.869375 22.460625 -10.42625 22.23375 -11 22 C-11 20.68 -11 19.36 -11 18 C-8 15.75 -8 15.75 -5 14 C-6.98 13.01 -8.96 12.02 -11 11 C-11 9.35 -11 7.7 -11 6 C-7.65626525 6.55728913 -4.96687001 7.35173889 -2 9 C-1.855625 7.700625 -1.71125 6.40125 -1.5625 5.0625 C-1.125 1.125 -1.125 1.125 0 0 Z " fill="#000000" transform="translate(198,395)"/>
<path d="M0 0 C1.65 0.33 3.3 0.66 5 1 C5 3.64 5 6.28 5 9 C5.721875 8.505 6.44375 8.01 7.1875 7.5 C10.14848659 5.92080715 11.71253029 5.71821688 15 6 C14.8125 8.3125 14.8125 8.3125 14 11 C11.4375 12.8125 11.4375 12.8125 9 14 C9.99 14.5775 10.98 15.155 12 15.75 C12.99 16.4925 13.98 17.235 15 18 C15 19.32 15 20.64 15 22 C8.375 21.25 8.375 21.25 5 19 C5 21.64 5 24.28 5 27 C3.35 27.33 1.7 27.66 0 28 C0 25.03 0 22.06 0 19 C-0.721875 19.495 -1.44375 19.99 -2.1875 20.5 C-5.14848659 22.07919285 -6.71253029 22.28178312 -10 22 C-9.8125 19.6875 -9.8125 19.6875 -9 17 C-6.4375 15.1875 -6.4375 15.1875 -4 14 C-4.99 13.4225 -5.98 12.845 -7 12.25 C-7.99 11.5075 -8.98 10.765 -10 10 C-10 8.68 -10 7.36 -10 6 C-6.08393425 6.53400897 -3.60661066 7.19669467 0 9 C0 6.03 0 3.06 0 0 Z " fill="#000000" transform="translate(197,334)"/>
<path d="M0 0 C1.32 0 2.64 0 4 0 C4.33 2.97 4.66 5.94 5 9 C5.7425 8.505 6.485 8.01 7.25 7.5 C10 6 10 6 14 6 C13.8125 8.3125 13.8125 8.3125 13 11 C10.4375 12.8125 10.4375 12.8125 8 14 C8.99 14.5775 9.98 15.155 11 15.75 C11.99 16.4925 12.98 17.235 14 18 C14 19.32 14 20.64 14 22 C9.72656908 22.36629408 7.51187196 21.40814077 4 19 C4 21.97 4 24.94 4 28 C2.35 27.67 0.7 27.34 -1 27 C-1 24.36 -1 21.72 -1 19 C-1.721875 19.495 -2.44375 19.99 -3.1875 20.5 C-6.14848659 22.07919285 -7.71253029 22.28178312 -11 22 C-11 20.68 -11 19.36 -11 18 C-6.92857143 15 -6.92857143 15 -4 15 C-4 14.34 -4 13.68 -4 13 C-5.98 12.34 -7.96 11.68 -10 11 C-10.33 9.35 -10.66 7.7 -11 6 C-6.72656908 5.63370592 -4.51187196 6.59185923 -1 9 C-1.020625 7.700625 -1.04125 6.40125 -1.0625 5.0625 C-1.08399454 3.70834367 -1.07148199 2.35243917 -1 1 C-0.67 0.67 -0.34 0.34 0 0 Z " fill="#000000" transform="translate(277,334)"/>
<path d="M0 0 C1.32 0 2.64 0 4 0 C4.33 2.97 4.66 5.94 5 9 C5.7425 8.505 6.485 8.01 7.25 7.5 C10 6 10 6 14 6 C13.8125 8.375 13.8125 8.375 13 11 C10.4375 12.3125 10.4375 12.3125 8 13 C9.93254772 15.0245738 11.63158688 16.42105792 14 18 C14 19.32 14 20.64 14 22 C9.72656908 22.36629408 7.51187196 21.40814077 4 19 C4 21.97 4 24.94 4 28 C2.35 27.67 0.7 27.34 -1 27 C-1.33 24.69 -1.66 22.38 -2 20 C-2.556875 20.33 -3.11375 20.66 -3.6875 21 C-6.30284522 22.1309601 -8.1806646 22.15662974 -11 22 C-11 20.68 -11 19.36 -11 18 C-6.92857143 15 -6.92857143 15 -4 15 C-4 14.34 -4 13.68 -4 13 C-5.4540625 12.62875 -5.4540625 12.62875 -6.9375 12.25 C-7.948125 11.8375 -8.95875 11.425 -10 11 C-10.875 8.875 -10.875 8.875 -11 7 C-7.61608307 5.93648325 -6.4195366 5.78557018 -3.1875 7.4375 C-2.465625 7.953125 -1.74375 8.46875 -1 9 C-1.020625 7.700625 -1.04125 6.40125 -1.0625 5.0625 C-1.08399454 3.70834367 -1.07148199 2.35243917 -1 1 C-0.67 0.67 -0.34 0.34 0 0 Z " fill="#000000" transform="translate(158,334)"/>
<path d="M0 0 C0.99 0 1.98 0 3 0 C3.33 2.97 3.66 5.94 4 9 C4.9075 8.484375 5.815 7.96875 6.75 7.4375 C10 6 10 6 12.375 6.3125 C12.91125 6.539375 13.4475 6.76625 14 7 C13.65120368 10.25543229 12.97866739 11.01873107 10.4375 13.25 C9.633125 13.8275 8.82875 14.405 8 15 C9.98 16.32 11.96 17.64 14 19 C13.67 20.32 13.34 21.64 13 23 C9.04179141 22.43454163 6.3340947 21.19097652 3 19 C3 21.97 3 24.94 3 28 C1.68 28 0.36 28 -1 28 C-1 25.03 -1 22.06 -1 19 C-2.0725 19.680625 -3.145 20.36125 -4.25 21.0625 C-7.66157733 23.03471002 -7.66157733 23.03471002 -10.4375 22.75 C-10.953125 22.5025 -11.46875 22.255 -12 22 C-11.65120368 18.74456771 -10.97866739 17.98126893 -8.4375 15.75 C-7.633125 15.1725 -6.82875 14.595 -6 14 C-7.98 12.68 -9.96 11.36 -12 10 C-11.67 8.68 -11.34 7.36 -11 6 C-7.65626525 6.55728913 -4.96687001 7.35173889 -2 9 C-1.855625 7.700625 -1.71125 6.40125 -1.5625 5.0625 C-1.125 1.125 -1.125 1.125 0 0 Z " fill="#000000" transform="translate(238,395)"/>
<path d="M0 0 C1.32 0 2.64 0 4 0 C4.33 2.97 4.66 5.94 5 9 C5.721875 8.484375 6.44375 7.96875 7.1875 7.4375 C10.4195366 5.78557018 11.61608307 5.93648325 15 7 C13.9024777 9.99324263 13.32317108 10.84610901 10.375 12.25 C9.59125 12.4975 8.8075 12.745 8 13 C8 13.66 8 14.32 8 15 C9.175625 15.37125 9.175625 15.37125 10.375 15.75 C13.32317108 17.15389099 13.9024777 18.00675737 15 21 C11.44706507 22.14947895 10.20023331 22.0868937 6.6875 20.5625 C5.800625 20.046875 4.91375 19.53125 4 19 C4 21.97 4 24.94 4 28 C2.68 28 1.36 28 0 28 C0 25.03 0 22.06 0 19 C-0.886875 19.515625 -1.77375 20.03125 -2.6875 20.5625 C-6.20023331 22.0868937 -7.44706507 22.14947895 -11 21 C-9.60746468 17.51866169 -8.36823784 16.52113967 -5 15 C-4.67 14.34 -4.34 13.68 -4 13 C-5.175625 12.62875 -5.175625 12.62875 -6.375 12.25 C-9.32317108 10.84610901 -9.9024777 9.99324263 -11 7 C-7.61608307 5.93648325 -6.4195366 5.78557018 -3.1875 7.4375 C-2.465625 7.953125 -1.74375 8.46875 -1 9 C-0.67 6.03 -0.34 3.06 0 0 Z " fill="#000000" transform="translate(237,334)"/>
<path d="M0 0 C3.31578076 2.66879915 3.89008359 4.31607564 4.5625 8.5 C4 12 4 12 2 14.9375 C-2.13313471 17.77903011 -4.04904141 17.62869315 -9 17 C-11.4375 16 -11.4375 16 -13 14 C-14.08745801 9.50517355 -14.57436819 7.28549071 -12.6875 3.0625 C-9.37068447 -0.99138564 -4.91058434 -0.7588292 0 0 Z M-6 4 C-7.64555699 5.22809091 -7.64555699 5.22809091 -9 7 C-9.07642709 9.11149645 -9.07642709 9.11149645 -8 11 C-6.0162233 12.28436734 -6.0162233 12.28436734 -4 13 C-3.01 12.34 -2.02 11.68 -1 11 C-0.74969023 8.41619823 -0.74969023 8.41619823 -1 6 C-3.475 5.01 -3.475 5.01 -6 4 Z " fill="#000000" transform="translate(122,119)"/>
<path d="M0 0 C3.5060303 0.86943897 4.94966563 2.56083702 6.9375 5.48046875 C7.7253128 9.89222045 7.46725133 11.70239649 4.9375 15.41796875 C1.60161401 17.71139037 -0.16234094 18.23862384 -4.125 17.9609375 C-7.6310303 17.09149853 -9.07466563 15.40010048 -11.0625 12.48046875 C-11.8503128 8.06871705 -11.59225133 6.25854101 -9.0625 2.54296875 C-5.72661401 0.24954713 -3.96265906 -0.27768634 0 0 Z M-6.0625 6.48046875 C-5.7325 8.46046875 -5.4025 10.44046875 -5.0625 12.48046875 C-3.22549211 13.25289144 -3.22549211 13.25289144 -1.0625 13.48046875 C0.87404948 12.46076557 0.87404948 12.46076557 1.9375 10.48046875 C1.70706136 7.82580826 1.70706136 7.82580826 0.9375 5.48046875 C-2.54831856 4.27846235 -2.74242344 4.26708438 -6.0625 6.48046875 Z " fill="#000000" transform="translate(92.0625,118.51953125)"/>
<path d="M0 0 C2.97047497 0.48051801 4.29231801 0.90017401 6.125 3.34375 C7.21245801 7.83857645 7.69936819 10.05825929 5.8125 14.28125 C3.93380818 16.57742889 3.01726877 17.22317314 0.1015625 17.6171875 C-6.19728167 17.8892306 -6.19728167 17.8892306 -9.4375 15.28125 C-11.23978899 11.59831163 -11.45457768 9.40079375 -10.875 5.34375 C-8.31154872 0.10539304 -5.43165005 -0.3573454 0 0 Z M-5.875 6.34375 C-6.12530977 8.92755177 -6.12530977 8.92755177 -5.875 11.34375 C-3.895 12.33375 -3.895 12.33375 -1.875 13.34375 C-0.555 12.35375 0.765 11.36375 2.125 10.34375 C1.795 8.69375 1.465 7.04375 1.125 5.34375 C-2.36081856 4.1417436 -2.55492344 4.13036563 -5.875 6.34375 Z " fill="#000000" transform="translate(64.875,118.65625)"/>
<path d="M0 0 C7.92 0 15.84 0 24 0 C24.33 1.32 24.66 2.64 25 4 C24 5 24 5 21.68334961 5.11352539 C20.68311768 5.10828857 19.68288574 5.10305176 18.65234375 5.09765625 C17.57275391 5.09443359 16.49316406 5.09121094 15.38085938 5.08789062 C14.24455078 5.07951172 13.10824219 5.07113281 11.9375 5.0625 C10.79732422 5.05798828 9.65714844 5.05347656 8.48242188 5.04882812 C5.65489649 5.03699747 2.8274736 5.0205141 0 5 C-0.33 4.01 -0.66 3.02 -1 2 C-0.67 1.34 -0.34 0.68 0 0 Z " fill="#000000" transform="translate(221,125)"/>
<path d="M0 0 C0.99 0.33 1.98 0.66 3 1 C2.42308522 4.16854747 1.58353113 5.78226459 -0.72265625 8.015625 C-1.26083984 8.54414063 -1.79902344 9.07265625 -2.35351562 9.6171875 C-2.91748047 10.15601563 -3.48144531 10.69484375 -4.0625 11.25 C-4.63033203 11.80429688 -5.19816406 12.35859375 -5.78320312 12.9296875 C-7.18212469 14.29334214 -8.59019114 15.64760417 -10 17 C-10.99 16.67 -11.98 16.34 -13 16 C-12.57047945 11.12625665 -10.52870782 9.07198971 -7.0625 5.75 C-6.16660156 4.87859375 -5.27070312 4.0071875 -4.34765625 3.109375 C-2 1 -2 1 0 0 Z " fill="#000000" transform="translate(48,157)"/>
<path d="M0 0 C0.33 0.99 0.66 1.98 1 3 C-0.2578125 5.0078125 -0.2578125 5.0078125 -2.125 7.125 C-2.72570313 7.82882813 -3.32640625 8.53265625 -3.9453125 9.2578125 C-6.31139318 11.264033 -7.95461799 11.65225742 -11 12 C-11 8 -11 8 -9.35546875 5.859375 C-8.64003906 5.16328125 -7.92460938 4.4671875 -7.1875 3.75 C-6.12595703 2.69039062 -6.12595703 2.69039062 -5.04296875 1.609375 C-3 0 -3 0 0 0 Z " fill="#000000" transform="translate(54,165)"/>
<path d="M0 0 C2.31 0 4.62 0 7 0 C7.33 1.65 7.66 3.3 8 5 C5.03 5 2.06 5 -1 5 C-0.67 3.35 -0.34 1.7 0 0 Z " fill="#000000" transform="translate(473,453)"/>
<path d="M0 0 C1.4540625 0.0309375 1.4540625 0.0309375 2.9375 0.0625 C3.2675 1.7125 3.5975 3.3625 3.9375 5.0625 C1.6275 5.0625 -0.6825 5.0625 -3.0625 5.0625 C-3.625 3.125 -3.625 3.125 -4.0625 1.0625 C-3.0625 0.0625 -3.0625 0.0625 0 0 Z " fill="#000000" transform="translate(11.0625,452.9375)"/>
</svg>
