<?xml version="1.0" standalone="no"?>
<!DOCTYPE svg PUBLIC "-//W3C//DTD SVG 20010904//EN"
 "http://www.w3.org/TR/2001/REC-SVG-20010904/DTD/svg10.dtd">
<svg version="1.0" xmlns="http://www.w3.org/2000/svg"
 width="100.000000pt" height="100.000000pt" viewBox="0 0 100.000000 100.000000"
 preserveAspectRatio="xMidYMid meet">

<g transform="translate(0.000000,100.000000) scale(0.100000,-0.100000)"
fill="#000000" stroke="none">
<path d="M217 724 c-119 -120 -217 -221 -217 -225 0 -15 431 -440 443 -436 9
2 13 44 15 147 l3 143 72 -7 c209 -18 378 -103 423 -212 19 -44 44 -36 44 15
0 59 -28 172 -56 229 -39 79 -119 156 -206 197 -79 37 -174 65 -223 65 -52 0
-54 5 -57 155 -2 86 -7 140 -14 142 -5 2 -108 -94 -227 -213z m203 12 l0 -123
89 -12 c98 -12 183 -38 246 -75 87 -51 170 -167 190 -265 l7 -35 -40 32 c-93
74 -279 132 -424 132 l-68 0 0 -125 c0 -69 -3 -125 -8 -125 -4 0 -88 81 -187
180 l-180 180 180 180 c99 99 183 180 187 180 5 0 8 -56 8 -124z"/>
</g>
</svg>
