<svg version="1.1" id="Layer_1" xmlns="http://www.w3.org/2000/svg" xmlns:xlink="http://www.w3.org/1999/xlink" x="0px" y="0px"
	 width="100%" viewBox="0 0 512 512" enable-background="new 0 0 512 512" xml:space="preserve">
<path fill="#000000" opacity="1.000000" stroke="none" 
	d="
M1.000000,189.000000 
	C1.000000,126.000000 1.000000,63.500000 1.000000,1.000000 
	C171.666672,1.000000 342.333344,1.000000 513.000000,1.000000 
	C513.000000,171.666672 513.000000,342.333344 513.000000,513.000000 
	C342.333344,513.000000 171.666672,513.000000 1.000000,513.000000 
	C1.000000,405.166656 1.000000,297.333344 1.000000,189.000000 
M104.026237,453.989990 
	C104.026237,453.989990 104.093262,453.988800 104.010857,453.276642 
	C103.347794,452.141327 102.684731,451.006012 101.991409,449.084778 
	C97.124031,437.930267 98.285316,425.890656 97.112427,414.230377 
	C95.891068,402.088104 95.672089,389.845551 94.992615,377.648071 
	C94.340996,365.950592 93.673073,354.253998 92.990486,342.558258 
	C92.000275,325.591736 90.973976,308.627289 89.994537,291.660126 
	C89.300156,279.631287 88.578583,267.603149 88.011734,255.568008 
	C87.264801,239.709473 86.755524,223.839417 85.951012,207.984116 
	C85.517509,199.440643 84.609093,190.922226 84.062447,182.383057 
	C83.845154,178.988724 84.026764,175.568848 84.026764,171.987930 
	C86.322739,171.987930 87.816261,171.987930 89.309776,171.987930 
	C186.104126,171.987213 282.898468,171.986145 379.692810,171.985962 
	C411.679932,171.985901 443.667084,171.951294 475.654114,172.010101 
	C486.296295,172.029678 494.029327,164.152100 494.660736,156.740631 
	C495.511230,146.757202 495.550385,136.295883 493.484802,126.560089 
	C489.502716,107.790924 480.184235,91.730583 464.934143,79.308205 
	C449.693695,66.893738 432.660217,60.355701 412.055359,61.060020 
	C408.804016,60.699474 405.555206,60.057922 402.300842,60.028198 
	C389.809570,59.914120 377.315979,59.939270 364.824615,60.057816 
	C362.578308,60.079132 360.338501,60.787098 357.236023,61.016953 
	C356.488312,59.728455 355.250854,58.502518 355.076874,57.140717 
	C354.290405,50.984261 354.134918,44.735523 353.137604,38.620247 
	C351.397644,27.951475 345.130737,19.911114 336.852661,13.457802 
	C330.514404,8.516727 323.345215,5.251220 314.278748,4.784963 
	C313.194946,4.530545 312.111176,4.053972 311.027344,4.053867 
	C274.103699,4.050309 237.180069,4.091950 199.440948,4.144643 
	C198.520874,4.427640 197.617294,4.792701 196.678268,4.981444 
	C179.978806,8.338071 167.423874,17.129791 161.893204,33.616802 
	C156.817200,48.748371 158.582077,64.442619 160.120392,80.552109 
	C160.560440,80.921089 161.000504,81.290062 161.401672,81.716232 
	C161.401672,81.716232 161.455215,81.759987 161.881622,82.268715 
	C165.887665,87.283287 171.615967,87.968727 177.353897,87.973717 
	C255.909088,88.042015 334.464355,88.018417 413.019592,88.023560 
	C417.011139,88.023819 421.002686,88.079803 425.394806,88.739861 
	C454.836548,94.911942 470.918030,125.028099 467.396576,145.008102 
	C464.700806,145.008102 461.911926,145.008102 459.123077,145.008102 
	C324.526855,145.008255 189.930664,145.007538 55.334450,145.010422 
	C45.329998,145.010635 45.233696,145.014954 45.998405,135.400848 
	C47.070225,121.925644 53.718739,111.205162 63.109535,101.990211 
	C70.367691,94.867973 79.602562,91.295715 89.946220,88.011276 
	C96.081284,88.016685 102.230247,88.277313 108.346848,87.943993 
	C112.957001,87.692764 117.525688,86.680748 122.846107,85.975319 
	C125.240150,84.025726 127.634193,82.076141 130.694519,79.699364 
	C132.825546,74.262291 132.520828,69.252144 127.747986,64.331520 
	C124.134644,63.110462 120.521301,61.889400 116.333252,60.110695 
	C110.223045,60.465065 104.112839,60.819435 97.114685,61.033585 
	C88.195427,61.090240 79.601189,62.789291 71.287109,66.020714 
	C56.132301,71.910919 43.585907,81.261055 33.931992,94.350006 
	C21.334694,111.429649 16.826330,130.873184 18.102814,151.731827 
	C18.607117,159.972458 21.140221,168.886093 33.836395,171.196625 
	C40.269798,172.367416 47.022217,171.923126 53.630844,171.933640 
	C56.812447,171.938705 57.952320,172.981827 58.082489,176.259460 
	C58.553616,188.122009 59.359806,199.970917 59.993286,211.827454 
	C60.688980,224.848495 61.320377,237.872940 62.004219,250.894638 
	C62.653481,263.257996 63.325840,275.620117 64.003586,287.981964 
	C64.717125,300.996521 65.449074,314.010071 66.040016,327.948761 
	C66.341866,334.009003 66.643707,340.069244 66.997108,347.040527 
	C67.333931,354.638611 67.638283,362.238312 68.018517,369.834229 
	C68.290222,375.262054 68.658615,380.685089 68.992775,386.109711 
	C69.996010,402.396149 70.640938,418.716431 72.168358,434.953644 
	C72.890617,442.631561 74.617737,450.384003 77.100739,457.691101 
	C81.883263,471.765350 91.726395,482.402557 102.778137,491.925018 
	C110.371376,498.467499 118.975769,503.140808 128.929565,505.073090 
	C137.066711,506.652771 145.195984,508.273102 154.079376,510.000671 
	C163.723099,509.934021 173.366821,509.867401 183.452652,509.912872 
	C183.452652,509.912872 183.896790,509.809174 184.837723,509.950806 
	C215.956635,509.965698 247.075562,510.006012 278.194458,509.986237 
	C297.827454,509.973755 317.460358,509.871399 337.536438,509.912903 
	C337.536438,509.912903 337.977509,509.800781 338.909241,509.933105 
	C345.822266,509.914215 352.735321,509.895325 360.524536,509.984283 
	C362.448181,509.655090 364.373322,509.334595 366.295166,508.995148 
	C372.878174,507.832611 379.706573,507.412842 385.992218,505.344666 
	C400.225861,500.661407 412.355774,492.433960 422.340179,481.159149 
	C429.640198,472.915649 434.478210,463.374420 438.156952,453.029999 
	C442.664154,440.355896 442.327332,427.200195 443.783539,413.621460 
	C443.796814,407.745300 443.810059,401.869141 443.961731,395.103302 
	C444.307404,391.834839 444.774628,388.573853 444.976868,385.296539 
	C445.698792,373.598389 446.309967,361.893463 447.001740,350.193390 
	C447.985046,333.561920 449.020264,316.933502 449.999725,300.301819 
	C450.698608,288.434143 451.501343,276.569580 451.974884,264.692322 
	C452.766785,244.832169 453.387451,224.964584 453.960419,205.096649 
	C454.132812,199.119415 449.304474,194.338974 443.193604,193.997818 
	C434.488678,193.511841 428.762939,197.040131 428.069275,203.699432 
	C427.199615,212.047760 426.537415,220.422562 426.003204,228.799820 
	C425.225922,240.988678 424.629364,253.189209 423.980713,265.386078 
	C423.296661,278.248199 422.661652,291.112946 421.968689,303.974548 
	C421.329224,315.843506 420.638000,327.709656 419.975769,339.577393 
	C419.304474,351.606964 418.519897,363.631775 418.002289,375.667999 
	C417.234222,393.528229 416.817047,411.404907 415.893799,429.256165 
	C415.644806,434.070892 414.517822,438.949493 413.049988,443.562103 
	C411.484344,448.482147 409.037811,453.121887 406.356384,458.179047 
	C404.541443,460.437592 402.726501,462.696106 400.971985,464.976532 
	C400.971985,464.976532 400.959747,464.913483 400.357239,465.128357 
	C399.517761,466.080139 398.678314,467.031952 397.419312,468.123199 
	C397.153595,468.298309 397.006958,468.544373 396.480255,469.070709 
	C396.284515,469.364105 396.088776,469.657532 395.274658,470.237610 
	C386.111725,477.535553 375.850433,481.952515 363.058228,482.036835 
	C294.050476,482.024902 225.042740,482.011536 156.034988,482.007935 
	C154.042847,482.007843 152.050720,482.110779 149.161087,482.029510 
	C140.320496,482.543671 132.611877,479.211365 124.767601,474.311432 
	C124.016472,474.177124 123.265343,474.042816 122.821381,473.945862 
	C122.821381,473.945862 122.860115,473.638885 122.459129,473.019897 
	C118.985703,470.318176 115.512276,467.616425 112.023506,464.976471 
	C112.023506,464.976471 112.085358,464.961426 111.806335,464.326355 
	C109.884079,461.857300 107.961823,459.388245 106.025917,456.982147 
	C106.025917,456.982147 106.090164,456.976868 106.011185,456.317078 
	C105.352226,455.519196 104.693268,454.721344 104.026237,453.989990 
M269.965942,400.059052 
	C269.977020,378.128998 270.014771,356.198883 269.992218,334.268860 
	C269.965363,308.188568 269.886719,282.108337 269.965942,255.096283 
	C269.974426,250.103348 270.393829,245.063675 269.833282,240.135468 
	C269.510529,237.298035 268.255646,233.972488 266.276062,232.037140 
	C261.671204,227.535248 256.183594,226.702576 250.068588,229.843765 
	C245.183197,232.353333 243.937607,236.042389 243.947296,241.186493 
	C244.055740,298.772766 244.002106,356.359375 244.056229,413.945862 
	C244.057999,415.829498 244.451035,417.830658 245.160751,419.573883 
	C247.401932,425.078857 252.535141,425.892792 257.423462,425.838989 
	C262.946533,425.778198 267.859344,421.390411 268.885193,415.704865 
	C269.752411,410.898376 269.556946,405.900116 269.965942,400.059052 
M332.039215,381.867615 
	C331.365753,392.555328 330.498627,403.235748 330.095642,413.933655 
	C329.874298,419.809814 335.287964,425.327087 341.094757,425.976044 
	C349.061646,426.866425 354.632996,423.486786 355.940399,416.448975 
	C356.953644,410.994568 357.688751,405.441925 357.953400,399.904572 
	C358.522827,387.990936 358.709229,376.058929 359.774597,363.633606 
	C359.791962,358.095642 359.809357,352.557678 359.960541,346.126007 
	C360.649078,338.813019 361.622589,331.513245 361.962250,324.184082 
	C362.533844,311.850769 362.702789,299.498810 363.765411,286.646881 
	C364.119049,274.434265 364.472717,262.221649 364.735443,249.277161 
	C364.820282,246.193542 364.988495,243.109512 364.973877,240.026367 
	C364.934479,231.719193 357.011902,226.044769 348.959320,228.499313 
	C341.223206,230.857361 338.399628,235.464417 337.959076,245.982910 
	C337.364502,260.178589 336.579620,274.366425 336.011597,288.563049 
	C335.554413,299.989502 335.297974,311.424042 334.231262,323.357147 
	C334.207794,328.228729 334.184326,333.100342 334.031128,338.842163 
	C334.078705,340.890167 334.126312,342.938202 334.037323,345.855133 
	C333.416321,357.564331 332.795319,369.273499 332.039215,381.867615 
M179.962814,347.055908 
	C179.670456,341.339630 179.378098,335.623322 178.963486,329.079376 
	C178.639832,322.466431 178.344101,315.851990 177.986404,309.240906 
	C177.344635,297.379303 176.571228,285.524078 176.030502,273.658081 
	C175.555756,263.239532 175.315201,252.810226 174.988571,242.385117 
	C174.770950,235.439270 170.402237,228.998764 164.850967,228.089249 
	C158.280533,227.012772 151.178619,229.434525 148.996597,236.862854 
	C148.984070,242.953110 148.971527,249.043365 148.996704,256.040955 
	C149.330841,260.641235 149.735291,265.237701 149.985733,269.842529 
	C150.693726,282.860565 151.347961,295.881561 152.005692,308.902283 
	C152.680435,322.259918 153.348892,335.617859 153.993393,348.976959 
	C154.734024,364.328217 155.445358,379.680847 156.035065,395.953339 
	C156.413544,401.961792 156.792023,407.970215 157.046188,414.651398 
	C157.090408,415.103241 157.134644,415.555115 157.250931,416.657745 
	C157.794556,416.999664 158.338165,417.341614 158.257004,417.618561 
	C158.226242,418.027374 158.195465,418.436218 158.060944,419.367371 
	C158.696472,419.951111 159.332016,420.534851 160.268539,421.744110 
	C168.839401,429.387726 178.115067,427.431549 183.236694,416.268036 
	C183.142883,409.032867 183.067551,401.797302 182.918045,394.563293 
	C182.906845,394.020905 182.365875,393.489471 182.014664,392.023071 
	C181.285309,377.342133 180.555969,362.661163 179.962814,347.055908 
z"/>
<path fill="#EB1213" opacity="1.000000" stroke="none" 
	d="
M66.172974,327.024078 
	C65.449074,314.010071 64.717125,300.996521 64.003586,287.981964 
	C63.325840,275.620117 62.653481,263.257996 62.004219,250.894638 
	C61.320377,237.872940 60.688980,224.848495 59.993286,211.827454 
	C59.359806,199.970917 58.553616,188.122009 58.082489,176.259460 
	C57.952320,172.981827 56.812447,171.938705 53.630844,171.933640 
	C47.022217,171.923126 40.269798,172.367416 33.836395,171.196625 
	C21.140221,168.886093 18.607117,159.972458 18.102814,151.731827 
	C16.826330,130.873184 21.334694,111.429649 33.931992,94.350006 
	C43.585907,81.261055 56.132301,71.910919 71.287109,66.020714 
	C79.601189,62.789291 88.195427,61.090240 97.933075,61.277084 
	C104.803627,61.236500 110.855797,60.952423 116.907959,60.668343 
	C120.521301,61.889400 124.134644,63.110462 127.805893,64.852249 
	C128.585266,70.290833 129.306747,75.208694 130.028229,80.126556 
	C127.634193,82.076141 125.240150,84.025726 122.002258,85.992828 
	C114.992378,86.004967 108.811035,85.731384 102.665390,86.082626 
	C98.091568,86.344040 93.563988,87.414635 89.015816,88.124840 
	C79.602562,91.295715 70.367691,94.867973 63.109535,101.990211 
	C53.718739,111.205162 47.070225,121.925644 45.998405,135.400848 
	C45.233696,145.014954 45.329998,145.010635 55.334450,145.010422 
	C189.930664,145.007538 324.526855,145.008255 459.123077,145.008102 
	C461.911926,145.008102 464.700806,145.008102 467.396576,145.008102 
	C470.918030,125.028099 454.836548,94.911942 424.862091,88.219543 
	C420.065521,87.137672 415.802307,86.091995 411.537720,86.086418 
	C335.274902,85.986748 259.011963,86.015381 182.749023,86.008484 
	C175.996094,86.007874 169.026596,86.980011 163.390106,81.747993 
	C163.045654,81.428253 162.113770,81.741341 161.455215,81.759987 
	C161.455215,81.759987 161.401672,81.716232 161.341614,81.416779 
	C160.906281,80.740486 160.530991,80.363647 160.155701,79.986809 
	C158.582077,64.442619 156.817200,48.748371 161.893204,33.616802 
	C167.423874,17.129791 179.978806,8.338071 196.678268,4.981444 
	C197.617294,4.792701 198.520874,4.427640 199.995483,4.465685 
	C202.603073,5.193172 204.655319,5.949349 206.709259,5.953896 
	C240.535065,6.028776 274.361115,6.025470 308.186981,5.974051 
	C310.480072,5.970566 312.772369,5.445240 315.065033,5.162613 
	C323.345215,5.251220 330.514404,8.516727 336.852661,13.457802 
	C345.130737,19.911114 351.397644,27.951475 353.137604,38.620247 
	C354.134918,44.735523 354.290405,50.984261 355.076874,57.140717 
	C355.250854,58.502518 356.488312,59.728455 358.037598,61.248810 
	C375.079926,61.638435 391.320526,61.821827 407.561646,61.917648 
	C409.349945,61.928196 411.141235,61.437027 412.931122,61.178558 
	C432.660217,60.355701 449.693695,66.893738 464.934143,79.308205 
	C480.184235,91.730583 489.502716,107.790924 493.484802,126.560089 
	C495.550385,136.295883 495.511230,146.757202 494.660736,156.740631 
	C494.029327,164.152100 486.296295,172.029678 475.654114,172.010101 
	C443.667084,171.951294 411.679932,171.985901 379.692810,171.985962 
	C282.898468,171.986145 186.104126,171.987213 89.309776,171.987930 
	C87.816261,171.987930 86.322739,171.987930 84.026764,171.987930 
	C84.026764,175.568848 83.845154,178.988724 84.062447,182.383057 
	C84.609093,190.922226 85.517509,199.440643 85.951012,207.984116 
	C86.755524,223.839417 87.264801,239.709473 88.011734,255.568008 
	C88.578583,267.603149 89.300156,279.631287 89.994537,291.660126 
	C90.973976,308.627289 92.000275,325.591736 92.990486,342.558258 
	C93.673073,354.253998 94.340996,365.950592 94.992615,377.648071 
	C95.672089,389.845551 95.891068,402.088104 97.112427,414.230377 
	C98.285316,425.890656 97.124031,437.930267 101.915207,449.761230 
	C102.590431,451.621399 103.341850,452.805084 104.093262,453.988800 
	C104.093262,453.988800 104.026237,453.989990 104.063797,454.289673 
	C104.764305,455.385193 105.427238,456.181030 106.090172,456.976868 
	C106.090164,456.976868 106.025917,456.982147 106.032715,457.343079 
	C106.327400,461.562195 107.565498,464.628754 112.085358,464.961426 
	C112.085358,464.961426 112.023506,464.976471 112.057358,465.312164 
	C113.752701,470.909943 117.940918,472.766968 122.860115,473.638885 
	C122.860115,473.638885 122.821381,473.945862 122.989960,474.084778 
	C123.829323,474.472290 124.500114,474.720917 125.170906,474.969543 
	C132.611877,479.211365 140.320496,482.543671 149.812775,482.409973 
	C152.186615,483.192474 153.908447,483.944519 155.630936,483.946045 
	C222.926620,484.005768 290.222412,484.014038 357.518005,483.920349 
	C359.675018,483.917328 361.830475,482.776550 363.986633,482.166138 
	C375.850433,481.952515 386.111725,477.535553 395.781921,469.930786 
	C396.519257,469.369781 396.749298,469.115570 396.979370,468.861389 
	C397.006958,468.544373 397.153595,468.298309 397.982483,468.006531 
	C399.350342,466.897766 400.155060,465.905640 400.959778,464.913483 
	C400.959747,464.913483 400.971985,464.976532 401.303589,464.941406 
	C405.585083,464.215637 406.677490,461.351776 406.975861,457.884003 
	C409.037811,453.121887 411.484344,448.482147 413.049988,443.562103 
	C414.517822,438.949493 415.644806,434.070892 415.893799,429.256165 
	C416.817047,411.404907 417.234222,393.528229 418.002289,375.667999 
	C418.519897,363.631775 419.304474,351.606964 419.975769,339.577393 
	C420.638000,327.709656 421.329224,315.843506 421.968689,303.974548 
	C422.661652,291.112946 423.296661,278.248199 423.980713,265.386078 
	C424.629364,253.189209 425.225922,240.988678 426.003204,228.799820 
	C426.537415,220.422562 427.199615,212.047760 428.069275,203.699432 
	C428.762939,197.040131 434.488678,193.511841 443.193604,193.997818 
	C449.304474,194.338974 454.132812,199.119415 453.960419,205.096649 
	C453.387451,224.964584 452.766785,244.832169 451.974884,264.692322 
	C451.501343,276.569580 450.698608,288.434143 449.999725,300.301819 
	C449.020264,316.933502 447.985046,333.561920 447.001740,350.193390 
	C446.309967,361.893463 445.698792,373.598389 444.976868,385.296539 
	C444.774628,388.573853 444.307404,391.834839 443.728851,395.893005 
	C443.352020,402.495728 443.208099,408.308716 443.064178,414.121704 
	C442.327332,427.200195 442.664154,440.355896 438.156952,453.029999 
	C434.478210,463.374420 429.640198,472.915649 422.340179,481.159149 
	C412.355774,492.433960 400.225861,500.661407 385.992218,505.344666 
	C379.706573,507.412842 372.878174,507.832611 366.295166,508.995148 
	C364.373322,509.334595 362.448181,509.655090 359.802338,509.732666 
	C356.482635,509.006256 353.885620,508.120087 351.287537,508.116852 
	C287.094543,508.036957 222.901443,508.035736 158.708496,508.124146 
	C156.914444,508.126617 155.121964,509.266083 153.328751,509.875366 
	C145.195984,508.273102 137.066711,506.652771 128.929565,505.073090 
	C118.975769,503.140808 110.371376,498.467499 102.778137,491.925018 
	C91.726395,482.402557 81.883263,471.765350 77.100739,457.691101 
	C74.617737,450.384003 72.890617,442.631561 72.168358,434.953644 
	C70.640938,418.716431 69.996010,402.396149 68.992775,386.109711 
	C68.658615,380.685089 68.290222,375.262054 68.018517,369.834229 
	C67.638283,362.238312 67.333931,354.638611 67.121109,346.200317 
	C66.887726,339.248108 66.530350,333.136108 66.172974,327.024078 
M210.964493,61.902660 
	C247.825882,61.907124 284.687317,61.931473 321.548462,61.840401 
	C322.962585,61.836910 324.373962,60.721439 326.661774,59.954292 
	C327.107605,56.547905 327.608795,53.147682 327.989319,49.734016 
	C329.353973,37.492153 318.300171,31.127102 309.802246,31.076323 
	C274.685486,30.866491 239.566193,30.872999 204.449020,31.044954 
	C190.521973,31.113150 180.750137,47.186287 186.578171,59.906380 
	C186.823822,60.442554 187.559662,60.754131 188.811844,61.486450 
	C195.885529,61.606152 202.959229,61.725849 210.964493,61.902660 
z"/>
<path fill="#EB1213" opacity="1.000000" stroke="none" 
	d="
M158.164688,418.845032 
	C158.195465,418.436218 158.226242,418.027374 158.383789,417.409241 
	C158.066666,416.802277 157.622772,416.404602 157.178864,416.006958 
	C157.134644,415.555115 157.090408,415.103241 157.270844,413.942810 
	C157.053467,407.167145 156.611450,401.100006 156.169403,395.032898 
	C155.445358,379.680847 154.734024,364.328217 153.993393,348.976959 
	C153.348892,335.617859 152.680435,322.259918 152.005692,308.902283 
	C151.347961,295.881561 150.693726,282.860565 149.985733,269.842529 
	C149.735291,265.237701 149.330841,260.641235 148.990158,255.131744 
	C149.230835,251.450821 149.662018,248.680130 149.677582,245.907089 
	C149.696045,242.617172 149.356689,239.325226 149.172394,236.034164 
	C151.178619,229.434525 158.280533,227.012772 164.850967,228.089249 
	C170.402237,228.998764 174.770950,235.439270 174.988571,242.385117 
	C175.315201,252.810226 175.555756,263.239532 176.030502,273.658081 
	C176.571228,285.524078 177.344635,297.379303 177.986404,309.240906 
	C178.344101,315.851990 178.639832,322.466431 178.822891,329.860107 
	C179.063736,336.420654 179.445190,342.200439 179.826630,347.980225 
	C180.555969,362.661163 181.285309,377.342133 181.841248,392.832703 
	C182.051437,401.424377 182.435028,409.206421 182.818619,416.988434 
	C178.115067,427.431549 168.839401,429.387726 160.138275,421.152100 
	C159.393570,419.988403 158.779129,419.416718 158.164688,418.845032 
z"/>
<path fill="#EB1213" opacity="1.000000" stroke="none" 
	d="
M334.952454,322.854980 
	C335.297974,311.424042 335.554413,299.989502 336.011597,288.563049 
	C336.579620,274.366425 337.364502,260.178589 337.959076,245.982910 
	C338.399628,235.464417 341.223206,230.857361 348.959320,228.499313 
	C357.011902,226.044769 364.934479,231.719193 364.973877,240.026367 
	C364.988495,243.109512 364.820282,246.193542 364.616364,249.997864 
	C364.123871,252.998611 363.476318,255.272430 363.424591,257.559723 
	C363.201538,267.422577 363.153137,277.289337 363.041138,287.154694 
	C362.702789,299.498810 362.533844,311.850769 361.962250,324.184082 
	C361.622589,331.513245 360.649078,338.813019 359.730408,346.920288 
	C359.350983,353.187897 359.201721,358.661163 359.052429,364.134460 
	C358.709229,376.058929 358.522827,387.990936 357.953400,399.904572 
	C357.688751,405.441925 356.953644,410.994568 355.940399,416.448975 
	C354.632996,423.486786 349.061646,426.866425 341.094757,425.976044 
	C335.287964,425.327087 329.874298,419.809814 330.095642,413.933655 
	C330.498627,403.235748 331.365753,392.555328 332.270386,381.105774 
	C332.928558,376.104584 333.568451,371.873657 333.735931,367.624115 
	C334.033081,360.084106 334.043518,352.532776 334.173920,344.986206 
	C334.126312,342.938202 334.078705,340.890167 334.359955,338.140198 
	C334.776672,332.577179 334.864563,327.716064 334.952454,322.854980 
z"/>
<path fill="#EB1213" opacity="1.000000" stroke="none" 
	d="
M269.831818,400.986755 
	C269.556946,405.900116 269.752411,410.898376 268.885193,415.704865 
	C267.859344,421.390411 262.946533,425.778198 257.423462,425.838989 
	C252.535141,425.892792 247.401932,425.078857 245.160751,419.573883 
	C244.451035,417.830658 244.057999,415.829498 244.056229,413.945862 
	C244.002106,356.359375 244.055740,298.772766 243.947296,241.186493 
	C243.937607,236.042389 245.183197,232.353333 250.068588,229.843765 
	C256.183594,226.702576 261.671204,227.535248 266.276062,232.037140 
	C268.255646,233.972488 269.510529,237.298035 269.833282,240.135468 
	C270.393829,245.063675 269.974426,250.103348 269.735352,255.937241 
	C269.337494,258.425232 269.025085,260.072174 269.024109,261.719299 
	C268.997406,306.184204 268.992096,350.649139 269.037659,395.114014 
	C269.039642,397.071869 269.555389,399.029175 269.831818,400.986755 
z"/>
<path fill="#F50000" opacity="1.000000" stroke="none" 
	d="
M161.668427,82.014351 
	C162.113770,81.741341 163.045654,81.428253 163.390106,81.747993 
	C169.026596,86.980011 175.996094,86.007874 182.749023,86.008484 
	C259.011963,86.015381 335.274902,85.986748 411.537720,86.086418 
	C415.802307,86.091995 420.065521,87.137672 424.661804,87.904541 
	C421.002686,88.079803 417.011139,88.023819 413.019592,88.023560 
	C334.464355,88.018417 255.909088,88.042015 177.353897,87.973717 
	C171.615967,87.968727 165.887665,87.283287 161.668427,82.014351 
z"/>
<path fill="#E93334" opacity="1.000000" stroke="none" 
	d="
M363.522430,482.101501 
	C361.830475,482.776550 359.675018,483.917328 357.518005,483.920349 
	C290.222412,484.014038 222.926620,484.005768 155.630936,483.946045 
	C153.908447,483.944519 152.186615,483.192474 150.261536,482.478058 
	C152.050720,482.110779 154.042847,482.007843 156.034988,482.007935 
	C225.042740,482.011536 294.050476,482.024902 363.522430,482.101501 
z"/>
<path fill="#E92F33" opacity="1.000000" stroke="none" 
	d="
M153.704071,509.938049 
	C155.121964,509.266083 156.914444,508.126617 158.708496,508.124146 
	C222.901443,508.035736 287.094543,508.036957 351.287537,508.116852 
	C353.885620,508.120087 356.482635,509.006256 359.364258,509.678741 
	C352.735321,509.895325 345.822266,509.914215 338.336914,509.810120 
	C337.522186,509.616638 337.298431,509.657410 337.093323,509.809357 
	C317.460358,509.871399 297.827454,509.973755 278.194458,509.986237 
	C247.075562,510.006012 215.956635,509.965698 184.265411,509.819977 
	C183.450134,509.618774 183.222610,509.655975 183.010544,509.800781 
	C173.366821,509.867401 163.723099,509.934021 153.704071,509.938049 
z"/>
<path fill="#F13E42" opacity="1.000000" stroke="none" 
	d="
M314.671875,4.973788 
	C312.772369,5.445240 310.480072,5.970566 308.186981,5.974051 
	C274.361115,6.025470 240.535065,6.028776 206.709259,5.953896 
	C204.655319,5.949349 202.603073,5.193172 200.403229,4.456899 
	C237.180069,4.091950 274.103699,4.050309 311.027344,4.053867 
	C312.111176,4.053972 313.194946,4.530545 314.671875,4.973788 
z"/>
<path fill="#E81F1F" opacity="1.000000" stroke="none" 
	d="
M269.898865,400.522888 
	C269.555389,399.029175 269.039642,397.071869 269.037659,395.114014 
	C268.992096,350.649139 268.997406,306.184204 269.024109,261.719299 
	C269.025085,260.072174 269.337494,258.425232 269.667664,256.403137 
	C269.886719,282.108337 269.965363,308.188568 269.992218,334.268860 
	C270.014771,356.198883 269.977020,378.128998 269.898865,400.522888 
z"/>
<path fill="#F53D3E" opacity="1.000000" stroke="none" 
	d="
M412.493225,61.119289 
	C411.141235,61.437027 409.349945,61.928196 407.561646,61.917648 
	C391.320526,61.821827 375.079926,61.638435 358.467438,61.329353 
	C360.338501,60.787098 362.578308,60.079132 364.824615,60.057816 
	C377.315979,59.939270 389.809570,59.914120 402.300842,60.028198 
	C405.555206,60.057922 408.804016,60.699474 412.493225,61.119289 
z"/>
<path fill="#EC0304" opacity="1.000000" stroke="none" 
	d="
M89.481018,88.068054 
	C93.563988,87.414635 98.091568,86.344040 102.665390,86.082626 
	C108.811035,85.731384 114.992378,86.004967 121.635620,86.008850 
	C117.525688,86.680748 112.957001,87.692764 108.346848,87.943993 
	C102.230247,88.277313 96.081284,88.016685 89.481018,88.068054 
z"/>
<path fill="#EC0304" opacity="1.000000" stroke="none" 
	d="
M363.403290,286.900787 
	C363.153137,277.289337 363.201538,267.422577 363.424591,257.559723 
	C363.476318,255.272430 364.123871,252.998611 364.661835,250.363800 
	C364.472717,262.221649 364.119049,274.434265 363.403290,286.900787 
z"/>
<path fill="#EC0304" opacity="1.000000" stroke="none" 
	d="
M334.105621,345.420654 
	C334.043518,352.532776 334.033081,360.084106 333.735931,367.624115 
	C333.568451,371.873657 332.928558,376.104584 332.337921,380.663300 
	C332.795319,369.273499 333.416321,357.564331 334.105621,345.420654 
z"/>
<path fill="#EC0304" opacity="1.000000" stroke="none" 
	d="
M183.027649,416.628235 
	C182.435028,409.206421 182.051437,401.424377 181.869507,393.297668 
	C182.365875,393.489471 182.906845,394.020905 182.918045,394.563293 
	C183.067551,401.797302 183.142883,409.032867 183.027649,416.628235 
z"/>
<path fill="#EE292D" opacity="1.000000" stroke="none" 
	d="
M116.620605,60.389519 
	C110.855797,60.952423 104.803627,61.236500 98.377045,61.347195 
	C104.112839,60.819435 110.223045,60.465065 116.620605,60.389519 
z"/>
<path fill="#EC0304" opacity="1.000000" stroke="none" 
	d="
M179.894730,347.518066 
	C179.445190,342.200439 179.063736,336.420654 178.884003,330.273956 
	C179.378098,335.623322 179.670456,341.339630 179.894730,347.518066 
z"/>
<path fill="#EC0304" opacity="1.000000" stroke="none" 
	d="
M149.084503,236.448517 
	C149.356689,239.325226 149.696045,242.617172 149.677582,245.907089 
	C149.662018,248.680130 149.230835,251.450821 148.971313,254.678085 
	C148.971527,249.043365 148.984070,242.953110 149.084503,236.448517 
z"/>
<path fill="#EC0304" opacity="1.000000" stroke="none" 
	d="
M156.102234,395.493103 
	C156.611450,401.100006 157.053467,407.167145 157.332993,413.606445 
	C156.792023,407.970215 156.413544,401.961792 156.102234,395.493103 
z"/>
<path fill="#EC0304" opacity="1.000000" stroke="none" 
	d="
M334.591858,323.106079 
	C334.864563,327.716064 334.776672,332.577179 334.424835,337.705078 
	C334.184326,333.100342 334.207794,328.228729 334.591858,323.106079 
z"/>
<path fill="#EC0304" opacity="1.000000" stroke="none" 
	d="
M130.361374,79.912956 
	C129.306747,75.208694 128.585266,70.290833 127.987579,65.167206 
	C132.520828,69.252144 132.825546,74.262291 130.361374,79.912956 
z"/>
<path fill="#EC0304" opacity="1.000000" stroke="none" 
	d="
M66.106491,327.486420 
	C66.530350,333.136108 66.887726,339.248108 67.095322,345.744812 
	C66.643707,340.069244 66.341866,334.009003 66.106491,327.486420 
z"/>
<path fill="#EC0304" opacity="1.000000" stroke="none" 
	d="
M443.423859,413.871582 
	C443.208099,408.308716 443.352020,402.495728 443.659668,396.337860 
	C443.810059,401.869141 443.796814,407.745300 443.423859,413.871582 
z"/>
<path fill="#EC0304" opacity="1.000000" stroke="none" 
	d="
M359.413513,363.884033 
	C359.201721,358.661163 359.350983,353.187897 359.663513,347.367157 
	C359.809357,352.557678 359.791962,358.095642 359.413513,363.884033 
z"/>
<path fill="#EC0304" opacity="1.000000" stroke="none" 
	d="
M122.659622,473.329407 
	C117.940918,472.766968 113.752701,470.909943 112.065025,465.281281 
	C115.512276,467.616425 118.985703,470.318176 122.659622,473.329407 
z"/>
<path fill="#EC0304" opacity="1.000000" stroke="none" 
	d="
M111.945847,464.643890 
	C107.565498,464.628754 106.327400,461.562195 106.039536,457.311584 
	C107.961823,459.388245 109.884079,461.857300 111.945847,464.643890 
z"/>
<path fill="#EC0304" opacity="1.000000" stroke="none" 
	d="
M406.666138,458.031525 
	C406.677490,461.351776 405.585083,464.215637 401.273376,464.930481 
	C402.726501,462.696106 404.541443,460.437592 406.666138,458.031525 
z"/>
<path fill="#EC0304" opacity="1.000000" stroke="none" 
	d="
M104.052063,453.632721 
	C103.341850,452.805084 102.590431,451.621399 101.930344,450.154205 
	C102.684731,451.006012 103.347794,452.141327 104.052063,453.632721 
z"/>
<path fill="#EC0304" opacity="1.000000" stroke="none" 
	d="
M400.658508,465.020935 
	C400.155060,465.905640 399.350342,466.897766 398.192261,467.936829 
	C398.678314,467.031952 399.517761,466.080139 400.658508,465.020935 
z"/>
<path fill="#EC0304" opacity="1.000000" stroke="none" 
	d="
M106.050682,456.646973 
	C105.427238,456.181030 104.764305,455.385193 104.067841,454.256409 
	C104.693268,454.721344 105.352226,455.519196 106.050682,456.646973 
z"/>
<path fill="#EC0304" opacity="1.000000" stroke="none" 
	d="
M158.112823,419.106201 
	C158.779129,419.416718 159.393570,419.988403 159.987793,420.839294 
	C159.332016,420.534851 158.696472,419.951111 158.112823,419.106201 
z"/>
<path fill="#EC0304" opacity="1.000000" stroke="none" 
	d="
M124.969254,474.640503 
	C124.500114,474.720917 123.829323,474.472290 122.836365,474.066101 
	C123.265343,474.042816 124.016472,474.177124 124.969254,474.640503 
z"/>
<path fill="#F50000" opacity="1.000000" stroke="none" 
	d="
M160.138046,80.269455 
	C160.530991,80.363647 160.906281,80.740486 161.361053,81.388184 
	C161.000504,81.290062 160.560440,80.921089 160.138046,80.269455 
z"/>
<path fill="#EC0304" opacity="1.000000" stroke="none" 
	d="
M157.214905,416.332336 
	C157.622772,416.404602 158.066666,416.802277 158.696167,417.441772 
	C158.338165,417.341614 157.794556,416.999664 157.214905,416.332336 
z"/>
<path fill="#EC0304" opacity="1.000000" stroke="none" 
	d="
M396.729797,468.966064 
	C396.749298,469.115570 396.519257,469.369781 396.091125,469.787476 
	C396.088776,469.657532 396.284515,469.364105 396.729797,468.966064 
z"/>
<path fill="#EB1213" opacity="1.000000" stroke="none" 
	d="
M183.231598,509.856812 
	C183.222610,509.655975 183.450134,509.618774 183.794952,509.749146 
	C183.896790,509.809174 183.452652,509.912872 183.231598,509.856812 
z"/>
<path fill="#EB1213" opacity="1.000000" stroke="none" 
	d="
M337.314880,509.861145 
	C337.298431,509.657410 337.522186,509.616638 337.871063,509.743958 
	C337.977509,509.800781 337.536438,509.912903 337.314880,509.861145 
z"/>
<path fill="#000000" opacity="1.000000" stroke="none" 
	d="
M188.067154,61.170341 
	C187.559662,60.754131 186.823822,60.442554 186.578171,59.906380 
	C180.750137,47.186287 190.521973,31.113150 204.449020,31.044954 
	C239.566193,30.872999 274.685486,30.866491 309.802246,31.076323 
	C318.300171,31.127102 329.353973,37.492153 327.989319,49.734016 
	C327.608795,53.147682 327.107605,56.547905 325.789337,59.979828 
	C321.617523,60.053421 318.318115,60.101482 314.551208,60.085274 
	C279.073273,60.064281 244.062897,60.107555 208.587387,60.079365 
	C201.437225,60.395386 194.752182,60.782864 188.067154,61.170341 
z"/>
<path fill="#F04749" opacity="1.000000" stroke="none" 
	d="
M315.018738,60.149548 
	C318.318115,60.101482 321.617523,60.053421 325.351746,60.064743 
	C324.373962,60.721439 322.962585,61.836910 321.548462,61.840401 
	C284.687317,61.931473 247.825882,61.907124 210.492645,61.668701 
	C210.020798,61.434738 210.009842,61.022198 210.477524,61.014984 
	C243.352814,60.998367 275.760468,61.005642 308.167969,60.943924 
	C310.452057,60.939571 312.735168,60.426220 315.018738,60.149548 
z"/>
<path fill="#F53D3E" opacity="1.000000" stroke="none" 
	d="
M210.009842,61.022198 
	C210.009842,61.022198 210.020798,61.434738 210.026855,61.640144 
	C202.959229,61.725849 195.885529,61.606152 188.439499,61.328400 
	C194.752182,60.782864 201.437225,60.395386 208.736694,60.234970 
	C209.560577,60.660645 209.780151,60.847366 210.009842,61.022198 
z"/>
<path fill="#FF2C2C" opacity="1.000000" stroke="none" 
	d="
M210.477524,61.014984 
	C209.780151,60.847366 209.560577,60.660645 209.201813,60.306435 
	C244.062897,60.107555 279.073273,60.064281 314.551208,60.085281 
	C312.735168,60.426220 310.452057,60.939571 308.167969,60.943924 
	C275.760468,61.005642 243.352814,60.998367 210.477524,61.014984 
z"/>
</svg>