<svg version="1.1" id="Layer_1" xmlns="http://www.w3.org/2000/svg" xmlns:xlink="http://www.w3.org/1999/xlink" x="0px" y="0px"
	 width="100%" viewBox="0 0 512 512" enable-background="new 0 0 512 512" xml:space="preserve">
<path fill="#000000" opacity="1.000000" stroke="none" 
	d="
M280.000000,513.000000 
	C186.689316,513.000000 93.878632,513.000000 1.033972,513.000000 
	C1.033972,342.397614 1.033972,171.795242 1.033972,1.096426 
	C171.560699,1.096426 342.121490,1.096426 512.841125,1.096426 
	C512.841125,171.666550 512.841125,342.333252 512.841125,513.000000 
	C435.461884,513.000000 357.980927,513.000000 280.000000,513.000000 
M452.261810,70.234428 
	C451.871246,70.086571 451.480682,69.938705 451.089172,69.910492 
	C451.089172,69.910492 451.208832,69.911385 451.255005,69.219650 
	C450.862122,69.077011 450.469238,68.934372 450.056396,68.951187 
	C450.056396,68.951187 450.215881,68.971100 450.426514,68.314041 
	C449.949463,67.835304 449.472412,67.356560 448.978577,67.005844 
	C448.978577,67.005844 449.106598,67.022667 448.845276,66.462273 
	C448.221619,65.940559 447.597961,65.418839 447.000397,65.024094 
	C447.000397,65.024094 447.127350,64.998055 446.780548,64.388840 
	C446.189484,64.190102 445.598450,63.991360 445.027222,63.960651 
	C445.027222,63.960651 445.195282,63.940758 445.256592,63.243977 
	C444.860626,63.096069 444.464691,62.948162 444.068237,62.932388 
	C444.068237,62.932388 444.200378,62.932842 444.262146,62.244377 
	C443.870941,62.094120 443.479706,61.943863 443.087311,61.915031 
	C443.087311,61.915031 443.208740,61.916180 443.262573,61.221134 
	C442.868286,61.077225 442.474030,60.933315 442.060974,60.948944 
	C442.060974,60.948944 442.220520,60.967670 442.435944,60.309490 
	C441.956207,59.829952 441.476501,59.350410 440.979309,59.004528 
	C440.979309,59.004528 441.112946,59.022034 440.852051,58.460083 
	C440.226959,57.936043 439.601837,57.412003 438.999023,57.018574 
	C438.999023,57.018574 439.129639,56.996284 438.781830,56.393608 
	C438.189758,56.196331 437.597656,55.999054 437.028107,55.966553 
	C437.028107,55.966553 437.192871,55.943996 437.253967,55.251633 
	C436.864349,55.098568 436.474762,54.945503 436.082947,54.919273 
	C436.082947,54.919273 436.209778,54.921432 436.279755,54.231277 
	C435.887238,54.082493 435.494751,53.933712 435.101166,53.899937 
	C435.101166,53.899937 435.216187,53.900986 435.268646,53.206085 
	C434.873383,53.065903 434.478119,52.925716 434.065216,52.944221 
	C434.065216,52.944221 434.223938,52.961788 434.434357,52.303810 
	C433.954529,51.828754 433.474670,51.353695 432.978607,51.005726 
	C432.978607,51.005726 433.105682,51.021973 432.853241,50.457001 
	C432.227539,49.936726 431.601868,49.416451 430.997803,49.023769 
	C430.997803,49.023769 431.125397,49.002167 430.781860,48.391762 
	C430.190979,48.191597 429.600128,47.991436 429.029144,47.957462 
	C429.029144,47.957462 429.195343,47.937538 429.250000,47.240948 
	C428.853912,47.095158 428.457825,46.949368 428.061127,46.938873 
	C428.061127,46.938873 428.196411,46.939472 428.259033,46.250393 
	C427.867096,46.099300 427.475159,45.948204 427.081879,45.920193 
	C427.081879,45.920193 427.204956,45.921490 427.255829,45.226337 
	C426.861237,45.082329 426.466644,44.938316 426.053436,44.956043 
	C426.053436,44.956043 426.215179,44.974606 426.431732,44.322090 
	C425.959076,43.842014 425.486389,43.361938 424.993286,42.994991 
	C424.993286,42.994991 425.106384,43.015457 424.835114,42.468941 
	C424.233124,41.940407 423.631165,41.411869 422.884949,40.454609 
	C422.710754,40.182381 422.463776,40.022881 421.789093,39.372234 
	C419.870575,38.036442 417.952057,36.700653 415.994293,34.801247 
	C415.350677,34.500660 414.707031,34.200073 413.855042,33.469799 
	C413.662292,33.207634 413.412506,33.022522 413.084229,32.934971 
	C413.084229,32.934971 413.084076,32.920078 412.695160,32.372807 
	C411.452789,31.888514 410.210419,31.404217 409.052948,31.029789 
	C409.052948,31.029789 409.162811,30.944897 408.784943,30.320063 
	C402.170746,28.197403 395.556580,26.074743 389.012482,24.061676 
	C389.012482,24.061676 389.122070,23.991592 388.796356,23.469688 
	C388.215271,23.352200 387.634155,23.234711 386.478058,22.983147 
	C386.084961,22.975534 385.691833,22.967922 384.802673,22.354385 
	C383.534607,22.289221 382.266510,22.224054 380.193848,22.029850 
	C379.111755,22.085844 378.029663,22.141838 376.073883,22.082895 
	C372.712433,22.421223 369.350983,22.759550 365.335449,23.000605 
	C364.899323,23.049440 364.463226,23.098274 363.456146,23.218048 
	C362.970886,23.518927 362.485596,23.819807 361.339111,24.012650 
	C360.895935,24.052774 360.452728,24.092897 359.407593,24.054922 
	C358.907623,24.317816 358.407684,24.580711 357.256256,24.937147 
	C356.824677,25.011747 356.393066,25.086348 355.267853,25.343784 
	C351.105560,27.508417 346.943268,29.673052 342.912170,31.932745 
	C342.912170,31.932745 343.007202,31.801565 342.323975,31.505236 
	C341.496338,31.991590 340.668671,32.477943 339.384766,32.995632 
	C339.384766,32.995632 338.944672,33.120079 338.483032,33.137035 
	C338.190308,33.291550 338.009796,33.530762 337.349609,34.193619 
	C333.844360,37.110348 330.339111,40.027073 326.249084,43.224339 
	C318.809723,50.763748 311.370361,58.303158 303.330597,66.149399 
	C296.478577,73.074295 289.626556,79.999199 282.220367,87.183411 
	C281.124451,88.376625 280.028534,89.569839 278.349304,91.116516 
	C262.842529,106.721397 247.335739,122.326286 231.238831,138.223389 
	C173.077545,196.458527 114.916275,254.693665 56.209068,313.309906 
	C53.443382,316.864899 50.677700,320.419891 47.407375,324.304657 
	C46.984829,325.204285 46.562286,326.103882 45.999348,327.388855 
	C45.999348,327.388855 45.955570,327.796661 45.353577,328.177826 
	C43.842522,331.443054 42.331467,334.708282 40.945473,338.044708 
	C40.945473,338.044708 41.016720,337.919678 40.551373,338.095306 
	C40.225693,338.288208 40.090485,338.571869 39.980057,339.715698 
	C37.324123,352.754883 34.408588,365.747833 32.075165,378.844482 
	C28.849127,396.951111 25.756289,415.093445 23.227207,433.306702 
	C22.120258,441.278381 20.969372,449.795746 22.587526,457.486938 
	C26.834332,477.672180 45.124649,493.107758 66.754448,491.889740 
	C72.163956,491.585083 77.561531,490.785736 82.921547,489.940796 
	C96.412766,487.814026 109.882416,485.549469 123.354950,483.305542 
	C133.901596,481.548920 144.402191,479.467102 154.990005,478.017334 
	C172.109161,475.673248 187.469543,470.036285 200.008286,457.479187 
	C291.692963,365.660187 383.512787,273.976166 475.136383,182.096359 
	C479.482178,177.738403 483.092651,172.283295 485.807495,166.733490 
	C492.949432,152.133438 494.082245,136.752060 490.159363,120.930283 
	C487.145905,108.776306 481.665955,98.166100 471.834991,89.446770 
	C471.554779,89.257195 471.274567,89.067619 471.004456,89.001854 
	C471.004456,89.001854 471.128296,88.991730 470.788239,88.388023 
	C470.203156,88.183792 469.618073,87.979561 469.048401,87.936928 
	C469.048401,87.936928 469.209991,87.921486 469.278046,87.229630 
	C468.884521,87.081413 468.490997,86.933197 468.097961,86.899902 
	C468.097961,86.899902 468.212891,86.899376 468.255859,86.213760 
	C467.866302,86.071579 467.476776,85.929390 467.088165,85.906982 
	C467.088165,85.906982 467.207947,85.906006 467.243469,85.212685 
	C466.849854,85.074089 466.456268,84.935493 466.040802,84.964287 
	C466.040802,84.964287 466.208191,84.986122 466.437408,84.328499 
	C465.957214,83.843353 465.477020,83.358208 464.980774,83.005135 
	C464.980774,83.005135 465.112854,83.021210 464.849030,82.460350 
	C464.224335,81.936462 463.599609,81.412575 463.003601,81.019676 
	C463.003601,81.019676 463.134613,80.990982 462.790344,80.387199 
	C462.200287,80.187096 461.610260,79.986992 461.038574,79.951797 
	C461.038574,79.951797 461.203491,79.933372 461.275116,79.242958 
	C460.885376,79.089767 460.495667,78.936577 460.105682,78.898369 
	C460.105682,78.898369 460.220673,78.898552 460.285858,78.215019 
	C459.897461,78.068527 459.509094,77.922028 459.119598,77.879471 
	C459.119598,77.879471 459.223541,77.880531 459.269806,77.190422 
	C458.877594,77.052864 458.485413,76.915306 458.075104,76.933281 
	C458.075104,76.933281 458.230652,76.951317 458.436340,76.293190 
	C457.955872,75.819550 457.475403,75.345909 456.978333,75.005676 
	C456.978333,75.005676 457.111725,75.022316 456.855957,74.457275 
	C456.229156,73.935913 455.602325,73.414543 454.997040,73.024147 
	C454.997040,73.024147 455.128021,73.002663 454.784027,72.393127 
	C454.193909,72.191475 453.603760,71.989822 453.033295,71.954872 
	C453.033295,71.954872 453.200012,71.935150 453.264252,71.240639 
	C452.869446,71.091995 452.474640,70.943352 452.079407,70.921036 
	C452.079407,70.921036 452.205750,70.921417 452.261810,70.234428 
M469.805298,491.970612 
	C479.216034,492.566833 486.355621,488.442047 490.150696,480.172882 
	C493.642487,472.564575 493.595428,464.612488 488.150909,457.289093 
	C483.267975,450.720947 476.498779,448.160675 468.863129,448.079987 
	C446.892548,447.847778 424.917877,448.000092 402.944824,448.002167 
	C354.836884,448.006683 306.728912,448.009064 258.620972,448.018890 
	C249.633911,448.020721 242.513687,451.834076 237.988770,459.467712 
	C233.266632,467.434052 234.255692,475.623718 239.266678,483.186249 
	C243.929230,490.222900 250.815857,492.726257 259.990570,491.925049 
	C309.643860,491.954742 359.297180,492.005096 408.950470,492.004028 
	C428.943390,492.003601 448.936310,491.890472 469.805298,491.970612 
z"/>
<path fill="#374A84" opacity="1.000000" stroke="none" 
	d="
M360.009552,24.133028 
	C360.452728,24.092897 360.895935,24.052774 361.863586,24.033161 
	C362.934418,23.751484 363.480774,23.449295 364.027100,23.147108 
	C364.463226,23.098274 364.899323,23.049440 366.027863,23.191071 
	C370.129364,22.986969 373.538483,22.592403 376.947571,22.197836 
	C378.029663,22.141838 379.111755,22.085844 380.670776,22.307232 
	C382.531372,22.709846 383.915070,22.835079 385.298737,22.960312 
	C385.691833,22.967922 386.084961,22.975534 387.022919,23.161304 
	C388.085876,23.556837 388.603973,23.774212 389.122070,23.991589 
	C389.122070,23.991592 389.012482,24.061676 389.317200,24.142982 
	C396.135559,26.464493 402.649200,28.704697 409.162811,30.944897 
	C409.162811,30.944897 409.052948,31.029789 409.260254,31.190994 
	C410.673035,31.874830 411.878571,32.397457 413.084076,32.920082 
	C413.084076,32.920078 413.084229,32.934971 413.175140,33.033695 
	C413.531830,33.388115 413.797607,33.643810 414.063416,33.899494 
	C414.707031,34.200073 415.350677,34.500660 416.206177,35.394234 
	C418.326691,37.316853 420.235321,38.646488 422.143982,39.976120 
	C422.463776,40.022881 422.710754,40.182381 423.147766,40.897213 
	C423.975861,41.898365 424.541138,42.456909 425.106384,43.015457 
	C425.106384,43.015457 424.993286,42.994991 425.146667,43.205063 
	C425.605072,43.934963 425.910126,44.454784 426.215179,44.974606 
	C426.215179,44.974606 426.053436,44.956043 426.238953,45.075302 
	C426.684631,45.436874 426.944794,45.679188 427.204956,45.921494 
	C427.204956,45.921490 427.081879,45.920193 427.259888,46.056770 
	C427.690765,46.442047 427.943604,46.690754 428.196411,46.939465 
	C428.196411,46.939472 428.061127,46.938873 428.242798,47.067585 
	C428.681427,47.443375 428.938385,47.690453 429.195343,47.937531 
	C429.195343,47.937538 429.029144,47.957462 429.274719,48.040817 
	C430.055328,48.416843 430.590363,48.709507 431.125397,49.002167 
	C431.125397,49.002167 430.997803,49.023769 431.178833,49.192436 
	C431.941833,49.914722 432.523773,50.468342 433.105682,51.021965 
	C433.105682,51.021973 432.978607,51.005726 433.129242,51.209187 
	C433.594543,51.929031 433.909241,52.445412 434.223938,52.961792 
	C434.223938,52.961788 434.065216,52.944221 434.248596,53.064796 
	C434.693390,53.423912 434.954773,53.662453 435.216187,53.900986 
	C435.216187,53.900986 435.101166,53.899937 435.275940,54.041622 
	C435.703705,54.429344 435.956757,54.675381 436.209778,54.921425 
	C436.209778,54.921432 436.082947,54.919273 436.258606,55.057449 
	C436.687134,55.445080 436.940002,55.694542 437.192871,55.944000 
	C437.192871,55.943996 437.028107,55.966553 437.272980,56.048740 
	C438.055115,56.419380 438.592377,56.707829 439.129639,56.996284 
	C439.129639,56.996284 438.999023,57.018574 439.183350,57.184875 
	C439.949463,57.908131 440.531189,58.465084 441.112946,59.022034 
	C441.112946,59.022034 440.979309,59.004528 441.132202,59.205696 
	C441.596924,59.927132 441.908722,60.447399 442.220520,60.967670 
	C442.220520,60.967670 442.060974,60.948944 442.244934,61.070118 
	C442.688873,61.432919 442.948822,61.674545 443.208740,61.916176 
	C443.208740,61.916180 443.087311,61.915031 443.264038,62.052898 
	C443.693970,62.438122 443.947174,62.685474 444.200378,62.932835 
	C444.200378,62.932842 444.068237,62.932388 444.247437,63.064880 
	C444.682831,63.445168 444.939056,63.692959 445.195282,63.940754 
	C445.195282,63.940758 445.027222,63.960651 445.274048,64.040779 
	C446.056396,64.413292 446.591858,64.705673 447.127350,64.998055 
	C447.127350,64.998055 447.000397,65.024094 447.184479,65.188492 
	C447.947906,65.909477 448.527252,66.466064 449.106598,67.022659 
	C449.106598,67.022667 448.978577,67.005844 449.131653,67.208771 
	C449.595123,67.931496 449.905518,68.451302 450.215881,68.971100 
	C450.215881,68.971100 450.056396,68.951187 450.242004,69.070915 
	C450.688049,69.430885 450.948456,69.671127 451.208832,69.911377 
	C451.208832,69.911385 451.089172,69.910492 451.264740,70.049477 
	C451.695465,70.432777 451.950592,70.677101 452.205750,70.921417 
	C452.205750,70.921417 452.079407,70.921036 452.256165,71.057587 
	C452.688629,71.441139 452.944305,71.688148 453.200012,71.935150 
	C453.200012,71.935150 453.033295,71.954872 453.278931,72.037949 
	C454.059052,72.414902 454.593536,72.708778 455.128021,73.002655 
	C455.128021,73.002663 454.997040,73.024147 455.179871,73.190491 
	C455.945709,73.912003 456.528717,74.467155 457.111725,75.022308 
	C457.111725,75.022316 456.978333,75.005676 457.130432,75.205673 
	C457.598572,75.920891 457.914612,76.436096 458.230652,76.951309 
	C458.230652,76.951317 458.075104,76.933281 458.256653,77.055008 
	C458.699951,77.411339 458.961761,77.645935 459.223541,77.880524 
	C459.223541,77.880531 459.119598,77.879471 459.290039,78.027298 
	C459.713898,78.416267 459.967285,78.657410 460.220673,78.898552 
	C460.220673,78.898552 460.105682,78.898369 460.276611,79.043747 
	C460.699554,79.437210 460.951508,79.685295 461.203491,79.933372 
	C461.203491,79.933372 461.038574,79.951797 461.283600,80.036133 
	C462.063965,80.410645 462.599274,80.700813 463.134613,80.990982 
	C463.134613,80.990982 463.003601,81.019676 463.186951,81.183090 
	C463.951141,81.904739 464.532013,82.462975 465.112854,83.021210 
	C465.112854,83.021210 464.980774,83.005135 465.134521,83.207291 
	C465.594910,83.935005 465.901550,84.460564 466.208191,84.986122 
	C466.208191,84.986122 466.040802,84.964287 466.231262,85.076988 
	C466.683777,85.428467 466.945862,85.667244 467.207947,85.906013 
	C467.207947,85.906006 467.088165,85.906982 467.263397,86.044220 
	C467.696716,86.420753 467.954803,86.660057 468.212891,86.899368 
	C468.212891,86.899376 468.097961,86.899902 468.269623,87.044479 
	C468.697540,87.433197 468.953766,87.677330 469.209991,87.921478 
	C469.209991,87.921486 469.048401,87.936928 469.292542,88.024277 
	C470.067200,88.404991 470.597748,88.698357 471.128296,88.991730 
	C471.128296,88.991730 471.004456,89.001854 471.103363,89.052513 
	C471.492676,89.368294 471.783081,89.633408 472.073486,89.898514 
	C481.665955,98.166100 487.145905,108.776306 490.159363,120.930283 
	C494.082245,136.752060 492.949432,152.133438 485.807495,166.733490 
	C483.092651,172.283295 479.482178,177.738403 475.136383,182.096359 
	C383.512787,273.976166 291.692963,365.660187 200.008286,457.479187 
	C187.469543,470.036285 172.109161,475.673248 154.990005,478.017334 
	C144.402191,479.467102 133.901596,481.548920 123.354950,483.305542 
	C109.882416,485.549469 96.412766,487.814026 82.921547,489.940796 
	C77.561531,490.785736 72.163956,491.585083 66.754448,491.889740 
	C45.124649,493.107758 26.834332,477.672180 22.587526,457.486938 
	C20.969372,449.795746 22.120258,441.278381 23.227207,433.306702 
	C25.756289,415.093445 28.849127,396.951111 32.075165,378.844482 
	C34.408588,365.747833 37.324123,352.754883 40.207748,339.159241 
	C40.620033,338.367310 40.813793,338.139587 41.016720,337.919678 
	C41.016720,337.919678 40.945473,338.044708 41.164551,337.807922 
	C42.907612,334.312958 44.431591,331.054810 45.955570,327.796661 
	C45.955570,327.796661 45.999348,327.388855 46.297287,327.081848 
	C47.034153,325.841492 47.473083,324.908203 47.912014,323.974884 
	C50.677700,320.419891 53.443382,316.864899 56.844124,313.062012 
	C59.643700,311.350769 62.111504,310.191559 63.928455,308.379669 
	C111.294403,261.145599 158.614258,213.865250 205.884644,166.535507 
	C215.281815,157.126541 224.444763,147.483643 234.010498,137.757111 
	C248.705307,123.323349 263.129974,109.105675 277.448029,94.781410 
	C278.365082,93.863960 278.456909,92.121643 278.932648,90.763062 
	C280.028534,89.569839 281.124451,88.376625 282.787231,87.071899 
	C284.525482,86.461571 285.987183,86.252693 286.821503,85.417282 
	C292.613129,79.618256 298.274414,73.689041 304.243683,67.616302 
	C311.364929,60.729115 318.276520,54.083042 325.014709,47.265579 
	C326.034607,46.233692 326.247620,44.404308 326.833862,42.943806 
	C330.339111,40.027073 333.844360,37.110348 337.764557,33.977077 
	C338.434570,33.547050 338.689606,33.333561 338.944672,33.120079 
	C338.944672,33.120079 339.384766,32.995632 339.940186,32.895996 
	C341.332825,32.464760 342.170013,32.133163 343.007202,31.801563 
	C343.007202,31.801565 342.912170,31.932745 343.201538,31.785038 
	C347.647736,29.478540 351.804626,27.319748 355.961487,25.160954 
	C356.393066,25.086348 356.824677,25.011747 357.777191,24.925247 
	C358.868622,24.653244 359.439087,24.393139 360.009552,24.133028 
M332.413727,169.108444 
	C323.637146,160.269653 314.838531,151.452576 306.090332,142.585754 
	C297.876556,134.260574 297.900055,134.237488 289.556610,142.837616 
	C289.324615,143.076752 289.088715,143.312103 288.853119,143.547714 
	C222.062927,210.342148 155.223495,277.087616 88.611359,344.059174 
	C84.844643,347.846191 81.913704,353.189545 80.413940,358.338715 
	C78.082268,366.344147 77.287231,374.800507 75.890526,383.074097 
	C73.260841,398.651367 70.615326,414.226318 68.086609,429.820068 
	C67.252357,434.964630 66.757812,440.164276 66.052322,445.781586 
	C68.399651,445.887756 70.403862,446.288727 72.311363,446.015228 
	C86.490242,443.982269 100.648361,441.804932 114.816109,439.693848 
	C127.505791,437.802948 140.278687,436.342041 152.853714,433.871246 
	C158.137817,432.833008 164.240402,430.926331 167.882645,427.310791 
	C237.525696,358.178650 306.841949,288.717438 376.310028,219.408707 
	C379.049866,216.675186 378.660553,215.041595 376.185028,212.601212 
	C361.701935,198.323624 347.322754,183.940659 332.413727,169.108444 
M342.458557,89.958900 
	C338.807098,93.608261 335.207703,97.311943 331.483063,100.885017 
	C329.497070,102.790192 328.691376,104.054924 331.412720,106.358932 
	C336.120239,110.344559 340.387390,114.858810 344.757996,119.232491 
	C365.736511,140.225677 386.749207,161.185684 407.558868,182.345200 
	C409.772552,184.596130 410.816345,184.827621 412.936920,182.676498 
	C422.057587,173.424393 431.558411,164.527115 440.320374,154.951248 
	C443.714447,151.241898 446.552643,146.348404 447.818542,141.516144 
	C450.051910,132.990967 446.398407,125.715057 440.281067,119.611847 
	C424.362366,103.729897 408.478973,87.812508 392.593170,71.897621 
	C383.589111,62.877079 368.509125,63.357899 360.233459,72.109253 
	C354.627930,78.036911 348.727020,83.685226 342.458557,89.958900 
z"/>
<path fill="#384B85" opacity="1.000000" stroke="none" 
	d="
M259.067596,491.817810 
	C250.815857,492.726257 243.929230,490.222900 239.266678,483.186249 
	C234.255692,475.623718 233.266632,467.434052 237.988770,459.467712 
	C242.513687,451.834076 249.633911,448.020721 258.620972,448.018890 
	C306.728912,448.009064 354.836884,448.006683 402.944824,448.002167 
	C424.917877,448.000092 446.892548,447.847778 468.863129,448.079987 
	C476.498779,448.160675 483.267975,450.720947 488.150909,457.289093 
	C493.595428,464.612488 493.642487,472.564575 490.150696,480.172882 
	C486.355621,488.442047 479.216034,492.566833 468.972687,491.805359 
	C465.659912,491.438263 463.179901,491.061798 460.699585,491.060150 
	C396.292908,491.017151 331.886169,491.002808 267.479492,491.036926 
	C264.675385,491.038422 261.871552,491.545990 259.067596,491.817810 
z"/>
<path fill="#495491" opacity="1.000000" stroke="none" 
	d="
M233.715729,137.948608 
	C224.444763,147.483643 215.281815,157.126541 205.884644,166.535507 
	C158.614258,213.865250 111.294403,261.145599 63.928455,308.379669 
	C62.111504,310.191559 59.643700,311.350769 57.117085,312.871460 
	C114.916275,254.693665 173.077545,196.458527 231.849945,138.082550 
	C232.879288,137.944016 233.297501,137.946320 233.715729,137.948608 
z"/>
<path fill="#526091" opacity="1.000000" stroke="none" 
	d="
M259.529083,491.871429 
	C261.871552,491.545990 264.675385,491.038422 267.479492,491.036926 
	C331.886169,491.002808 396.292908,491.017151 460.699585,491.060150 
	C463.179901,491.061798 465.659912,491.438263 468.534668,491.734375 
	C448.936310,491.890472 428.943390,492.003601 408.950470,492.004028 
	C359.297180,492.005096 309.643860,491.954742 259.529083,491.871429 
z"/>
<path fill="#4B5696" opacity="1.000000" stroke="none" 
	d="
M234.010498,137.757126 
	C233.297501,137.946320 232.879288,137.944016 232.145004,137.936432 
	C247.335739,122.326286 262.842529,106.721397 278.640991,90.939789 
	C278.456909,92.121643 278.365082,93.863960 277.448029,94.781410 
	C263.129974,109.105675 248.705307,123.323349 234.010498,137.757126 
z"/>
<path fill="#4A5594" opacity="1.000000" stroke="none" 
	d="
M326.541473,43.084076 
	C326.247620,44.404308 326.034607,46.233692 325.014709,47.265579 
	C318.276520,54.083042 311.364929,60.729115 304.237030,67.292084 
	C303.953125,66.716278 303.942047,66.279419 303.930969,65.842560 
	C311.370361,58.303158 318.809723,50.763748 326.541473,43.084076 
z"/>
<path fill="#4B5695" opacity="1.000000" stroke="none" 
	d="
M303.630798,65.995979 
	C303.942047,66.279419 303.953125,66.716278 303.970856,67.477364 
	C298.274414,73.689041 292.613129,79.618256 286.821503,85.417282 
	C285.987183,86.252693 284.525482,86.461571 283.064331,86.942238 
	C289.626556,79.999199 296.478577,73.074295 303.630798,65.995979 
z"/>
<path fill="#4E5D8C" opacity="1.000000" stroke="none" 
	d="
M408.973877,30.632481 
	C402.649200,28.704697 396.135559,26.464493 389.282166,24.088188 
	C395.556580,26.074743 402.170746,28.197403 408.973877,30.632481 
z"/>
<path fill="#495A8E" opacity="1.000000" stroke="none" 
	d="
M355.614685,25.252369 
	C351.804626,27.319748 347.647736,29.478540 343.135925,31.737511 
	C346.943268,29.673052 351.105560,27.508417 355.614685,25.252369 
z"/>
<path fill="#495A8E" opacity="1.000000" stroke="none" 
	d="
M376.510742,22.140366 
	C373.538483,22.592403 370.129364,22.986969 366.354919,23.239708 
	C369.350983,22.759550 372.712433,22.421223 376.510742,22.140366 
z"/>
<path fill="#44568C" opacity="1.000000" stroke="none" 
	d="
M45.654572,327.987244 
	C44.431591,331.054810 42.907612,334.312958 41.102020,337.772308 
	C42.331467,334.708282 43.842522,331.443054 45.654572,327.987244 
z"/>
<path fill="#4A5A8D" opacity="1.000000" stroke="none" 
	d="
M421.966553,39.674179 
	C420.235321,38.646488 418.326691,37.316853 416.225769,35.676041 
	C417.952057,36.700653 419.870575,38.036442 421.966553,39.674179 
z"/>
<path fill="#4E5D8C" opacity="1.000000" stroke="none" 
	d="
M385.050720,22.657349 
	C383.915070,22.835079 382.531372,22.709846 381.073059,22.371752 
	C382.266510,22.224054 383.534607,22.289221 385.050720,22.657349 
z"/>
<path fill="#44568C" opacity="1.000000" stroke="none" 
	d="
M47.659695,324.139771 
	C47.473083,324.908203 47.034153,325.841492 46.367485,326.889160 
	C46.562286,326.103882 46.984829,325.204285 47.659695,324.139771 
z"/>
<path fill="#4E5D8C" opacity="1.000000" stroke="none" 
	d="
M412.889618,32.646446 
	C411.878571,32.397457 410.673035,31.874830 409.217773,31.136063 
	C410.210419,31.404217 411.452789,31.888514 412.889618,32.646446 
z"/>
<path fill="#495A8E" opacity="1.000000" stroke="none" 
	d="
M359.708557,24.093979 
	C359.439087,24.393139 358.868622,24.653244 358.102905,24.878477 
	C358.407684,24.580711 358.907623,24.317816 359.708557,24.093979 
z"/>
<path fill="#4A5A8D" opacity="1.000000" stroke="none" 
	d="
M424.970764,42.742199 
	C424.541138,42.456909 423.975861,41.898365 423.219910,41.111572 
	C423.631165,41.411869 424.233124,41.940407 424.970764,42.742199 
z"/>
<path fill="#495A8E" opacity="1.000000" stroke="none" 
	d="
M342.665588,31.653399 
	C342.170013,32.133163 341.332825,32.464760 340.168335,32.880329 
	C340.668671,32.477943 341.496338,31.991590 342.665588,31.653399 
z"/>
<path fill="#4A5A8D" opacity="1.000000" stroke="none" 
	d="
M432.979462,50.739479 
	C432.523773,50.468342 431.941833,49.914722 431.168030,49.128639 
	C431.601868,49.416451 432.227539,49.936726 432.979462,50.739479 
z"/>
<path fill="#495A8E" opacity="1.000000" stroke="none" 
	d="
M363.741638,23.182577 
	C363.480774,23.449295 362.934418,23.751484 362.194214,24.087179 
	C362.485596,23.819807 362.970886,23.518927 363.741638,23.182577 
z"/>
<path fill="#4A5A8D" opacity="1.000000" stroke="none" 
	d="
M456.983826,74.739792 
	C456.528717,74.467155 455.945709,73.912003 455.169128,73.125008 
	C455.602325,73.414543 456.229156,73.935913 456.983826,74.739792 
z"/>
<path fill="#4A5A8D" opacity="1.000000" stroke="none" 
	d="
M448.975952,66.742462 
	C448.527252,66.466064 447.947906,65.909477 447.171448,65.125000 
	C447.597961,65.418839 448.221619,65.940559 448.975952,66.742462 
z"/>
<path fill="#4A5A8D" opacity="1.000000" stroke="none" 
	d="
M440.982483,58.741058 
	C440.531189,58.465084 439.949463,57.908131 439.172211,57.119572 
	C439.601837,57.412003 440.226959,57.936043 440.982483,58.741058 
z"/>
<path fill="#4A5A8D" opacity="1.000000" stroke="none" 
	d="
M464.980957,82.740784 
	C464.532013,82.462975 463.951141,81.904739 463.172607,81.117599 
	C463.599609,81.412575 464.224335,81.936462 464.980957,82.740784 
z"/>
<path fill="#4A5A8D" opacity="1.000000" stroke="none" 
	d="
M454.956024,72.697891 
	C454.593536,72.708778 454.059052,72.414902 453.269104,71.954597 
	C453.603760,71.989822 454.193909,72.191475 454.956024,72.697891 
z"/>
<path fill="#4A5A8D" opacity="1.000000" stroke="none" 
	d="
M426.323456,44.648346 
	C425.910126,44.454784 425.605072,43.934963 425.156860,43.148499 
	C425.486389,43.361938 425.959076,43.842014 426.323456,44.648346 
z"/>
<path fill="#4A5A8D" opacity="1.000000" stroke="none" 
	d="
M458.333496,76.622246 
	C457.914612,76.436096 457.598572,75.920891 457.138733,75.138977 
	C457.475403,75.345909 457.955872,75.819550 458.333496,76.622246 
z"/>
<path fill="#4A5A8D" opacity="1.000000" stroke="none" 
	d="
M462.962463,80.689087 
	C462.599274,80.700813 462.063965,80.410645 461.274414,79.953674 
	C461.610260,79.986992 462.200287,80.187096 462.962463,80.689087 
z"/>
<path fill="#4A5A8D" opacity="1.000000" stroke="none" 
	d="
M466.322815,84.657310 
	C465.901550,84.460564 465.594910,83.935005 465.142548,83.141251 
	C465.477020,83.358208 465.957214,83.843353 466.322815,84.657310 
z"/>
<path fill="#4A5A8D" opacity="1.000000" stroke="none" 
	d="
M470.958252,88.689873 
	C470.597748,88.698357 470.067200,88.404991 469.284821,87.943474 
	C469.618073,87.979561 470.203156,88.183792 470.958252,88.689873 
z"/>
<path fill="#4A5A8D" opacity="1.000000" stroke="none" 
	d="
M471.954224,89.672646 
	C471.783081,89.633408 471.492676,89.368294 471.098328,88.990601 
	C471.274567,89.067619 471.554779,89.257195 471.954224,89.672646 
z"/>
<path fill="#495A8E" opacity="1.000000" stroke="none" 
	d="
M338.713867,33.128555 
	C338.689606,33.333561 338.434570,33.547050 338.060547,33.807610 
	C338.009796,33.530762 338.190308,33.291550 338.713867,33.128555 
z"/>
<path fill="#4E5D8C" opacity="1.000000" stroke="none" 
	d="
M388.959229,23.730637 
	C388.603973,23.774212 388.085876,23.556837 387.310425,23.228344 
	C387.634155,23.234711 388.215271,23.352200 388.959229,23.730637 
z"/>
<path fill="#4A5A8D" opacity="1.000000" stroke="none" 
	d="
M450.321198,68.642570 
	C449.905518,68.451302 449.595123,67.931496 449.140076,67.144760 
	C449.472412,67.356560 449.949463,67.835304 450.321198,68.642570 
z"/>
<path fill="#4E5D8C" opacity="1.000000" stroke="none" 
	d="
M413.959229,33.684650 
	C413.797607,33.643810 413.531830,33.388115 413.185852,33.023441 
	C413.412506,33.022522 413.662292,33.207634 413.959229,33.684650 
z"/>
<path fill="#4A5A8D" opacity="1.000000" stroke="none" 
	d="
M446.953949,64.693451 
	C446.591858,64.705673 446.056396,64.413292 445.264160,63.956764 
	C445.598450,63.991360 446.189484,64.190102 446.953949,64.693451 
z"/>
<path fill="#4A5A8D" opacity="1.000000" stroke="none" 
	d="
M430.953613,48.696968 
	C430.590363,48.709507 430.055328,48.416843 429.264771,47.957726 
	C429.600128,47.991436 430.190979,48.191597 430.953613,48.696968 
z"/>
<path fill="#4A5A8D" opacity="1.000000" stroke="none" 
	d="
M434.329163,52.632801 
	C433.909241,52.445412 433.594543,51.929031 433.137329,51.145641 
	C433.474670,51.353695 433.954529,51.828754 434.329163,52.632801 
z"/>
<path fill="#4A5A8D" opacity="1.000000" stroke="none" 
	d="
M438.955750,56.694946 
	C438.592377,56.707829 438.055115,56.419380 437.261719,55.966354 
	C437.597656,55.999054 438.189758,56.196331 438.955750,56.694946 
z"/>
<path fill="#4A5A8D" opacity="1.000000" stroke="none" 
	d="
M442.328247,60.638580 
	C441.908722,60.447399 441.596924,59.927132 441.140930,59.138866 
	C441.476501,59.350410 441.956207,59.829952 442.328247,60.638580 
z"/>
<path fill="#4A5A8D" opacity="1.000000" stroke="none" 
	d="
M468.234375,86.556564 
	C467.954803,86.660057 467.696716,86.420753 467.262939,85.984329 
	C467.476776,85.929390 467.866302,86.071579 468.234375,86.556564 
z"/>
<path fill="#4A5A8D" opacity="1.000000" stroke="none" 
	d="
M427.230408,45.573917 
	C426.944794,45.679188 426.684631,45.436874 426.248260,44.994438 
	C426.466644,44.938316 426.861237,45.082329 427.230408,45.573917 
z"/>
<path fill="#4A5A8D" opacity="1.000000" stroke="none" 
	d="
M428.227722,46.594925 
	C427.943604,46.690754 427.690765,46.442047 427.260559,45.995224 
	C427.475159,45.948204 427.867096,46.099300 428.227722,46.594925 
z"/>
<path fill="#44568C" opacity="1.000000" stroke="none" 
	d="
M40.784046,338.007507 
	C40.813793,338.139587 40.620033,338.367310 40.290596,338.774567 
	C40.090485,338.571869 40.225693,338.288208 40.784046,338.007507 
z"/>
<path fill="#4A5A8D" opacity="1.000000" stroke="none" 
	d="
M429.222656,47.589237 
	C428.938385,47.690453 428.681427,47.443375 428.243103,46.999939 
	C428.457825,46.949368 428.853912,47.095158 429.222656,47.589237 
z"/>
<path fill="#4A5A8D" opacity="1.000000" stroke="none" 
	d="
M435.242432,53.553535 
	C434.954773,53.662453 434.693390,53.423912 434.257416,52.985451 
	C434.478119,52.925716 434.873383,53.065903 435.242432,53.553535 
z"/>
<path fill="#4A5A8D" opacity="1.000000" stroke="none" 
	d="
M436.244781,54.576347 
	C435.956757,54.675381 435.703705,54.429344 435.276459,53.984119 
	C435.494751,53.933712 435.887238,54.082493 436.244781,54.576347 
z"/>
<path fill="#4A5A8D" opacity="1.000000" stroke="none" 
	d="
M437.223419,55.597816 
	C436.940002,55.694542 436.687134,55.445080 436.259705,54.994030 
	C436.474762,54.945503 436.864349,55.098568 437.223419,55.597816 
z"/>
<path fill="#4A5A8D" opacity="1.000000" stroke="none" 
	d="
M469.244019,87.575546 
	C468.953766,87.677330 468.697540,87.433197 468.269379,86.987015 
	C468.490997,86.933197 468.884521,87.081413 469.244019,87.575546 
z"/>
<path fill="#4A5A8D" opacity="1.000000" stroke="none" 
	d="
M451.231934,69.565506 
	C450.948456,69.671127 450.688049,69.430885 450.252014,68.991180 
	C450.469238,68.934372 450.862122,69.077011 451.231934,69.565506 
z"/>
<path fill="#4A5A8D" opacity="1.000000" stroke="none" 
	d="
M467.225708,85.559357 
	C466.945862,85.667244 466.683777,85.428467 466.242188,84.993294 
	C466.456268,84.935493 466.849854,85.074089 467.225708,85.559357 
z"/>
<path fill="#4A5A8D" opacity="1.000000" stroke="none" 
	d="
M443.235657,61.568649 
	C442.948822,61.674545 442.688873,61.432919 442.254333,60.990349 
	C442.474030,60.933315 442.868286,61.077225 443.235657,61.568649 
z"/>
<path fill="#4A5A8D" opacity="1.000000" stroke="none" 
	d="
M444.231262,62.588600 
	C443.947174,62.685474 443.693970,62.438122 443.264648,61.992188 
	C443.479706,61.943863 443.870941,62.094120 444.231262,62.588600 
z"/>
<path fill="#4A5A8D" opacity="1.000000" stroke="none" 
	d="
M445.225952,63.592361 
	C444.939056,63.692959 444.682831,63.445168 444.247681,62.998817 
	C444.464691,62.948162 444.860626,63.096069 445.225952,63.592361 
z"/>
<path fill="#4A5A8D" opacity="1.000000" stroke="none" 
	d="
M461.239319,79.588165 
	C460.951508,79.685295 460.699554,79.437210 460.276733,78.986252 
	C460.495667,78.936577 460.885376,79.089767 461.239319,79.588165 
z"/>
<path fill="#4A5A8D" opacity="1.000000" stroke="none" 
	d="
M460.253265,78.556786 
	C459.967285,78.657410 459.713898,78.416267 459.290588,77.975327 
	C459.509094,77.922028 459.897461,78.068527 460.253265,78.556786 
z"/>
<path fill="#4A5A8D" opacity="1.000000" stroke="none" 
	d="
M459.246674,77.535477 
	C458.961761,77.645935 458.699951,77.411339 458.265686,76.977242 
	C458.485413,76.915306 458.877594,77.052864 459.246674,77.535477 
z"/>
<path fill="#4A5A8D" opacity="1.000000" stroke="none" 
	d="
M453.232117,71.587898 
	C452.944305,71.688148 452.688629,71.441139 452.256378,70.994415 
	C452.474640,70.943352 452.869446,71.091995 453.232117,71.587898 
z"/>
<path fill="#4A5A8D" opacity="1.000000" stroke="none" 
	d="
M452.233765,70.577927 
	C451.950592,70.677101 451.695465,70.432777 451.265198,69.989655 
	C451.480682,69.938705 451.871246,70.086571 452.233765,70.577927 
z"/>
<path fill="#000000" opacity="1.000000" stroke="none" 
	d="
M332.661133,169.350845 
	C347.322754,183.940659 361.701935,198.323624 376.185028,212.601212 
	C378.660553,215.041595 379.049866,216.675186 376.310028,219.408707 
	C306.841949,288.717438 237.525696,358.178650 167.882645,427.310791 
	C164.240402,430.926331 158.137817,432.833008 152.853714,433.871246 
	C140.278687,436.342041 127.505791,437.802948 114.816109,439.693848 
	C100.648361,441.804932 86.490242,443.982269 72.311363,446.015228 
	C70.403862,446.288727 68.399651,445.887756 66.052322,445.781586 
	C66.757812,440.164276 67.252357,434.964630 68.086609,429.820068 
	C70.615326,414.226318 73.260841,398.651367 75.890526,383.074097 
	C77.287231,374.800507 78.082268,366.344147 80.413940,358.338715 
	C81.913704,353.189545 84.844643,347.846191 88.611359,344.059174 
	C155.223495,277.087616 222.062927,210.342148 288.853119,143.547714 
	C289.088715,143.312103 289.324615,143.076752 289.556610,142.837616 
	C297.900055,134.237488 297.876556,134.260574 306.090332,142.585754 
	C314.838531,151.452576 323.637146,160.269653 332.661133,169.350845 
z"/>
<path fill="#000000" opacity="1.000000" stroke="none" 
	d="
M342.708374,89.708694 
	C348.727020,83.685226 354.627930,78.036911 360.233459,72.109253 
	C368.509125,63.357899 383.589111,62.877079 392.593170,71.897621 
	C408.478973,87.812508 424.362366,103.729897 440.281067,119.611847 
	C446.398407,125.715057 450.051910,132.990967 447.818542,141.516144 
	C446.552643,146.348404 443.714447,151.241898 440.320374,154.951248 
	C431.558411,164.527115 422.057587,173.424393 412.936920,182.676498 
	C410.816345,184.827621 409.772552,184.596130 407.558868,182.345200 
	C386.749207,161.185684 365.736511,140.225677 344.757996,119.232491 
	C340.387390,114.858810 336.120239,110.344559 331.412720,106.358932 
	C328.691376,104.054924 329.497070,102.790192 331.483063,100.885017 
	C335.207703,97.311943 338.807098,93.608261 342.708374,89.708694 
z"/>
</svg>