<?xml version="1.0" encoding="UTF-8"?>
<svg version="1.1" xmlns="http://www.w3.org/2000/svg" width="512" height="512">
<path d="M0 0 C8.41941834 7.99844742 8.41941834 7.99844742 8.61352539 13.72314453 C8.61336688 15.15137697 8.60770735 16.57961542 8.59765625 18.0078125 C8.59553383 19.13556595 8.59553383 19.13556595 8.59336853 20.28610229 C8.58776465 22.6907751 8.57521157 25.09535527 8.5625 27.5 C8.5574855 29.12890491 8.5529225 30.75781127 8.54882812 32.38671875 C8.53779397 36.38284827 8.52052679 40.37890842 8.5 44.375 C9.45577942 44.36611755 10.41155884 44.35723511 11.39630127 44.3480835 C20.40126859 44.26701556 29.40616192 44.2070433 38.41141129 44.16775131 C43.04119316 44.14687174 47.67068057 44.11854751 52.30029297 44.07324219 C56.76771694 44.02979737 61.23485759 44.00586568 65.7024765 43.99549103 C67.40736095 43.98809717 69.1122298 43.97365868 70.81699371 43.95207977 C73.20418364 43.92306306 75.5902013 43.91904314 77.97753906 43.92089844 C79.03597771 43.89932678 79.03597771 43.89932678 80.11579895 43.87731934 C83.31076932 43.90420693 85.12823364 44.08516723 87.68101883 46.07534409 C89.87652449 48.85102294 90.00224192 50.14886586 90.00793457 53.6505127 C90.02485352 55.25298607 90.02485352 55.25298607 90.04211426 56.88783264 C90.02996887 58.63815041 90.02996887 58.63815041 90.01757812 60.42382812 C90.02809204 62.27312172 90.02809204 62.27312172 90.03881836 64.15977478 C90.05340828 67.53814281 90.04998779 70.91553108 90.03730202 74.29384422 C90.02717079 77.83006477 90.03656802 81.36624362 90.04284668 84.90246582 C90.05012277 90.84081535 90.04053656 96.77896585 90.02148438 102.71728516 C89.99971548 109.58161319 90.00676689 116.44546599 90.02879 123.30978251 C90.04694526 129.20461039 90.04950178 135.09929525 90.03903532 140.99414206 C90.03280099 144.51432681 90.03196282 148.03428823 90.04518127 151.55445862 C90.05888736 155.47855078 90.03988786 159.40211116 90.01757812 163.32617188 C90.02567505 164.49305038 90.03377197 165.65992889 90.04211426 166.86216736 C90.03083496 167.93048294 90.01955566 168.99879852 90.00793457 170.0994873 C90.00567242 171.49097614 90.00567242 171.49097614 90.00336456 172.91057587 C89.33810857 176.16760478 88.12114849 177.38494112 85.5 179.375 C81.875 179.3125 81.875 179.3125 78.5 178.375 C76.33825682 175.13238522 76.2515449 174.2731254 76.25949097 170.53450012 C76.25536697 169.03900887 76.25536697 169.03900887 76.25115967 167.51330566 C76.25835022 166.42070435 76.26554077 165.32810303 76.27294922 164.20239258 C76.27265717 163.05103317 76.27236511 161.89967377 76.27206421 160.71342468 C76.2734602 156.89871751 76.28903429 153.08420441 76.3046875 149.26953125 C76.30841667 146.62823086 76.31126409 143.98692909 76.31326294 141.34562683 C76.31948107 135.09831653 76.33589636 128.85107616 76.35596192 122.60379666 C76.38050259 114.79382057 76.39145589 106.98383314 76.40234375 99.17382812 C76.42182772 85.24083093 76.46189124 71.30798635 76.5 57.375 C54.06 57.375 31.62 57.375 8.5 57.375 C8.5 178.155 8.5 298.935 8.5 423.375 C30.94 423.375 53.38 423.375 76.5 423.375 C76.46519531 414.75890625 76.43039062 406.1428125 76.39453125 397.265625 C76.37725897 391.12219308 76.36187928 384.97877935 76.3492384 378.83533859 C76.33260068 370.87226765 76.31146326 362.90929077 76.27368164 354.94628906 C76.24378725 348.64262825 76.22442692 342.33903833 76.21773452 336.0353086 C76.21382223 332.69721674 76.20305233 329.3594883 76.18280983 326.02143097 C76.16111024 322.29573923 76.15803001 318.57047107 76.15942383 314.84472656 C76.14324509 313.18316528 76.14324509 313.18316528 76.1267395 311.48803711 C76.13086349 310.47283997 76.13498749 309.45764282 76.13923645 308.41168213 C76.13647107 307.53044804 76.13370569 306.64921394 76.13085651 305.74127579 C76.58522888 302.82866764 77.43390948 301.46100452 79.5 299.375 C85.44831451 298.63146069 85.44831451 298.63146069 88.19452 300.57302189 C89.96753139 303.02034219 89.87998679 304.63413659 89.88768005 307.64414978 C89.902537 309.28242485 89.902537 309.28242485 89.91769409 310.95379639 C89.91319244 312.15232239 89.9086908 313.35084839 89.90405273 314.58569336 C89.91434761 316.47865898 89.91434761 316.47865898 89.92485046 318.40986633 C89.94281521 321.87273018 89.94160731 325.33534109 89.93590808 328.79823756 C89.93282079 331.68846643 89.93890357 334.5786464 89.94494683 337.46886832 C89.95900149 344.28714813 89.95742317 351.10530269 89.94604492 357.92358398 C89.93456403 364.95885193 89.9486364 371.99373865 89.9754414 379.02895635 C89.99759023 385.06812252 90.00423761 391.10716895 89.99836498 397.14637285 C89.99499203 400.75377659 89.99743248 404.36093598 90.01461601 407.96830559 C90.03293986 411.99075374 90.01890669 416.01245909 90.00170898 420.03491211 C90.01137695 421.23141388 90.02104492 422.42791565 90.03100586 423.66067505 C90.02117172 424.75567825 90.01133759 425.85068146 90.00120544 426.97886658 C90.00099616 427.92994765 90.00078688 428.88102873 90.00057125 429.86093044 C89.34586092 433.14914828 88.12022704 434.34169383 85.5 436.375 C82.84981499 436.74947079 80.6217251 436.88299176 77.97753906 436.82910156 C77.22593002 436.82968567 76.47432098 436.83026978 75.69993591 436.83087158 C73.22135865 436.82808998 70.74399155 436.79699617 68.265625 436.765625 C66.54498959 436.75816284 64.82434568 436.75246979 63.10369873 436.74847412 C58.57924861 436.73321575 54.05531372 436.69393242 49.53106689 436.6496582 C44.91270924 436.60870975 40.29426819 436.59046403 35.67578125 436.5703125 C26.61696137 436.52743818 17.55852356 436.45918454 8.5 436.375 C8.52094727 437.3129541 8.54189453 438.2509082 8.56347656 439.21728516 C8.63189373 442.71738625 8.68191586 446.21677066 8.71972656 449.71728516 C8.73976791 451.22846736 8.76700905 452.73957272 8.80175781 454.25048828 C8.85061109 456.43020643 8.87304224 458.60889431 8.890625 460.7890625 C8.91157227 462.0982666 8.93251953 463.4074707 8.95410156 464.75634766 C8.28152024 470.11602526 5.59058169 473.88786931 1.375 477.1875 C-4.27396489 481.48562546 -9.57685402 480.74057307 -16.5 480.375 C-21.0884615 479.7422111 -25.57760286 478.78550037 -30.09741211 477.77978516 C-31.40374151 477.49930357 -32.71032479 477.22000234 -34.01713562 476.94177246 C-37.53853018 476.18858618 -41.0561733 475.41908725 -44.57334208 474.64644289 C-48.31597544 473.82730878 -52.06192666 473.02362305 -55.80751038 472.21810913 C-62.93699051 470.68245731 -70.06343979 469.13319321 -77.18888527 467.57894075 C-85.11867683 465.84991135 -93.05169028 464.13591636 -100.98505282 462.42335939 C-110.97179079 460.26746564 -120.95787024 458.10869438 -130.94003296 455.93170166 C-132.0502759 455.68960555 -132.0502759 455.68960555 -133.18294799 455.44261861 C-133.9178493 455.28236345 -134.6527506 455.12210829 -135.40992165 454.95699692 C-136.87728452 454.63701917 -138.34464788 454.31704362 -139.81201172 453.99707031 C-140.52917697 453.84065457 -141.24634222 453.68423882 -141.98523974 453.52308321 C-151.66601092 451.41276103 -161.35442931 449.34309455 -171.05126953 447.30761719 C-174.2534978 446.63053416 -177.45550446 445.95241509 -180.65741158 445.27381516 C-182.60959597 444.86296047 -184.56274784 444.45667122 -186.51692009 444.05537796 C-189.14216049 443.51623882 -191.76372187 442.96179474 -194.38500977 442.40380859 C-195.13115854 442.25538387 -195.87730732 442.10695915 -196.64606667 441.95403671 C-203.66637328 440.42865195 -208.45597804 437.29660358 -212.5 431.375 C-214.40113472 427.44771407 -214.75113485 424.29924318 -214.75447559 419.95403481 C-214.76030779 418.64908991 -214.76613998 417.344145 -214.77214891 415.99965632 C-214.76851578 414.55320668 -214.76469141 413.10675752 -214.76069641 411.66030884 C-214.76371672 410.12242999 -214.76760559 408.58455263 -214.77228898 407.04667795 C-214.78259339 402.81867613 -214.78038095 398.59075888 -214.77610838 394.36275005 C-214.77364558 389.80368822 -214.78264979 385.24464699 -214.79014587 380.68559265 C-214.80290744 371.75303275 -214.80468474 362.82050289 -214.80234561 353.88793541 C-214.80056388 346.62838516 -214.80230899 339.36884405 -214.80657005 332.10929489 C-214.80716524 331.07678366 -214.80776043 330.04427243 -214.80837366 328.98047297 C-214.80958539 326.88303976 -214.81079952 324.78560655 -214.81201603 322.68817334 C-214.82289724 303.00989773 -214.82072636 283.33163925 -214.81463119 263.65336268 C-214.80946182 245.64587847 -214.82071697 227.63844835 -214.83972941 209.63097484 C-214.85909537 191.14716479 -214.86736597 172.66338034 -214.86360615 154.17956007 C-214.86169218 143.79980971 -214.86420071 133.4201054 -214.87832069 123.04036331 C-214.89021966 114.20375492 -214.89165609 105.36722091 -214.87953053 96.53061153 C-214.87363133 92.02141789 -214.87257109 87.5123604 -214.88453293 83.00317574 C-214.89535619 78.87524482 -214.89233093 74.74756431 -214.87827124 70.61964528 C-214.87561448 69.12640968 -214.87802151 67.63315468 -214.88600711 66.13993807 C-214.93535954 56.223163 -214.7274934 48.80899321 -207.5 41.375 C-201.88106081 37.91303858 -195.69888094 36.89224937 -189.32739258 35.546875 C-188.10145889 35.28125259 -186.87552521 35.01563019 -185.61244202 34.74195862 C-182.24738231 34.01305198 -178.88024187 33.29421486 -175.51264787 32.57712173 C-171.93177645 31.81276826 -168.35293297 31.03903117 -164.77384949 30.26635742 C-157.94070857 28.7926483 -151.10581687 27.32723207 -144.27025288 25.86480808 C-135.95273312 24.08491744 -127.63747689 22.29454486 -119.32226562 20.50390625 C-110.47695575 18.59917345 -101.63120123 16.69663271 -92.7829895 14.80541992 C-89.89645965 14.18819885 -87.0099746 13.57076877 -84.12353516 12.953125 C-83.06712086 12.72708808 -83.06712086 12.72708808 -81.98936486 12.49648476 C-72.0550578 10.36928251 -62.13284826 8.19311741 -52.21630859 5.984375 C-48.72227602 5.21130224 -45.22802058 4.4392459 -41.73367882 3.66757202 C-39.5807799 3.18902418 -37.42894598 2.70565394 -35.27832985 2.21694946 C-8.38647985 -3.89372279 -8.38647985 -3.89372279 0 0 Z M-27.34033203 13.97021484 C-28.62481735 14.24675903 -29.90930267 14.52330322 -31.23271179 14.80822754 C-34.75523622 15.56682347 -38.275759 16.33435748 -41.79598093 17.10355711 C-45.53076569 17.91807977 -49.26730101 18.72449478 -53.00363159 19.53189087 C-59.31791133 20.89753496 -65.63102921 22.2684403 -71.94335938 23.64306641 C-78.32892243 25.03363476 -84.71522379 26.4207244 -91.10253906 27.80322266 C-91.87872314 27.97122556 -92.65490721 28.13922847 -93.45461202 28.31232238 C-95.0168699 28.65044148 -96.5791306 28.98854759 -98.14139414 29.32664061 C-108.10527035 31.48308033 -118.06855946 33.64207978 -128.02813721 35.81829834 C-128.76679024 35.97969575 -129.50544327 36.14109315 -130.26647973 36.30738139 C-133.1933339 36.94701609 -136.12016442 37.5867584 -139.04690409 38.22691679 C-147.53165609 40.08236333 -156.01999359 41.91823946 -164.51658058 43.7189312 C-168.80691686 44.62962563 -173.09475041 45.55171683 -177.3821373 46.47618484 C-179.30682107 46.8880355 -181.23270412 47.29432703 -183.15982437 47.69462204 C-185.73988696 48.23092102 -188.31516045 48.78606527 -190.89013672 49.34619141 C-191.63049038 49.49461613 -192.37084404 49.64304085 -193.13363266 49.79596329 C-196.00308017 50.43725887 -198.07217198 50.94824273 -200.18423319 53.05501795 C-201.89412813 56.06993331 -201.87824215 58.15737202 -201.88311005 61.61882782 C-201.89216669 62.90969819 -201.90122333 64.20056855 -201.91055441 65.5305562 C-201.90544989 66.96629467 -201.90005778 68.40203213 -201.89440918 69.83776855 C-201.89929635 71.36042593 -201.90548534 72.88307959 -201.91286707 74.40572691 C-201.92931165 78.59620329 -201.92693954 82.78649209 -201.9214921 86.97698951 C-201.91882749 91.49376231 -201.93334288 96.01048448 -201.94558716 100.52723694 C-201.96666661 109.37805416 -201.9711806 118.22880592 -201.96939927 127.07964528 C-201.96809305 134.27107676 -201.97188863 141.46248777 -201.97932434 148.65391541 C-201.98142347 150.7232213 -201.98352107 152.7925272 -201.98561716 154.8618331 C-201.98666069 155.8916874 -201.98770422 156.92154171 -201.98877937 157.98260373 C-202.00769147 177.47003218 -202.0066284 196.957423 -201.99981004 216.44485682 C-201.99423233 234.28633903 -202.01506802 252.12767774 -202.04817051 269.9691264 C-202.08187283 288.27548563 -202.09708026 306.58177605 -202.09245348 324.8881669 C-202.09020548 335.1711794 -202.09550027 345.45405923 -202.12034607 355.73704529 C-202.14131445 364.48999598 -202.1449956 373.24274124 -202.12604648 381.99570024 C-202.11686143 386.46409916 -202.11582977 390.93211459 -202.13640213 395.40048409 C-202.1550123 399.48774375 -202.15072196 403.57430316 -202.12785631 407.66153532 C-202.1236452 409.14330849 -202.12795428 410.62513432 -202.14145225 412.10685199 C-202.15850498 414.11489512 -202.14198304 416.12314062 -202.12361908 418.13117218 C-202.12389146 419.24841942 -202.12416385 420.36566667 -202.12444448 421.51676989 C-201.72936764 424.57461014 -201.72936764 424.57461014 -199.1287958 426.70676595 C-196.31089046 428.49500893 -194.12252743 429.24566397 -190.8664093 429.93437195 C-189.74225113 430.17928879 -188.61809296 430.42420563 -187.45986938 430.67654419 C-186.23472626 430.92854584 -185.00958313 431.18054749 -183.74731445 431.44018555 C-182.43517211 431.72053183 -181.12329359 432.0021153 -179.81166077 432.28483582 C-176.24571364 433.04980807 -172.67632248 433.79742078 -169.10608315 434.54206443 C-165.32524928 435.3337906 -161.54786212 436.14163888 -157.77006531 436.94770813 C-150.56942168 438.48158561 -143.36584713 440.00120715 -136.16109961 441.51567727 C-128.1308953 443.20430168 -120.10385861 444.90772594 -112.07716775 446.61296058 C-102.01296965 448.75102762 -91.94829558 450.88675288 -81.88064575 453.0085144 C-68.86539366 455.75196499 -55.8521148 458.50089673 -42.85693359 461.33837891 C-41.84995894 461.55753495 -40.84298429 461.776691 -39.80549526 462.00248814 C-35.32387602 462.97798554 -30.84377385 463.95936466 -26.36653137 464.95475769 C-24.85404246 465.28501498 -23.34148924 465.61497793 -21.82885742 465.94458008 C-20.56619553 466.22417068 -19.30353363 466.50376129 -18.00260925 466.79182434 C-11.71561005 468.04699313 -11.71561005 468.04699313 -5.82175481 466.31947994 C-3.82195639 463.37750623 -4.08865047 460.42136776 -4.12247658 456.98641968 C-4.11811626 456.22408878 -4.11375593 455.46175787 -4.10926348 454.67632604 C-4.09824389 452.10093472 -4.10876014 449.52607173 -4.11904907 446.95068359 C-4.11559515 445.09406954 -4.11083239 443.23745753 -4.10486734 441.38084984 C-4.09229115 436.26265617 -4.09855768 431.14462933 -4.10782599 426.0264349 C-4.11458917 420.51307455 -4.10414887 414.99974372 -4.09588623 409.48638916 C-4.08251741 398.67927129 -4.08544063 387.87221578 -4.09412415 377.06509542 C-4.10088793 368.28515198 -4.10182309 359.50522606 -4.0985527 350.72528076 C-4.09786316 348.85382088 -4.09786316 348.85382088 -4.09715968 346.94455373 C-4.09620054 344.41032552 -4.0952279 341.87609732 -4.0942419 339.34186912 C-4.08592309 316.23392366 -4.09456305 293.12601088 -4.11026969 270.01807293 C-4.12450713 248.91111891 -4.12323328 227.80421918 -4.10888672 206.69726562 C-4.09283223 182.99819872 -4.08650284 159.29915812 -4.09572351 135.6000843 C-4.0966792 133.07496262 -4.09762231 130.54984093 -4.0985527 128.02471924 C-4.09901553 126.78217672 -4.09947836 125.5396342 -4.09995521 124.25943887 C-4.10254998 115.48583841 -4.09816363 106.71225716 -4.09111404 97.93865967 C-4.08271687 87.25260136 -4.08494152 76.56660919 -4.10095628 65.88055849 C-4.10886307 60.42406096 -4.11188975 54.96767388 -4.10200882 49.51117706 C-4.09311107 44.52232199 -4.09791298 39.5336804 -4.11394148 34.54484487 C-4.11731026 32.73399355 -4.1155486 30.92312442 -4.10831411 29.11228442 C-4.0992728 26.6624551 -4.10846446 24.21336988 -4.12247658 21.76358032 C-4.11545308 21.05036346 -4.10842958 20.33714659 -4.10119325 19.60231709 C-4.13418198 16.74287143 -4.18943758 14.82350481 -5.84328401 12.43507004 C-11.55069 8.78311634 -21.33581739 12.64944012 -27.34033203 13.97021484 Z " fill="#000000" transform="translate(255.5,16.625)"/>
<path d="M0 0 C2.35594788 1.76888552 4.22972603 3.4182182 6.26489258 5.50439453 C7.15624908 6.3823896 7.15624908 6.3823896 8.06561279 7.27812195 C10.0238089 9.21502661 11.95937047 11.172913 13.89453125 13.1328125 C15.25024597 14.48702483 16.60692425 15.84027317 17.96452332 17.19259644 C20.80596946 20.02970987 23.63654076 22.87713054 26.4597168 25.73242188 C30.07723183 29.38969765 33.71873039 33.02192425 37.36850452 36.64697456 C40.17361211 39.43789113 42.96644917 42.24082985 45.75565147 45.04763412 C47.09374091 46.39156965 48.43541266 47.73194831 49.78071022 49.06866837 C51.66032059 50.94027787 53.52301339 52.82725036 55.38208008 54.71923828 C55.93945358 55.26806168 56.49682709 55.81688507 57.0710907 56.38233948 C60.34730598 59.75920638 62.02889331 62.22250851 62 67 C61.0059967 68.88549805 61.0059967 68.88549805 59.34399414 70.57421875 C58.36452316 71.59588135 58.36452316 71.59588135 57.36526489 72.63818359 C56.58472748 73.41758301 55.80419006 74.19698242 55 75 C54.10127167 75.93279785 53.20254333 76.8655957 52.27658081 77.82666016 C49.04306403 81.18171522 45.77274693 84.49962395 42.49609375 87.8125 C41.90321123 88.41195435 41.31032871 89.01140869 40.69948006 89.62902832 C37.57074185 92.79011941 34.43809957 95.94729098 31.30297852 99.10205078 C28.71594876 101.70699942 26.13773731 104.32023409 23.56665039 106.94091797 C20.44656411 110.12108241 17.31210621 113.28637635 14.16670418 116.4414978 C12.9746614 117.64209897 11.78775987 118.84782782 10.60619926 120.05874634 C8.95751724 121.74622533 7.29100763 123.41390419 5.61889648 125.078125 C5.13717484 125.57984726 4.65545319 126.08156952 4.15913391 126.59849548 C1.68579084 129.01982307 0.27542785 129.96476861 -3.19883728 130.40917969 C-6 130 -6 130 -8.4375 128.375 C-10 126 -10 126 -9.87440491 123.16378784 C-8.81724416 119.33874946 -7.38572048 117.78057754 -4.57202148 115.00439453 C-4.11345764 114.54510056 -3.6548938 114.08580658 -3.18243408 113.6125946 C-1.67354022 112.10716624 -0.1477591 110.62019725 1.37890625 109.1328125 C2.43231715 108.08873341 3.4846248 107.04354013 4.53587341 105.99728394 C7.2983635 103.25383451 10.07553868 100.5257354 12.8560791 97.80059814 C15.69370331 95.0142294 18.51712989 92.21355498 21.34179688 89.4140625 C26.88076031 83.92863496 32.43532093 78.45935166 38 73 C37.22124166 72.99761165 36.44248331 72.99522329 35.64012623 72.99276257 C16.69467551 72.93363676 -2.25064465 72.85810223 -21.19595623 72.76428509 C-30.35775795 72.71931192 -39.51952067 72.67990077 -48.68139648 72.65356445 C-56.66652078 72.63059668 -64.65152179 72.59721236 -72.63654834 72.55129844 C-76.86490735 72.5273497 -81.09314414 72.50863177 -85.32156944 72.50238609 C-89.30166986 72.49634267 -93.2814575 72.47636994 -97.26144218 72.44572449 C-98.72190937 72.43693231 -100.18241742 72.43322413 -101.64291 72.43499184 C-103.63804914 72.43664417 -105.63317463 72.41818121 -107.6282196 72.39872742 C-108.74451091 72.39411845 -109.86080221 72.38950949 -111.01092052 72.38476086 C-114.41538925 71.94653019 -116.31759677 71.1301006 -119 69 C-119.82532311 63.22273821 -119.82532311 63.22273821 -117.85669994 60.30617046 C-115.15650578 58.40660997 -113.07606266 58.61463004 -109.7928009 58.60127258 C-108.49289719 58.58873444 -107.19299347 58.57619629 -105.85369873 58.5632782 C-104.41003393 58.56445231 -102.96636934 58.56591149 -101.52270508 58.56762695 C-100.00503234 58.55861251 -98.48736691 58.54828608 -96.9697113 58.53674316 C-92.84603443 58.50910947 -88.72249545 58.49988006 -84.59873796 58.49388909 C-80.29051616 58.48452194 -75.98239804 58.45831995 -71.67424011 58.43388367 C-63.51452166 58.3901692 -55.35482327 58.36165267 -47.19502324 58.33856028 C-37.90607455 58.31153508 -28.61722991 58.26762196 -19.32835543 58.22227156 C-0.2189585 58.12935446 18.89046594 58.05770613 38 58 C37.41340103 57.42450409 36.82680206 56.84900818 36.22242737 56.256073 C30.6916417 50.82554761 25.17305308 45.38304809 19.66769505 39.92675591 C16.83701833 37.12215269 14.00188921 34.32238133 11.15600586 31.53320312 C8.40879426 28.84039033 5.67404367 26.13548111 2.94743156 23.42181778 C1.90600251 22.3896144 0.86018816 21.36181586 -0.19006157 20.33858871 C-1.66263384 18.90241089 -3.11870757 17.45123337 -4.57202148 15.99560547 C-5.40475082 15.17397919 -6.23748016 14.35235291 -7.09544373 13.50582886 C-9.31444605 10.58628265 -9.7788791 8.63125009 -10 5 C-8.17970411 -0.18084215 -5.23844325 -0.65192713 0 0 Z " fill="#000000" transform="translate(409,192)"/>
<path d="M0 0 C3.92552249 3.56345974 6.70692349 7.66772797 7.37109375 12.953125 C7.52017141 20.3543924 7.04427323 25.38755313 2 31 C-2.48720156 35.37214511 -6.67774791 36.81272161 -12.875 37.3125 C-18.14065797 37.13161862 -22.81057035 36.00536256 -26.765625 32.3828125 C-32.25677286 26.17195109 -33.5244091 21.59518238 -33.375 13.265625 C-32.72760411 7.62788575 -30.42942494 4.16370658 -26.25 0.44140625 C-17.98379529 -5.84732276 -8.68159857 -5.4011472 0 0 Z M-17.75 10.5625 C-20.30473311 12.89115639 -20.30473311 12.89115639 -20.625 16.5 C-20.28764001 20.08683893 -20.28764001 20.08683893 -17.875 22.5 C-15.07850006 24.25177508 -15.07850006 24.25177508 -11.875 23.9375 C-8.25114833 22.81910282 -8.25114833 22.81910282 -6 20 C-5.33323122 16.54250051 -5.33323122 16.54250051 -6 13 C-8.12685929 10.4482714 -8.12685929 10.4482714 -11 9 C-14.9475115 8.67066039 -14.9475115 8.67066039 -17.75 10.5625 Z " fill="#000000" transform="translate(223,240)"/>
</svg>
