<?xml version="1.0" encoding="UTF-8"?>
<svg version="1.1" xmlns="http://www.w3.org/2000/svg" width="512" height="512">
<path d="M0 0 C1.46147209 -0.01496269 1.46147209 -0.01496269 2.95246887 -0.03022766 C4.01491821 -0.03089233 5.07736755 -0.03155701 6.17201233 -0.03224182 C7.85796257 -0.0447271 7.85796257 -0.0447271 9.57797241 -0.0574646 C13.2982376 -0.08158615 17.0183276 -0.09033878 20.73866272 -0.09693909 C23.32171686 -0.10590261 25.90477045 -0.11502441 28.48782349 -0.1242981 C33.90405389 -0.14079573 39.3202136 -0.14852292 44.73646545 -0.15138245 C50.99302481 -0.15501922 57.24909407 -0.18492746 63.50550359 -0.22678703 C69.52940439 -0.26567523 75.55303347 -0.2769752 81.57707405 -0.2781086 C84.13797733 -0.28232044 86.69888068 -0.29479305 89.25970268 -0.31562614 C92.83898213 -0.34243034 96.41690309 -0.33774681 99.99623108 -0.32521057 C101.05665619 -0.34004486 102.1170813 -0.35487915 103.2096405 -0.37016296 C110.41345908 -0.29818158 110.41345908 -0.29818158 114.25244141 2.68972778 C114.878246 3.54258865 115.5040506 4.39544952 116.14881897 5.27415466 C116.64204651 5.91771912 117.13527405 6.56128357 117.64344788 7.22434998 C118.04998596 7.84406677 118.45652405 8.46378357 118.87538147 9.10227966 C119.34403625 9.81070007 119.81269104 10.51912048 120.29554749 11.24900818 C120.78337708 11.99980652 121.27120667 12.75060486 121.77381897 13.52415466 C122.29451965 14.31555847 122.81522034 15.10696228 123.35169983 15.92234802 C124.95784919 18.36839028 126.5547026 20.82025671 128.14881897 23.27415466 C128.86594055 24.375578 128.86594055 24.375578 129.59754944 25.49925232 C132.33967667 29.7139856 135.06785268 33.93756568 137.78993225 38.16526794 C140.07083529 41.70505243 142.36027586 45.23930692 144.64881897 48.77415466 C145.56552612 50.19079513 146.4821928 51.60746179 147.39881897 53.02415466 C147.85256897 53.72540466 148.30631897 54.42665466 148.77381897 55.14915466 C167.33631897 83.83665466 167.33631897 83.83665466 185.89881897 112.52415466 C186.57968567 113.57639221 186.57968567 113.57639221 187.27430725 114.64988708 C188.18937332 116.06409487 189.10441246 117.47832008 190.01942444 118.89256287 C192.8045032 123.19709096 195.59002042 127.50133317 198.37806702 131.80393982 C199.30093808 133.23062067 200.22171147 134.65866085 201.14027405 136.08811951 C203.33047082 139.49297727 205.54611283 142.87184897 207.84022522 146.20774841 C208.26158752 146.83141296 208.68294983 147.45507751 209.11708069 148.09764099 C210.25631172 149.7809381 211.4109873 151.45375368 212.56678772 153.12571716 C214.46351335 156.90043533 214.83374349 159.10631609 214.14881897 163.27415466 C212.00776968 165.75737397 210.24760849 167.08926279 206.97095871 167.64062035 C204.18485128 167.79536077 201.42504933 167.81177994 198.63465881 167.78881836 C197.5640238 167.79576389 196.49338879 167.80270942 195.39031029 167.80986542 C191.79658152 167.828187 188.20350903 167.81785632 184.60975647 167.80760193 C182.03587854 167.81465771 179.46200477 167.82340128 176.88813782 167.83370972 C170.6192282 167.85535375 164.35050008 167.85522194 158.08156538 167.84708417 C152.98683894 167.8407851 147.89216545 167.84192033 142.79743958 167.84835625 C142.07241599 167.8492579 141.34739241 167.85015956 140.60039842 167.85108854 C139.12754073 167.85293973 137.65468306 167.85480229 136.1818254 167.85667609 C122.36984053 167.87325576 108.5579578 167.86453375 94.74597907 167.84769052 C82.10752612 167.83299123 69.46931085 167.84762477 56.83088851 167.87646068 C43.85474771 167.90584677 30.87871664 167.91682942 17.90254402 167.90727848 C16.43509549 167.90625592 14.96764694 167.90526131 13.50019836 167.90429497 C12.77817997 167.90381858 12.05616158 167.90334219 11.31226385 167.90285136 C6.22345853 167.9006863 1.13475702 167.91049608 -3.95402527 167.92506599 C-10.80281689 167.94440149 -17.65115872 167.93752283 -24.49993134 167.91286659 C-27.01664761 167.9078437 -29.53339737 167.91138647 -32.05008698 167.92401505 C-35.47957951 167.93986556 -38.90759887 167.92506825 -42.33702087 167.90234375 C-43.33847452 167.91417948 -44.33992817 167.92601521 -45.3717289 167.93820959 C-50.00751402 167.87558365 -52.17569203 167.76958429 -56.00440979 164.96145535 C-57.85118103 162.27415466 -57.85118103 162.27415466 -57.91368103 158.64915466 C-56.73068843 154.89141346 -56.18340146 154.16710555 -52.85118103 152.27415466 C-50.19758606 151.97636414 -50.19758606 151.97636414 -47.13975525 152.07981873 C-45.99110992 152.10843994 -44.8424646 152.13706116 -43.65901184 152.16654968 C-42.42047455 152.20721558 -41.18193726 152.24788147 -39.90586853 152.28977966 C-37.94932517 152.31671467 -35.99277563 152.34355642 -34.03616524 152.36507797 C-29.21992375 152.41836121 -24.40685035 152.49219023 -19.59336853 152.66819763 C-5.06316904 153.86854402 -5.06316904 153.86854402 8.33164978 149.87461853 C11.73072119 146.46143262 13.68555027 142.54018829 15.41773987 138.08726501 C16.37115831 135.7227427 17.68678787 133.72289522 19.13710022 131.63352966 C20.3147621 129.80671757 21.48927957 127.97951013 22.64295959 126.13743591 C25.02612651 122.47405536 27.09317551 120.01887141 31.14881897 118.27415466 C34.68046193 119.03588158 36.58753309 119.71286879 39.14881897 122.27415466 C40.01916372 128.71309409 37.86286558 132.22329372 34.39881897 137.33665466 C33.95538147 138.01792419 33.51194397 138.69919373 33.05506897 139.40110779 C31.76892127 141.3700486 30.46185402 143.32305934 29.14881897 145.27415466 C27.82881897 147.25415466 26.50881897 149.23415466 25.14881897 151.27415466 C37.68881897 151.27415466 50.22881897 151.27415466 63.14881897 151.27415466 C74.64184252 127.67597441 74.64184252 127.67597441 86.02381897 104.02415466 C86.44767883 103.13889099 86.8715387 102.25362732 87.3082428 101.34153748 C89.61495323 96.51619895 91.89579777 91.67976233 94.15663147 86.83274841 C94.65694885 85.76766052 95.15726624 84.70257263 95.67274475 83.60520935 C96.63385646 81.55835617 97.58831272 79.50836036 98.53504944 77.45481873 C99.17917786 76.08728455 99.17917786 76.08728455 99.83631897 74.69212341 C100.39899475 73.48205627 100.39899475 73.48205627 100.97303772 72.24754333 C102.14881897 70.27415466 102.14881897 70.27415466 105.14881897 68.27415466 C111.26534637 67.60689713 111.26534637 67.60689713 114.0841217 69.73582458 C116.97033439 73.28412225 118.78454005 77.14743114 120.74647522 81.26243591 C121.17753571 82.1496785 121.60859619 83.03692108 122.05271912 83.9510498 C123.446937 86.82578385 124.82928485 89.70604624 126.21131897 92.58665466 C127.164502 94.55849773 128.11836051 96.53001442 129.07289124 98.50120544 C131.37396445 103.25827093 133.66555453 108.01981685 135.95265198 112.78361511 C137.00288496 114.97030543 138.05505658 117.1560393 139.10877991 119.34104919 C144.22069336 129.94292274 149.21584709 140.58604893 154.14881897 151.27415466 C166.68881897 151.27415466 179.22881897 151.27415466 192.14881897 151.27415466 C183.03487281 136.99832749 173.88081392 122.75553068 164.61366272 108.57884216 C160.20546247 101.8351796 155.83080982 95.06999614 151.45936584 88.30247498 C149.19105098 84.79182671 146.91974599 81.28311353 144.64881897 77.77415466 C143.73213882 76.35749672 142.81547213 74.94083007 141.89881897 73.52415466 C141.44506897 72.82290466 140.99131897 72.12165466 140.52381897 71.39915466 C136.39881897 65.02415466 136.39881897 65.02415466 135.02308655 62.89793396 C134.10896932 61.48526639 133.19474454 60.07266841 132.28041077 58.66014099 C129.94883823 55.05785934 127.61930863 51.45428302 125.29335022 47.84837341 C119.97749666 39.61176125 114.61928062 31.4093111 109.14881897 23.27415466 C105.63930693 26.46678074 103.26147146 30.05588397 100.83631897 34.08665466 C96.57416174 41.03743777 92.17732276 47.89014225 87.71131897 54.71165466 C87.06670715 55.69706238 86.42209534 56.68247009 85.75794983 57.69773865 C84.48297731 59.64666431 83.20783466 61.59547869 81.93251038 63.54417419 C79.40986477 67.40514096 76.90215026 71.27564605 74.39881897 75.14915466 C73.96279358 75.82349548 73.52676819 76.4978363 73.07752991 77.19261169 C70.81942941 80.68600615 68.56381457 84.18099839 66.30897522 87.67649841 C63.59595212 91.88029529 60.87667086 96.07996421 58.14881897 100.27415466 C57.74969299 100.88790955 57.35056702 101.50166443 56.93934631 102.13401794 C55.84707053 103.80871755 54.74813985 105.4790712 53.64881897 107.14915466 C53.04038147 108.07470154 52.43194397 109.00024841 51.80506897 109.95384216 C50.35197856 111.98953958 49.09230533 113.70617219 47.14881897 115.27415466 C43.2178719 115.77445702 41.04824027 115.87376887 37.71131897 113.64915466 C35.59850215 110.4376731 35.63404517 109.1087832 36.14881897 105.27415466 C37.80359913 101.97770609 39.87061175 98.99501818 41.96131897 95.96165466 C43.16347635 94.1676079 44.36529391 92.37333339 45.56678772 90.57884216 C46.17184143 89.68519958 46.77689514 88.79155701 47.40028381 87.87083435 C49.9105911 84.14287732 52.34389343 80.36727935 54.77381897 76.58665466 C55.67186598 75.1970793 56.5703025 73.8077556 57.46913147 72.41868591 C57.91031311 71.73628845 58.35149475 71.05389099 58.80604553 70.35081482 C61.08605826 66.8246715 63.36752103 63.29946657 65.64881897 59.77415466 C66.56549238 58.35749236 67.48215905 56.9408257 68.39881897 55.52415466 C73.89881897 47.02415466 73.89881897 47.02415466 75.27626038 44.89549255 C76.18492424 43.4911204 77.0934548 42.08666198 78.00184631 40.68211365 C80.41482073 36.951591 82.83067801 33.22297311 85.25038147 29.49681091 C85.7563385 28.7169281 86.26229553 27.93704529 86.78358459 27.13352966 C87.75799973 25.63167881 88.73322672 24.13035431 89.70936584 22.62962341 C92.06782799 19.03300573 92.06782799 19.03300573 94.14881897 15.27415466 C82.1958104 15.0568167 70.2448791 14.9211243 58.28985786 14.88812351 C52.73756161 14.87026365 47.18840458 14.82485842 41.63710022 14.71531677 C36.27385734 14.61051904 30.91469977 14.57962889 25.55051804 14.59881401 C23.50988289 14.59334843 21.46913692 14.56175875 19.42934036 14.50300789 C8.79197482 13.845544 8.79197482 13.845544 -0.68074989 17.75325012 C-3.82879011 21.30417805 -6.01938333 25.23980936 -8.01480675 29.52407265 C-9.09258666 31.77928694 -10.42890828 33.80591571 -11.84727478 35.86009216 C-12.66217085 37.12240744 -13.47599531 38.38541522 -14.28868103 39.64915466 C-15.21443262 41.08406963 -16.14021477 42.51896488 -17.06602478 43.95384216 C-17.75607605 45.0245697 -17.75607605 45.0245697 -18.46006775 46.1169281 C-20.75271365 49.67217892 -23.05226476 53.2229566 -25.35118103 56.77415466 C-26.26788145 58.19079949 -27.1845481 59.60746617 -28.10118103 61.02415466 C-66.60118103 120.52415466 -66.60118103 120.52415466 -67.97862244 122.65281677 C-68.8872863 124.05718893 -69.79581686 125.46164734 -70.70420837 126.86619568 C-73.11718279 130.59671833 -75.53304007 134.32533622 -77.95274353 138.05149841 C-78.45870056 138.83138123 -78.96465759 139.61126404 -79.48594666 140.41477966 C-80.46036179 141.91663051 -81.43558878 143.41795501 -82.41172791 144.91868591 C-84.77019005 148.51530359 -84.77019005 148.51530359 -86.85118103 152.27415466 C-85.747099 152.18714294 -85.747099 152.18714294 -84.62071228 152.09837341 C-76.70488052 151.73238383 -76.70488052 151.73238383 -72.60118103 154.33665466 C-70.85118103 157.27415466 -70.85118103 157.27415466 -70.78868103 160.89915466 C-71.97711532 164.67418123 -72.49457167 165.38289927 -75.85118103 167.27415466 C-78.81211853 167.66233826 -78.81211853 167.66233826 -82.22618103 167.67259216 C-83.45852478 167.67645935 -84.69086853 167.68032654 -85.96055603 167.68431091 C-87.24446228 167.67270935 -88.52836853 167.66110779 -89.85118103 167.64915466 C-91.77704041 167.66655701 -91.77704041 167.66655701 -93.74180603 167.68431091 C-94.97414978 167.68044373 -96.20649353 167.67657654 -97.47618103 167.67259216 C-98.60282166 167.66920837 -99.72946228 167.66582458 -100.89024353 167.66233826 C-104.16175167 167.23343836 -105.53439707 166.58752606 -107.85118103 164.27415466 C-108.87122565 160.99130365 -109.13000173 159.07024452 -107.98789978 155.80931091 C-104.58459728 150.00259802 -100.98524885 144.35648187 -97.21348572 138.78343201 C-93.13035993 132.74436202 -89.20490313 126.60994753 -85.28868103 120.46165466 C-78.19393697 109.33559469 -70.99388757 98.28363073 -63.76133728 87.24681091 C-59.18840998 80.26789151 -54.65369321 73.26470511 -50.12950134 66.25413513 C-47.87293157 62.75895162 -45.61173494 59.26676213 -43.35118103 55.77415466 C-42.43449414 54.35750108 -41.51782743 52.94083444 -40.60118103 51.52415466 C-35.10118103 43.02415466 -35.10118103 43.02415466 -33.72520447 40.89768982 C-32.81173898 39.48594092 -31.89832722 38.07415726 -30.98497009 36.66233826 C-28.64477248 33.04513774 -26.30354518 29.42861024 -23.96055603 25.81321716 C-23.48561707 25.07982117 -23.0106781 24.34642517 -22.52134705 23.59080505 C-21.58547936 22.14654096 -20.64849401 20.70300038 -19.71031189 19.26023865 C-17.68462816 16.13931298 -15.6770643 13.01308497 -13.74571228 9.83274841 C-12.83885681 8.34968201 -12.83885681 8.34968201 -11.91368103 6.83665466 C-11.40965759 5.99231873 -10.90563416 5.14798279 -10.38633728 4.27806091 C-7.56628765 0.59692743 -4.48557307 0.02467953 0 0 Z M108.14881897 92.27415466 C105.44539017 97.80112174 102.74365513 103.32891263 100.04335022 108.85740662 C99.12842771 110.7300185 98.21307757 112.60242153 97.29725647 114.47459412 C92.65616105 123.96288623 88.02758571 133.45725908 83.49256897 142.99681091 C82.98095215 144.06311989 82.98095215 144.06311989 82.45899963 145.15097046 C80.73189273 148.56277331 80.73189273 148.56277331 80.14881897 152.27415466 C98.95881897 152.27415466 117.76881897 152.27415466 137.14881897 152.27415466 C134.72682718 144.85874689 134.72682718 144.85874689 131.61756897 137.95384216 C131.14182434 137.01701599 130.66607971 136.08018982 130.17591858 135.11497498 C129.42000427 133.64689392 129.42000427 133.64689392 128.64881897 132.14915466 C123.84384273 122.70027936 119.19815887 113.19222471 114.71522522 103.58616638 C114.07713928 102.23289246 114.07713928 102.23289246 113.42616272 100.85227966 C113.05741028 100.06240662 112.68865784 99.27253357 112.30873108 98.45872498 C111.11212642 96.20504818 109.73113833 94.2716159 108.14881897 92.27415466 Z " fill="#000000" transform="translate(116.85118103027344,336.72584533691406)"/>
<path d="M0 0 C0.95769287 -0.00145523 1.91538574 -0.00291046 2.90209961 -0.00440979 C4.92271981 -0.00275311 6.94335294 0.00878231 8.96386719 0.02954102 C12.05197905 0.05849511 15.13837324 0.0501449 18.2265625 0.03710938 C20.19271665 0.04334722 22.1588654 0.05173853 24.125 0.0625 C25.50643188 0.05809654 25.50643188 0.05809654 26.91577148 0.05360413 C31.7177981 0.12406913 35.24546362 0.23154843 39.0625 3.49609375 C40.14574093 6.74581655 40.19004854 9.10061972 40.19392776 12.52037621 C40.19776891 13.78773845 40.20161005 15.0551007 40.2055676 16.36086786 C40.20478731 17.77527711 40.20390851 19.18968632 40.20294189 20.60409546 C40.20552475 22.10042447 40.20853769 23.5967528 40.2119453 25.09308016 C40.22002771 29.2154238 40.22180556 33.33775003 40.22254276 37.46010065 C40.22439113 41.9019076 40.23193732 46.34370548 40.23867798 50.7855072 C40.2522701 60.50229629 40.25828723 70.21908126 40.26268864 79.93587828 C40.26544927 85.99995353 40.26968626 92.06402718 40.27419281 98.12810135 C40.28638605 114.90919838 40.29668563 131.69029413 40.3000679 148.47139549 C40.30039725 150.08296506 40.30039725 150.08296506 40.30073325 151.72709159 C40.30095153 152.80407611 40.30116981 153.88106063 40.3013947 154.99068105 C40.30183817 157.17314935 40.30228473 159.35561764 40.30273438 161.53808594 C40.30306652 163.1619636 40.30306652 163.1619636 40.30340537 164.81864686 C40.30735513 182.36848354 40.3248143 199.91827875 40.3480939 217.4680994 C40.37178752 235.47496778 40.38426882 253.48181533 40.38543582 271.48869956 C40.38635364 281.60349576 40.39213292 291.71823791 40.41025543 301.83301926 C40.42562951 310.44428628 40.43079281 319.05548254 40.42251733 327.66676067 C40.4186014 332.06228265 40.41958621 336.45766201 40.43357468 340.85316658 C40.44625716 344.87497803 40.4451662 348.89653888 40.43298396 352.9183497 C40.43101712 354.37527308 40.43415067 355.83221387 40.44282833 357.28911273 C40.45386058 359.26608936 40.44467428 361.24314811 40.4344368 363.22012901 C40.43503389 364.31931203 40.43563097 365.41849505 40.43624616 366.55098665 C40.01060704 369.90500852 39.05901658 371.79096884 37.0625 374.49609375 C34.44650076 375.80409337 32.50943298 375.63393093 29.57865906 375.6499939 C27.83102264 375.66289459 27.83102264 375.66289459 26.04808044 375.67605591 C24.12102013 375.68244583 24.12102013 375.68244583 22.1550293 375.68896484 C20.79340403 375.69686527 19.43178087 375.70513418 18.07015991 375.71374512 C13.59236655 375.73997142 9.11456381 375.75527298 4.63671875 375.76953125 C3.09585883 375.77489061 1.55499897 375.78026812 0.01413918 375.7856636 C-6.39481578 375.8072929 -12.80376821 375.8260301 -19.21275043 375.837286 C-28.4009697 375.85352857 -37.58876629 375.88671273 -46.7768262 375.94368684 C-53.23549004 375.98237239 -59.69404076 376.00191699 -66.15281743 376.00720656 C-70.01131929 376.01086189 -73.86937041 376.02290143 -77.72774696 376.0553093 C-81.35828926 376.08536631 -84.98810757 376.09171088 -88.61874771 376.07992554 C-90.58473226 376.07959932 -92.55067197 376.10408077 -94.51649475 376.12930298 C-104.12904849 376.06116628 -104.12904849 376.06116628 -107.26457214 373.18618774 C-108.9375 370.49609375 -108.9375 370.49609375 -109 366.87109375 C-107.9375 363.49609375 -107.9375 363.49609375 -103.9375 360.49609375 C-61.3675 360.49609375 -18.7975 360.49609375 25.0625 360.49609375 C25.0625 246.64609375 25.0625 132.79609375 25.0625 15.49609375 C13.5125 15.49609375 1.9625 15.49609375 -9.9375 15.49609375 C-14.9375 11.49609375 -14.9375 11.49609375 -15.5625 7.99609375 C-14.9375 4.49609375 -14.9375 4.49609375 -13.01953125 2.30834961 C-8.65681581 -0.25695748 -4.974863 -0.06068432 0 0 Z " fill="#000000" transform="translate(432.9375,97.50390625)"/>
<path d="M0 0 C2.68069013 2.8367818 3.37499425 4.77344001 3.37473011 8.63688946 C3.38193665 9.56936998 3.3891432 10.5018505 3.39656812 11.46258801 C3.38919383 12.48368076 3.38181955 13.50477352 3.3742218 14.55680847 C3.37819621 15.64418456 3.38217061 16.73156065 3.38626546 17.85188752 C3.39591686 21.50840492 3.38405266 25.16453816 3.37231445 28.82104492 C3.37474154 31.43754216 3.37846005 34.05403848 3.38337708 36.67053223 C3.39287204 43.04852671 3.38625825 49.42640816 3.37411413 55.80439427 C3.36049415 63.23451037 3.36213213 70.66459952 3.36424746 78.09472493 C3.36743866 91.35719984 3.35576438 104.61962109 3.33618164 117.88208008 C3.3171962 130.74342485 3.31008892 143.60470667 3.31567383 156.46606445 C3.32173781 170.47208158 3.32154173 184.47807102 3.310188 198.48408586 C3.30898073 199.97914493 3.30777475 201.474204 3.30657005 202.96926308 C3.30596651 203.70483416 3.30536298 204.44040524 3.30474115 205.19826635 C3.30086759 210.37330714 3.30125353 215.5483376 3.3031559 220.72337914 C3.30550535 227.69762576 3.2969146 234.67179031 3.2810955 241.64601898 C3.27685709 244.20459217 3.27599912 246.76317355 3.27878571 249.32174873 C3.28201482 252.8173451 3.27290675 256.3127016 3.26069641 259.80827332 C3.26447573 260.81821246 3.26825506 261.8281516 3.27214891 262.86869496 C3.20098527 274.40579324 0.75543439 284.40476487 -7.0078125 293.30078125 C-14.85687939 300.77005458 -24.33841941 305.10411368 -35.20594788 305.14044189 C-36.74737709 305.14900711 -36.74737709 305.14900711 -38.31994629 305.15774536 C-39.43647583 305.15886322 -40.55300537 305.15998108 -41.70336914 305.16113281 C-43.47973 305.16858017 -43.47973 305.16858017 -45.29197693 305.17617798 C-48.53152138 305.1882583 -51.77102982 305.19573644 -55.0105927 305.20018864 C-57.03534359 305.20312527 -59.06008889 305.20723102 -61.08483696 305.21169281 C-67.42264785 305.22535028 -73.76044589 305.2350274 -80.09827048 305.2388947 C-87.41023701 305.24338148 -94.72201717 305.26096524 -102.03392702 305.2898953 C-107.69094763 305.31150044 -113.34791573 305.32159823 -119.00497717 305.32293582 C-122.38205898 305.32398402 -125.75896517 305.3298957 -129.13600349 305.34775543 C-132.89948942 305.36475045 -136.662517 305.36295194 -140.42602539 305.35644531 C-142.10385605 305.37026749 -142.10385605 305.37026749 -143.81558228 305.3843689 C-145.35278175 305.37601517 -145.35278175 305.37601517 -146.92103577 305.36749268 C-147.81052445 305.36895924 -148.70001314 305.3704258 -149.61645603 305.3719368 C-152.52354931 304.91830348 -153.88131088 304.0159411 -156 302 C-157.19308162 298.34121638 -157.32667744 296.70002308 -155.6875 293.1875 C-154 291 -154 291 -152 290 C-150.40061395 289.90607818 -148.79733182 289.87535203 -147.19519043 289.87542725 C-146.18036591 289.87286423 -145.16554138 289.87030121 -144.1199646 289.86766052 C-142.44313095 289.87081017 -142.44313095 289.87081017 -140.73242188 289.87402344 C-139.55825714 289.8721553 -138.38409241 289.87028717 -137.17434692 289.86836243 C-134.61633016 289.86435006 -132.0583098 289.86228282 -129.50028992 289.86190033 C-125.44794659 289.86075967 -121.39569433 289.84791666 -117.34338379 289.83233643 C-116.65911993 289.82976357 -115.97485606 289.82719072 -115.26985693 289.8245399 C-113.87025953 289.81927291 -112.47066221 289.81398743 -111.07106495 289.80868387 C-101.63688124 289.77361168 -92.202809 289.74701448 -82.76855469 289.74951172 C-76.40608853 289.75110533 -70.04393189 289.73494374 -63.68156481 289.69880509 C-60.31757506 289.68041695 -56.95410146 289.67093813 -53.59007263 289.68328094 C-49.82714891 289.69292751 -46.06553962 289.67166817 -42.30273438 289.64355469 C-41.20103912 289.65375137 -40.09934387 289.66394806 -38.96426392 289.67445374 C-31.63201894 289.57661597 -26.16137775 288.057807 -20 284 C-17.71439875 281.8033169 -17.71439875 281.8033169 -16.4375 279.375 C-15.98246094 278.61960937 -15.52742187 277.86421875 -15.05859375 277.0859375 C-13.36906147 273.75674843 -12.87439585 271.13502054 -12.86971474 267.45657444 C-12.86427822 266.05098989 -12.86427822 266.05098989 -12.85873187 264.6170097 C-12.85980012 263.58570256 -12.86086837 262.55439542 -12.86196899 261.49183655 C-12.85914771 260.3977035 -12.85632643 259.30357046 -12.85341966 258.17628187 C-12.84505262 254.49129347 -12.84373362 250.80633503 -12.84228516 247.12133789 C-12.83761858 244.48702408 -12.83247527 241.85271107 -12.82688904 239.21839905 C-12.81535962 233.53645556 -12.80711736 227.85451505 -12.80076981 222.17256355 C-12.79044982 213.19448511 -12.76988841 204.21644376 -12.74765015 195.23838806 C-12.74017039 192.16779053 -12.73275668 189.09719285 -12.72536278 186.02659512 C-12.72258693 184.87552316 -12.72258693 184.87552316 -12.719755 183.70119723 C-12.69882494 174.96462011 -12.67999745 166.22803891 -12.66210938 157.49145508 C-12.66047119 156.69271607 -12.65883301 155.89397705 -12.65714519 155.07103383 C-12.63084893 142.12148041 -12.61221158 129.17192414 -12.59551747 116.22235531 C-12.57810863 102.93326155 -12.54927724 89.6442239 -12.5106281 76.35517496 C-12.48720636 68.15477314 -12.47323159 59.95446278 -12.47130047 51.75402724 C-12.4691942 46.13662814 -12.45629118 40.51932011 -12.43482114 34.90196187 C-12.42277074 31.65892961 -12.41728025 28.41611511 -12.42153358 25.17305756 C-12.4254059 21.66022078 -12.41104589 18.14792319 -12.39199829 14.63514709 C-12.39752799 13.60607068 -12.40305768 12.57699426 -12.40875494 11.51673371 C-12.39549518 10.10723754 -12.39549518 10.10723754 -12.38196754 8.6692667 C-12.38061102 7.85829141 -12.37925449 7.04731612 -12.37785685 6.21176583 C-11.90070569 3.41878583 -10.9285525 2.05264256 -9 0 C-5.4314543 -1.18951523 -3.60804584 -0.97717908 0 0 Z " fill="#000000" transform="translate(501,199)"/>
<path d="M0 0 C7.23368468 5.33072547 12.43753054 11.95972365 15.37890625 20.45703125 C15.37890625 21.77703125 15.37890625 23.09703125 15.37890625 24.45703125 C16.12462891 24.43608398 16.87035156 24.41513672 17.63867188 24.39355469 C21.0519435 24.30986491 24.46499849 24.25820331 27.87890625 24.20703125 C29.05195313 24.17351563 30.225 24.14 31.43359375 24.10546875 C39.54588424 24.01431942 45.22582218 24.80103447 51.40234375 30.23828125 C51.84835937 30.80546875 52.294375 31.37265625 52.75390625 31.95703125 C53.21539062 32.52421875 53.676875 33.09140625 54.15234375 33.67578125 C59.46582407 41.39217305 58.59550202 50.45119445 58.61914062 59.45947266 C58.62881881 61.68690741 58.6598774 63.91340719 58.69140625 66.140625 C58.75861393 75.14003488 58.7686438 84.32390026 53.12890625 91.83203125 C47.6005817 97.10906832 42.06906271 99.57117033 34.434021 99.59747314 C32.94118843 99.60603836 32.94118843 99.60603836 31.41819763 99.61477661 C30.33240921 99.61589447 29.24662079 99.61701233 28.12792969 99.61816406 C26.4053167 99.62561142 26.4053167 99.62561142 24.64790344 99.63320923 C20.84468997 99.64782667 17.04151821 99.65463236 13.23828125 99.66015625 C10.5951538 99.66590825 7.95202636 99.67166598 5.30889893 99.6774292 C0.47271793 99.68699639 -4.36345408 99.69289566 -9.19964337 99.69592595 C-16.30443074 99.70040286 -23.40902535 99.71793637 -30.51375413 99.74692655 C-36.67857103 99.77120306 -42.84330874 99.77887297 -49.00817108 99.7806015 C-51.62519123 99.78362604 -54.24221061 99.79164784 -56.85919952 99.80478668 C-60.52379387 99.82187106 -64.18792087 99.81996066 -67.85253906 99.81347656 C-68.93023056 99.82269135 -70.00792206 99.83190613 -71.11827087 99.84140015 C-79.54959501 99.7947481 -86.72728983 98.37443271 -92.95874023 92.27905273 C-100.08860446 84.46436971 -99.20609642 74.47809807 -99.08764648 64.55493164 C-99.05862416 61.89731556 -99.0670754 59.24169203 -99.08007812 56.58398438 C-99.07384088 54.87368835 -99.06545005 53.16339854 -99.0546875 51.453125 C-99.05762314 50.66957138 -99.06055878 49.88601776 -99.06358337 49.07872009 C-98.95188177 42.46375938 -97.67480376 36.89928099 -93.30859375 31.70703125 C-87.56231455 26.89619285 -83.38911378 24.32115298 -75.859375 24.359375 C-74.74111328 24.36259766 -73.62285156 24.36582031 -72.47070312 24.36914062 C-71.30345703 24.37751953 -70.13621094 24.38589844 -68.93359375 24.39453125 C-67.75474609 24.39904297 -66.57589844 24.40355469 -65.36132812 24.40820312 C-62.44786586 24.41999852 -59.53450512 24.43645855 -56.62109375 24.45703125 C-56.43571045 23.78373779 -56.25032715 23.11044434 -56.05932617 22.41674805 C-55.80513916 21.52640869 -55.55095215 20.63606934 -55.2890625 19.71875 C-55.0418042 18.83920654 -54.7945459 17.95966309 -54.53979492 17.0534668 C-51.72423612 9.09612749 -44.51959493 1.92497841 -37.0625 -1.83203125 C-24.46511046 -7.03570776 -12.06205473 -7.10061344 0 0 Z M-39.0859375 18.82421875 C-41.72328162 23.34729746 -42.69337195 28.28183962 -43.796875 33.359375 C-44.06886719 34.38160156 -44.34085937 35.40382813 -44.62109375 36.45703125 C-47.48754075 37.89025475 -50.00251858 37.62168469 -53.203125 37.66796875 C-54.54102767 37.69604626 -55.87891813 37.72471078 -57.21679688 37.75390625 C-59.3233189 37.79509043 -61.42961511 37.83198136 -63.53637695 37.85839844 C-65.57160443 37.88612438 -67.60579958 37.93200001 -69.640625 37.98046875 C-70.85854736 38.00028809 -72.07646973 38.02010742 -73.33129883 38.04052734 C-77.85306223 38.6130044 -80.43930508 40.27524258 -83.62109375 43.45703125 C-83.85770555 46.12310887 -83.97338604 48.68194958 -83.9921875 51.3515625 C-84.00121597 52.13593185 -84.01024445 52.92030121 -84.01954651 53.72843933 C-84.03406703 55.39029108 -84.04294022 57.05220024 -84.04663086 58.71411133 C-84.05850162 61.24985074 -84.10764171 63.78313588 -84.15820312 66.31835938 C-84.16767043 67.93358188 -84.174904 69.54881933 -84.1796875 71.1640625 C-84.19921982 71.91943802 -84.21875214 72.67481354 -84.23887634 73.45307922 C-84.20839691 77.03331454 -83.81004264 79.17915766 -81.78541565 82.15663147 C-77.11279835 85.55353233 -73.03625326 85.15747728 -67.39257812 85.10400391 C-66.2587117 85.1127655 -65.12484528 85.1215271 -63.95661926 85.1305542 C-60.20897139 85.15255887 -56.4625036 85.13799007 -52.71484375 85.12109375 C-50.11079685 85.12446153 -47.50675148 85.12931383 -44.90270996 85.1355896 C-39.44526385 85.14467859 -33.98815638 85.13271846 -28.53076172 85.10888672 C-22.22697165 85.08167625 -15.92399019 85.09049099 -9.62021971 85.11801875 C-3.54873169 85.14346792 2.52239866 85.1407425 8.59391785 85.12611008 C11.17433282 85.12277286 13.7547684 85.12687415 16.3351593 85.13850784 C19.94079376 85.15119603 23.54487217 85.13186442 27.15039062 85.10400391 C28.21859543 85.11412506 29.28680023 85.12424622 30.38737488 85.13467407 C35.16959513 85.06615984 37.59661427 85.02825421 41.54124451 82.1479187 C43.95402285 78.61488821 44.08358669 75.62665125 44.0078125 71.48828125 C44.01022446 70.73035278 44.01263641 69.97242432 44.01512146 69.19152832 C44.01414521 67.59459177 44.00080434 65.99762046 43.97583008 64.40087891 C43.94150432 61.9639936 43.95518235 59.53073516 43.97460938 57.09375 C43.96771049 55.53774507 43.9580377 53.98174944 43.9453125 52.42578125 C43.95027237 51.70169067 43.95523224 50.9776001 43.96034241 50.23156738 C43.84820676 45.38673699 42.88182149 42.81728664 39.37890625 39.45703125 C35.89290824 38.29503191 33.05180525 38.28019679 29.375 38.2109375 C27.98111305 38.17801869 26.58723299 38.14480673 25.19335938 38.11132812 C22.99882444 38.06379752 20.80432132 38.019316 18.60961914 37.98022461 C16.48946198 37.94060659 14.3698556 37.88906257 12.25 37.8359375 C10.9808374 37.81088135 9.7116748 37.7858252 8.40405273 37.76000977 C5.37890625 37.45703125 5.37890625 37.45703125 3.37890625 35.45703125 C2.85885142 33.3882417 2.41029285 31.30111748 2.00390625 29.20703125 C0.1315705 20.82302536 -2.87650992 16.6598843 -9.71875 11.65625 C-19.96162293 5.19924386 -32.05873137 10.40437723 -39.0859375 18.82421875 Z " fill="#000000" transform="translate(354.62109375,13.54296875)"/>
<path d="M0 0 C1.46702362 -0.0099852 1.46702362 -0.0099852 2.96368408 -0.02017212 C5.01759981 -0.03024335 7.07154789 -0.03499086 9.12548828 -0.03466797 C12.27039636 -0.03906918 15.4139308 -0.07552372 18.55859375 -0.11328125 C20.55989106 -0.11914493 22.56119499 -0.12311732 24.5625 -0.125 C25.50107849 -0.13937103 26.43965698 -0.15374207 27.40667725 -0.16854858 C33.85504464 -0.12319191 33.85504464 -0.12319191 37.11425781 2.14208984 C39.138686 5.31134276 38.91689782 7.65760329 38.515625 11.3359375 C36.515625 14.3359375 36.515625 14.3359375 33.515625 15.3359375 C32.11083939 15.42504569 30.70228638 15.46103858 29.29467773 15.46191406 C28.44626816 15.46572083 27.59785858 15.46952759 26.72373962 15.47344971 C25.80814774 15.47447693 24.89255585 15.47550415 23.94921875 15.4765625 C21.99933739 15.49490225 20.04946729 15.51447362 18.09960938 15.53515625 C15.03423188 15.56401722 11.96957452 15.58593487 8.90405273 15.58642578 C5.93929594 15.58978637 2.97618652 15.62450064 0.01171875 15.6640625 C-1.34041466 15.65345795 -1.34041466 15.65345795 -2.71986389 15.64263916 C-9.48869434 15.77028571 -14.85741333 17.51009343 -20.484375 21.3359375 C-26.40071579 27.62947675 -27.63308671 32.57512803 -27.62240601 41.1289978 C-27.62522729 42.03866542 -27.62804857 42.94833305 -27.63095534 43.88556635 C-27.63931592 46.94634314 -27.64064083 50.00708381 -27.64208984 53.06787109 C-27.64675694 55.25721845 -27.65190032 57.44656483 -27.65748596 59.63591003 C-27.66877556 64.35693649 -27.67720553 69.07795659 -27.68360519 73.79899216 C-27.69427097 81.26092644 -27.71451139 88.72281516 -27.73672485 96.1847229 C-27.76727124 106.6443027 -27.79650001 117.10388378 -27.82226562 127.56347656 C-27.82390381 128.2273756 -27.82554199 128.89127464 -27.82722981 129.57529183 C-27.85351787 140.33524924 -27.8721599 151.09521009 -27.88885753 161.85518603 C-27.90627601 172.90121725 -27.93530795 183.94717919 -27.9737469 194.99315703 C-27.99484758 201.19555489 -28.01027853 207.39785656 -28.01255417 213.60029221 C-28.01469662 219.43286769 -28.03052489 225.26524283 -28.05694389 231.09775734 C-28.06415339 233.24034967 -28.06622991 235.38296623 -28.06284142 237.52556801 C-28.05895879 240.4469207 -28.07336233 243.36762969 -28.09237671 246.28890991 C-28.08684701 247.13998082 -28.08131732 247.99105172 -28.07562006 248.86791265 C-28.1328479 253.94925614 -28.71354595 257.56510845 -32.484375 261.3359375 C-38.28025836 261.80334745 -38.28025836 261.80334745 -40.484375 261.3359375 C-43.28785036 258.76839393 -43.49785115 257.19393212 -43.86189842 253.35777092 C-43.87842067 251.69870935 -43.87828164 250.03943383 -43.86532593 248.38034058 C-43.8700059 247.46517925 -43.87468587 246.55001793 -43.87950766 245.60712445 C-43.89149579 242.53334672 -43.88198523 239.4600117 -43.87255859 236.38623047 C-43.87662276 234.18514241 -43.88196377 231.98405639 -43.88848877 229.78297424 C-43.90219133 223.79714271 -43.89685027 217.81146593 -43.88735151 211.82563162 C-43.87976443 205.56157605 -43.88679841 199.29753387 -43.89151001 193.03347778 C-43.8973229 181.83191652 -43.88798436 170.63041908 -43.872732 159.42887284 C-43.85934827 149.28620575 -43.86164001 139.14364176 -43.87548828 129.00097656 C-43.8915712 117.21615673 -43.8975023 105.43138713 -43.88865149 93.64655602 C-43.88398028 87.41103207 -43.88333448 81.17557902 -43.89326096 74.94005966 C-43.90195002 69.07135674 -43.89587307 63.20284764 -43.87857819 57.33416557 C-43.87462263 55.1839893 -43.87573137 53.03379662 -43.88236618 50.88362694 C-43.89060922 47.94001238 -43.88022645 44.9970121 -43.86532593 42.05343628 C-43.87201809 41.20982981 -43.87871026 40.36622333 -43.88560522 39.49705303 C-43.77873099 28.55166067 -40.16672825 19.288879 -32.59765625 11.359375 C-23.04343968 2.53721039 -12.74857134 0.03049369 0 0 Z " fill="#000000" transform="translate(208.484375,66.6640625)"/>
<path d="M0 0 C1.32662659 -0.0237545 1.32662659 -0.0237545 2.68005371 -0.04798889 C3.62288208 -0.04302902 4.56571045 -0.03806915 5.53710938 -0.03295898 C6.51699829 -0.03915756 7.49688721 -0.04535614 8.50646973 -0.05174255 C10.57412728 -0.05883302 12.64184202 -0.05568025 14.70947266 -0.04296875 C17.87053536 -0.02909804 21.02864007 -0.06319182 24.18945312 -0.10131836 C26.2011726 -0.10226955 28.21289577 -0.10041074 30.22460938 -0.09545898 C31.16743774 -0.10871719 32.11026611 -0.1219754 33.08166504 -0.13563538 C37.64613979 -0.07095206 39.74645534 0.0648174 43.51171875 2.84619141 C45.38085938 5.53344727 45.38085938 5.53344727 45.44335938 9.15844727 C44.24420905 12.96751299 43.81955221 13.68833703 40.38085938 15.53344727 C37.61820773 15.79003176 35.09010379 15.88370321 32.33398438 15.82641602 C31.56278259 15.82217117 30.79158081 15.81792633 29.99700928 15.81355286 C27.54126622 15.79680109 25.08635309 15.75915665 22.63085938 15.72094727 C20.9629025 15.70589584 19.29493273 15.69220823 17.62695312 15.67993164 C13.5446036 15.64690921 9.46287205 15.59515211 5.38085938 15.53344727 C5.38270296 16.60596835 5.38454655 17.67848944 5.386446 18.78351116 C5.43081844 44.86401079 5.46369823 70.94450552 5.48448372 97.0250349 C5.49480224 109.63730904 5.50887359 122.24955826 5.53173828 134.86181641 C5.55165451 145.85291682 5.56457162 156.8439992 5.56903636 167.83511716 C5.57164673 173.65638386 5.57779424 179.47759893 5.59231949 185.29884911 C5.60587546 190.77592106 5.61008602 196.25292003 5.60707474 201.73000717 C5.60762579 203.74199507 5.61161501 205.75398537 5.61927032 207.76595879 C5.62920044 210.50997148 5.62683527 213.25370753 5.62136841 215.99772644 C5.62719409 216.79637043 5.63301977 217.59501441 5.63902199 218.41785973 C5.61678491 222.53896334 5.37916527 225.88055199 3.38085938 229.53344727 C0.27165328 231.08805031 -3.2499709 231.2606542 -6.61914062 230.53344727 C-9.40394497 227.97015193 -9.63169947 226.40402421 -10.00225067 222.58537292 C-10.02137495 220.94081123 -10.02386581 219.29600773 -10.0135498 217.65136719 C-10.01964091 216.74422313 -10.02573201 215.83707907 -10.03200769 214.90244579 C-10.04868577 211.85614274 -10.04385502 208.81025547 -10.0390625 205.76391602 C-10.04639995 203.58264734 -10.05498523 201.40138255 -10.06472778 199.22012329 C-10.08698455 193.29049437 -10.08987244 187.36100423 -10.08798027 181.43133926 C-10.08786078 176.48569975 -10.09641595 171.54008987 -10.10475779 166.59445858 C-10.12510739 154.26326651 -10.12613639 141.93215241 -10.11895066 129.60094917 C-10.1137201 119.55524954 -10.1301023 109.5097614 -10.16113281 99.46411133 C-10.19703582 87.80018866 -10.21599533 76.13641684 -10.2115941 64.47243595 C-10.20952237 58.2973974 -10.21507158 52.12259694 -10.23948669 45.94760132 C-10.26167916 40.14284344 -10.25993838 34.33858467 -10.23955917 28.53382492 C-10.23613602 26.40047191 -10.24129394 24.26708579 -10.25554276 22.13377762 C-10.27362125 19.22710504 -10.26107128 16.32214637 -10.24060059 13.41552734 C-10.25311843 12.56611667 -10.26563628 11.71670599 -10.27853346 10.8415556 C-10.21771177 6.82908179 -10.03703422 4.9733764 -7.22254944 2.01048374 C-4.52477281 0.47990796 -3.06561743 0.02457525 0 0 Z " fill="#000000" transform="translate(205.619140625,97.466552734375)"/>
<path d="M0 0 C0.61101562 0.45503906 1.22203125 0.91007812 1.8515625 1.37890625 C2.6765625 1.98863281 3.5015625 2.59835937 4.3515625 3.2265625 C11.76956281 9.61299714 15.69378771 18.80314394 16.8515625 28.37890625 C17.27099159 39.20541953 14.50398886 49.23229587 7.6640625 57.75390625 C-0.05817378 65.79372368 -10.37129396 70.31817589 -21.4609375 70.81640625 C-33.99620473 70.40803352 -43.47221902 65.50815287 -51.8984375 56.56640625 C-59.650656 47.32746091 -60.88716271 37.10274894 -60.1484375 25.37890625 C-58.31005189 14.39533118 -52.06613188 5.84002822 -43.1484375 -0.62109375 C-29.6586065 -9.01943211 -13.28297585 -8.86506979 0 0 Z M-41.703125 18.28125 C-46.00531346 24.52523704 -45.85054164 31.03791871 -45.1484375 38.37890625 C-43.07833928 46.03950926 -37.5328105 50.42638336 -30.8984375 54.25390625 C-23.87110751 56.36210525 -17.60050723 56.39443733 -10.8359375 53.37890625 C-4.88546455 50.03945164 -1.62484048 45.53303989 1.2265625 39.44140625 C3.03142493 30.59758033 1.67035774 23.73522617 -3.2109375 16.19140625 C-7.48119403 11.55258591 -12.98239624 8.84749666 -19.18359375 7.9296875 C-29.44225257 7.55357991 -35.13900117 10.60275166 -41.703125 18.28125 Z " fill="#000000" transform="translate(285.1484375,262.62109375)"/>
<path d="M0 0 C0.74548096 0.00161133 1.49096191 0.00322266 2.2590332 0.00488281 C13.43581682 0.25241987 22.32595344 5.35314638 30.015625 13.33203125 C36.63511317 21.42079834 39.08869436 31.0879003 38.5625 41.375 C37.25575168 53.0906746 31.72600346 62.62984829 22.6171875 70.05859375 C13.34033769 76.38713299 3.62292364 77.17328593 -7.3125 76.375 C-17.48869846 73.9914972 -25.76940613 68.49328314 -32.3125 60.375 C-38.1433099 49.99156267 -39.9423802 39.97080133 -37.69921875 28.140625 C-34.41497226 16.97129333 -27.90238662 9.79608891 -18.12109375 3.75 C-12.15482452 0.82910046 -6.5375718 -0.01478253 0 0 Z M-18.3125 22.375 C-23.02471022 28.31810419 -24.0637864 33.77935861 -23.72265625 41.29296875 C-22.73756376 48.69523519 -19.25647454 53.2486956 -13.515625 57.89453125 C-7.85177773 61.70055628 -2.25190251 63.0575884 4.4921875 61.94140625 C11.71670629 60.07742898 16.50229044 56.52895299 20.6875 50.375 C24.25163789 44.07835639 24.83362769 37.99007415 23.1015625 31.015625 C20.32385274 23.62538803 14.68128748 18.37189374 7.6875 14.875 C-2.1714466 13.23184223 -11.34158822 14.55972426 -18.3125 22.375 Z " fill="#000000" transform="translate(263.3125,140.625)"/>
<path d="M0 0 C0.94487778 -0.00287018 1.88975555 -0.00574036 2.86326599 -0.00869751 C4.86466063 -0.01073831 6.8660752 -0.00520735 8.86743164 0.00732422 C11.89841681 0.02325264 14.92804296 0.007541 17.95898438 -0.01171875 C32.80980012 -0.02883311 45.768513 0.86281017 57.375 11.1796875 C65.48625029 19.72891026 68.50568781 29.78422052 68.5480957 41.32226562 C68.5546669 42.10500351 68.5612381 42.88774139 68.56800842 43.69419861 C68.58764762 46.272696 68.59937948 48.85113557 68.609375 51.4296875 C68.61345053 52.31249893 68.61752605 53.19531036 68.62172508 54.10487366 C68.64254009 58.77255008 68.65686471 63.44019744 68.66625977 68.10791016 C68.67734907 72.9266724 68.71179079 77.74497605 68.75143147 82.56357574 C68.77756315 86.27305972 68.78594824 89.98243342 68.78954124 93.69200134 C68.79441165 95.46861387 68.80603859 97.24522132 68.82457924 99.02174377 C68.8489107 101.50640518 68.84801771 103.98986547 68.84106445 106.47460938 C68.85387451 107.20618759 68.86668457 107.93776581 68.87988281 108.69151306 C68.84355602 112.25520081 68.43733947 114.29027913 66.56047058 117.35461426 C64.37109375 119.3984375 64.37109375 119.3984375 60.87109375 120.0234375 C57.37109375 119.3984375 57.37109375 119.3984375 55.1815033 117.34965515 C52.93055567 113.68029958 52.83024816 110.72663532 52.90454102 106.55395508 C52.9022348 105.77924866 52.89992859 105.00454224 52.89755249 104.20635986 C52.8949285 102.52908762 52.90134053 100.85178202 52.91580391 99.17457008 C52.93775471 96.51207368 52.93395176 93.85070969 52.92332458 91.18815613 C52.90168845 84.57273085 52.91892676 77.95755754 52.94482422 71.34216309 C52.96631148 65.75428192 52.96804504 60.16712961 52.94190788 54.57925987 C52.93758616 51.96998693 52.96211364 49.36201112 52.98744202 46.75288391 C52.99484671 38.02796318 52.79834849 30.71203254 47.37109375 23.3984375 C45.17441065 21.11283625 45.17441065 21.11283625 42.74609375 19.8359375 C41.99070312 19.38089844 41.2353125 18.92585938 40.45703125 18.45703125 C37.18427472 16.79613796 34.59558462 16.27461531 30.97900391 16.27246094 C29.65215073 16.26675079 29.65215073 16.26675079 28.29849243 16.26092529 C27.34534149 16.25989807 26.39219055 16.25887085 25.41015625 16.2578125 C23.39191577 16.23948761 21.37368628 16.2199176 19.35546875 16.19921875 C16.17331356 16.17022753 12.99186626 16.14843685 9.80957031 16.14794922 C6.73829322 16.14461605 3.66864982 16.11007764 0.59765625 16.0703125 C-0.35144623 16.0773822 -1.30054871 16.0844519 -2.27841187 16.09173584 C-6.85617226 16.00738512 -8.98871974 15.87122436 -12.76416016 13.08300781 C-14.62890625 10.3984375 -14.62890625 10.3984375 -14.69140625 6.7734375 C-13.62890625 3.3984375 -13.62890625 3.3984375 -12.16430664 1.71240234 C-8.21744783 -0.33304726 -4.38180345 -0.02932827 0 0 Z " fill="#000000" transform="translate(435.62890625,66.6015625)"/>
<path d="M0 0 C0.96590057 -0.01134979 1.93180115 -0.02269958 2.92697144 -0.03439331 C4.50661934 -0.02999741 4.50661934 -0.02999741 6.11817932 -0.0255127 C7.23239258 -0.03398224 8.34660583 -0.04245178 9.49458313 -0.05117798 C13.18246331 -0.07460174 16.8699276 -0.07556883 20.55787659 -0.07434082 C23.11851164 -0.08143898 25.67914509 -0.08913747 28.23977661 -0.09741211 C33.60896343 -0.11086924 38.97799629 -0.11260091 44.34718323 -0.10656738 C50.54923612 -0.09992608 56.75069436 -0.12279492 62.95262665 -0.15988111 C68.92418361 -0.19429113 74.89555729 -0.20091394 80.86721992 -0.1967926 C83.40578546 -0.19848794 85.94435854 -0.20816992 88.48286247 -0.22593689 C92.03105398 -0.24803757 95.57780581 -0.23846814 99.12599182 -0.2208252 C100.70260338 -0.24072006 100.70260338 -0.24072006 102.31106567 -0.26101685 C107.07334088 -0.20591385 109.43393752 -0.15164686 113.37417603 2.70629883 C115.18678284 5.39440918 115.18678284 5.39440918 115.24928284 9.01940918 C114.06902966 12.76844868 113.47359379 13.46194936 110.18678284 15.39440918 C107.91256046 15.77751923 107.91256046 15.77751923 105.37356567 15.78881836 C104.4076651 15.80016815 103.44176453 15.81151794 102.44659424 15.82321167 C100.86694633 15.81881577 100.86694633 15.81881577 99.25538635 15.81433105 C98.1411731 15.8228006 97.02695984 15.83127014 95.87898254 15.83999634 C92.19110236 15.8634201 88.50363807 15.86438719 84.81568909 15.86315918 C82.25505404 15.87025734 79.69442058 15.87795583 77.13378906 15.88623047 C71.76460225 15.8996876 66.39556939 15.90141927 61.02638245 15.89538574 C54.82432955 15.88874444 48.62287131 15.91161328 42.42093903 15.94869947 C36.44938206 15.98310948 30.47800838 15.9897323 24.50634575 15.98561096 C21.96778021 15.9873063 19.42920713 15.99698828 16.8907032 16.01475525 C13.34251169 16.03685593 9.79575986 16.0272865 6.24757385 16.00964355 C4.6709623 16.02953842 4.6709623 16.02953842 3.0625 16.04983521 C-1.69977521 15.99473221 -4.06037184 15.94046522 -8.00061035 13.08251953 C-9.81321716 10.39440918 -9.81321716 10.39440918 -9.87571716 6.76940918 C-8.2014017 1.45099535 -5.4301371 0.02416541 0 0 Z " fill="#000000" transform="translate(328.81321716308594,286.6055908203125)"/>
<path d="M0 0 C0.98424454 -0.00845947 1.96848907 -0.01691895 2.9825592 -0.02563477 C4.06109665 -0.01956207 5.13963409 -0.01348938 6.25085449 -0.00723267 C7.95603493 -0.0151181 7.95603493 -0.0151181 9.69566345 -0.02316284 C13.46354807 -0.03639602 17.23101224 -0.02761268 20.99890137 -0.01748657 C23.61059653 -0.01950634 26.22229115 -0.02241697 28.83398438 -0.02618408 C34.31169209 -0.03164307 39.78927848 -0.02444637 45.26696777 -0.01016235 C51.60125275 0.00616456 57.93524805 0.00087615 64.269526 -0.01564157 C70.36123659 -0.03089137 76.45281868 -0.02928308 82.54454041 -0.02049637 C85.13777202 -0.01849088 87.73101099 -0.0209658 90.32423401 -0.02793503 C93.94450648 -0.03552852 97.56421772 -0.02397406 101.18444824 -0.00723267 C102.80225441 -0.01634171 102.80225441 -0.01634171 104.45274353 -0.02563477 C105.43698807 -0.01717529 106.4212326 -0.00871582 107.43530273 0 C108.29143913 0.00113108 109.14757553 0.00226215 110.02965546 0.00342751 C112.72475215 0.46844763 113.57864534 1.22646916 115.21765137 3.38095093 C116.38677176 6.96625347 116.5901173 8.62053898 114.91723633 12.03582764 C110.69274165 15.70563652 106.50970628 15.07905795 101.08679199 15.02792358 C99.9514653 15.03668518 98.81613861 15.04544678 97.64640808 15.05447388 C93.88851863 15.07650462 90.13180307 15.06190055 86.37390137 15.04501343 C83.7660296 15.04838046 81.15815936 15.05323213 78.55029297 15.05950928 C73.08267466 15.068603 67.61539416 15.05662569 62.14782715 15.0328064 C55.82870173 15.00559502 49.5103829 15.01440942 43.19127703 15.04193842 C37.10964295 15.06737128 31.02836618 15.06466834 24.94670105 15.05002975 C22.3598774 15.0466899 19.77303321 15.05080305 17.18623352 15.06242752 C13.57310138 15.0751001 9.96152662 15.05580612 6.34851074 15.02792358 C5.27513962 15.03804474 4.20176849 15.04816589 3.09587097 15.05859375 C-4.12130077 14.95520169 -4.12130077 14.95520169 -7.48193359 12.03582764 C-9.15481457 8.62053898 -8.95146903 6.96625347 -7.78234863 3.38095093 C-5.44866929 0.31331756 -3.77895519 0.00499253 0 0 Z " fill="#000000" transform="translate(327.7823486328125,171.61904907226563)"/>
<path d="M0 0 C0.80224503 -0.00846954 1.60449005 -0.01693909 2.43104553 -0.02566528 C5.07463567 -0.04900497 7.71764289 -0.05005832 10.36132812 -0.04882812 C12.20308667 -0.05593061 14.044843 -0.06362974 15.88659668 -0.07189941 C19.74330806 -0.08533656 23.59981475 -0.08691602 27.45654297 -0.08105469 C32.39655682 -0.07515373 37.33558952 -0.10576979 42.27541351 -0.14617157 C46.07758874 -0.172029 49.87952692 -0.17492788 53.68177795 -0.17127991 C55.50304128 -0.17297243 57.3243154 -0.18262767 59.14549255 -0.20042419 C61.69271474 -0.22258032 64.23794045 -0.21293122 66.78515625 -0.1953125 C67.53543594 -0.20857574 68.28571564 -0.22183899 69.05873108 -0.23550415 C72.97884571 -0.17255518 74.75316739 0.31258825 77.89538574 2.73181152 C79.89257812 5.41992188 79.89257812 5.41992188 79.95507812 9.04492188 C78.75473877 12.85776454 78.32972278 13.56629498 74.89257812 15.41992188 C72.12254319 15.72036903 69.57681807 15.85047963 66.80688477 15.83984375 C65.58910591 15.85254807 65.58910591 15.85254807 64.34672546 15.86550903 C61.66523539 15.88889237 58.98431866 15.88990091 56.30273438 15.88867188 C54.43712636 15.89577257 52.57152054 15.90347143 50.70591736 15.91174316 C46.79615203 15.92519097 42.88658863 15.92675536 38.97680664 15.92089844 C33.96838768 15.91500151 28.96093782 15.94559198 23.95270634 15.98601532 C20.09991747 16.01187429 16.24736251 16.01477139 12.39449883 16.01112366 C10.54811606 16.01281655 8.70172269 16.02247532 6.85542488 16.04026794 C4.2721802 16.06242316 1.69090439 16.05277465 -0.89233398 16.03515625 C-1.65353546 16.04841949 -2.41473694 16.06168274 -3.19900513 16.0753479 C-7.14312032 16.01289565 -8.95069003 15.54047786 -12.11305237 13.10803223 C-14.10742188 10.41992188 -14.10742188 10.41992188 -14.23242188 6.79492188 C-13.10742188 3.41992188 -13.10742188 3.41992188 -11.04382324 1.73522949 C-7.32395591 0.06898254 -3.9999447 -0.01562384 0 0 Z " fill="#000000" transform="translate(333.107421875,317.580078125)"/>
<path d="M0 0 C0.83442627 -0.00365067 1.66885254 -0.00730133 2.52856445 -0.01106262 C5.29008257 -0.01917653 8.05101544 -0.00555114 10.8125 0.0090332 C12.72916666 0.00955171 14.64583386 0.00903438 16.5625 0.00752258 C20.58080985 0.00761234 24.59891923 0.01804972 28.6171875 0.03613281 C33.77238379 0.05882007 38.92728706 0.05936448 44.08251953 0.05261517 C48.04071668 0.04927642 51.99884681 0.0559035 55.95703125 0.0657444 C57.85806935 0.06959832 59.7591149 0.07074382 61.66015625 0.06915855 C64.31524909 0.06878841 66.96996385 0.08139393 69.625 0.09765625 C70.41366455 0.09517883 71.2023291 0.09270142 72.01489258 0.09014893 C75.81475112 0.12736354 77.57277661 0.21249886 80.8125 2.37231445 C81.93168935 6.3267835 82.34393676 8.40525095 80.33422852 12.06234741 C76.90182818 15.20651285 73.95885262 15.07653291 69.52734375 15.01928711 C68.69437775 15.02804871 67.86141174 15.0368103 67.00320435 15.0458374 C64.25160531 15.06783247 61.50161517 15.0532789 58.75 15.03637695 C56.83715507 15.03974507 54.92431222 15.04459765 53.01147461 15.0508728 C49.00321062 15.05824426 44.99550388 15.04752985 40.98730469 15.02416992 C35.84868517 14.99568195 30.71137128 15.01208447 25.57279968 15.04203224 C21.62306882 15.06009785 17.67364765 15.05435058 13.72390747 15.04139328 C11.82927293 15.03805723 9.93461028 15.04215335 8.04000854 15.05379105 C5.39180001 15.06648783 2.74570711 15.04714077 0.09765625 15.01928711 C-0.68584198 15.02940826 -1.46934021 15.03952942 -2.27658081 15.04995728 C-6.13366614 14.97477566 -7.84032683 14.6951739 -10.70922852 12.02719116 C-12.1875 9.37231445 -12.1875 9.37231445 -12.125 6.24731445 C-9.99911703 -0.27205999 -6.28972979 -0.06096007 0 0 Z " fill="#000000" transform="translate(331.1875,202.627685546875)"/>
<path d="M0 0 C2.4375 1.625 2.4375 1.625 4 4 C4.44736357 7.65933349 4.40299448 9.40483685 2.3125 12.4921875 C1.549375 13.27851563 0.78625 14.06484375 0 14.875 C-0.81726563 15.72835937 -1.63453125 16.58171875 -2.4765625 17.4609375 C-3.30929687 18.29882812 -4.14203125 19.13671875 -5 20 C-5.75023437 20.77601563 -6.50046875 21.55203125 -7.2734375 22.3515625 C-14.43448267 29.67233358 -14.43448267 29.67233358 -18.6875 30.5625 C-23.76603805 29.70010675 -26.47000848 26.58797906 -30 23 C-30.53496094 22.47535156 -31.06992188 21.95070312 -31.62109375 21.41015625 C-33.92638028 18.94813636 -34.96227948 17.20955846 -35.5625 13.875 C-35 11 -35 11 -33.4375 8.625 C-30.05010319 6.36673546 -27.9982841 6.43883732 -24 7 C-22.28926583 8.27630096 -20.6146587 9.60413725 -19 11 C-18.30132812 10.28972656 -17.60265625 9.57945312 -16.8828125 8.84765625 C-15.97273438 7.92855469 -15.06265625 7.00945312 -14.125 6.0625 C-13.22007812 5.14597656 -12.31515625 4.22945312 -11.3828125 3.28515625 C-7.60892792 -0.33406093 -5.20078403 -0.44834345 0 0 Z " fill="#000000" transform="translate(279,164)"/>
<path d="M0 0 C1.9375 1.625 1.9375 1.625 3 4 C3.18961004 9.30908107 1.75005081 11.67956533 -1.82421875 15.5859375 C-3.429678 17.19801447 -5.05141871 18.79400994 -6.6875 20.375 C-7.49123047 21.19355469 -8.29496094 22.01210938 -9.12304688 22.85546875 C-15.92910212 29.56691816 -15.92910212 29.56691816 -22 30 C-27.32112131 27.89955738 -33.42747229 22.14505542 -36 17 C-36.44621514 10.86454183 -36.44621514 10.86454183 -35 8.0625 C-31.80710853 6.36627641 -28.46429368 6.19420275 -25 7 C-22.2421875 9.02734375 -22.2421875 9.02734375 -20 11 C-19.24074219 10.21753906 -18.48148437 9.43507813 -17.69921875 8.62890625 C-16.69558014 7.60650804 -15.69165911 6.58438701 -14.6875 5.5625 C-14.18798828 5.04623047 -13.68847656 4.52996094 -13.17382812 3.99804688 C-8.74958367 -0.48479685 -6.17591336 -1.6726432 0 0 Z " fill="#000000" transform="translate(280,280)"/>
<path d="M0 0 C2.64764845 1.67684402 2.95477045 2.85138861 3.875 5.875 C4.02602779 9.65069465 3.35110647 11.08138508 1 14 C-1.52299916 15.91399936 -2.80758679 16.00400861 -6 15.9375 C-9.86590284 14.72940536 -11.07080563 13.54971764 -13 10 C-12.93768424 6.38568571 -12.78958699 4.02989607 -10.5625 1.125 C-6.85584732 -1.54378993 -4.40826472 -0.92805573 0 0 Z " fill="#000000" transform="translate(339,35)"/>
</svg>
