<?xml version="1.0" encoding="UTF-8"?>
<svg version="1.1" xmlns="http://www.w3.org/2000/svg" width="512" height="512">
<path d="M0 0 C0.73651291 -0.00705963 1.47302582 -0.01411926 2.2318573 -0.02139282 C48.74697132 -0.36603311 90.06291589 12.33779457 124.01171875 45.203125 C124.52992188 45.69554687 125.048125 46.18796875 125.58203125 46.6953125 C127.13058637 48.16758412 128.66687922 49.65149951 130.19921875 51.140625 C131.55080078 52.45353516 131.55080078 52.45353516 132.9296875 53.79296875 C135.01171875 56.203125 135.01171875 56.203125 136.01171875 60.203125 C132.05171875 63.503125 128.09171875 66.803125 124.01171875 70.203125 C120.64157581 67.50701065 118.45688588 65.74037252 115.88671875 62.578125 C91.87947097 34.75856748 55.47093702 20.56696357 19.55322266 17.65039062 C-18.29987215 15.09693424 -56.23295186 27.33099394 -84.98828125 52.203125 C-85.79394531 52.87601563 -86.59960938 53.54890625 -87.4296875 54.2421875 C-108.0757549 72.01266805 -121.63813391 96.1944528 -128.98828125 122.203125 C-129.50068359 123.98783203 -129.50068359 123.98783203 -130.0234375 125.80859375 C-136.59792455 153.84954548 -131.36896619 182.90789463 -120.98828125 209.203125 C-120.69469727 209.94739746 -120.40111328 210.69166992 -120.09863281 211.45849609 C-109.89938657 236.77629353 -94.63637502 259.706639 -77.98828125 281.203125 C-77.57932617 281.73679687 -77.17037109 282.27046875 -76.74902344 282.8203125 C-71.53085875 289.62627335 -66.15955122 296.27699826 -60.55078125 302.765625 C-60.07415039 303.31774658 -59.59751953 303.86986816 -59.10644531 304.4387207 C-48.98830088 316.02814286 -38.31461638 327.03901396 -27.42333984 337.8984375 C-25.22376053 340.09261002 -23.02964118 342.29214223 -20.8359375 344.4921875 C-19.41308125 345.91438356 -17.98991516 347.33626971 -16.56640625 348.7578125 C-15.92350647 349.40273651 -15.28060669 350.04766052 -14.6182251 350.71212769 C-8.56113431 356.73849025 -2.18773241 362.33689283 4.51171875 367.640625 C5.795625 368.65962891 5.795625 368.65962891 7.10546875 369.69921875 C8.0490625 370.44365234 8.0490625 370.44365234 9.01171875 371.203125 C13.76844468 369.74698441 16.82430877 366.89901003 20.32421875 363.515625 C21.40253562 362.48971722 22.48197766 361.46499089 23.5625 360.44140625 C24.08887054 359.94119965 24.61524109 359.44099304 25.15756226 358.92562866 C26.97407663 357.23809437 28.83387805 355.61895124 30.71533203 354.00439453 C35.05296195 350.2189436 39.13927391 346.22009499 43.203125 342.14453125 C43.95206528 341.3965477 44.70100555 340.64856415 45.47264099 339.87791443 C47.044431 338.30680036 48.61497724 336.73444108 50.18432617 335.16088867 C52.56773179 332.77212654 54.95642943 330.38875054 57.34570312 328.00585938 C58.88183112 326.4690705 60.41764884 324.9319714 61.953125 323.39453125 C63.00966026 322.34103233 63.00966026 322.34103233 64.08753967 321.26625061 C68.5944787 316.7382453 72.85455046 312.05294827 77.01171875 307.203125 C77.99651342 306.0734489 78.98204695 304.94441588 79.96875 303.81640625 C86.61292373 296.15824843 92.96625874 288.34384925 99.01171875 280.203125 C99.50784668 279.53829102 100.00397461 278.87345703 100.51513672 278.18847656 C108.92476327 266.87728295 116.74102393 255.27862408 124.01171875 243.203125 C124.45112793 242.47689941 124.89053711 241.75067383 125.34326172 241.00244141 C141.00791766 214.82745971 152.43027808 185.01472705 152.38671875 154.265625 C152.38584259 153.58504028 152.38496643 152.90445557 152.38406372 152.20324707 C152.28828188 129.55896215 146.98217036 108.24695342 135.19921875 88.76953125 C134.01171875 86.203125 134.01171875 86.203125 133.9453125 84.08984375 C135.62750729 81.11365296 138.11599329 80.0723642 141.07421875 78.453125 C142.17894531 77.83953125 143.28367187 77.2259375 144.421875 76.59375 C145.27652344 76.13484375 146.13117188 75.6759375 147.01171875 75.203125 C151.44329345 78.87908558 153.48184682 83.60067837 155.88671875 88.703125 C156.32508057 89.6322168 156.76344238 90.56130859 157.21508789 91.51855469 C161.48712209 100.83620553 164.53038319 110.27353026 167.01171875 120.203125 C167.35074219 121.46898438 167.68976563 122.73484375 168.0390625 124.0390625 C172.82676141 145.44029726 171.95603889 171.19609146 166.01171875 192.203125 C165.75390625 193.12641602 165.49609375 194.04970703 165.23046875 195.00097656 C153.45596848 235.87103016 129.29884241 272.97233062 102.01171875 305.203125 C101.1426802 306.24563637 100.27422027 307.28863028 99.40625 308.33203125 C93.59573494 315.28997056 87.59432026 322.03260777 81.42626953 328.67529297 C78.44768712 331.89240873 75.49652684 335.13481918 72.5390625 338.37133789 C70.72716606 340.35006632 68.9091639 342.30567985 67.01171875 344.203125 C66.71299492 346.56155031 66.71299492 346.56155031 66.77120972 349.3409729 C66.76846039 350.4291481 66.76571106 351.5173233 66.76287842 352.63847351 C66.77006897 353.83752823 66.77725952 355.03658295 66.78466797 356.27197266 C66.78422989 358.15972664 66.78422989 358.15972664 66.78378296 360.08561707 C66.78320779 363.54205672 66.79498851 366.99835831 66.80893087 370.4547658 C66.82141098 374.0649194 66.82260658 377.67507596 66.82498169 381.2852478 C66.83120448 388.1240351 66.84762606 394.96275865 66.86768067 401.80151784 C66.89001486 409.58617135 66.90102685 417.37082786 66.91107154 425.15550542 C66.93199163 441.17141596 66.96718306 457.18726235 67.01171875 473.203125 C67.77149017 472.91497925 68.5312616 472.6268335 69.3140564 472.32995605 C76.46423938 469.61889373 83.61560533 466.91098669 90.76833153 464.20664215 C94.44582887 462.81610457 98.12285169 461.42433891 101.79882812 460.02978516 C105.34442094 458.68474624 108.89120996 457.34290922 112.43886185 456.00331116 C113.79411814 455.49091641 115.1489347 454.9773571 116.50330734 454.46263123 C118.39606672 453.74351727 120.29052305 453.02887457 122.18505859 452.31445312 C123.26427582 451.9058606 124.34349304 451.49726807 125.45541382 451.07629395 C128.01171875 450.203125 128.01171875 450.203125 130.01171875 450.203125 C130.0028363 449.63571594 129.99395386 449.06830688 129.98480225 448.48370361 C129.89632081 442.57908195 129.83598144 436.67464854 129.79199219 430.76953125 C129.77187456 428.5656774 129.74457703 426.36187693 129.70996094 424.15820312 C129.66145042 420.99075144 129.63875139 417.82400532 129.62109375 414.65625 C129.60044861 413.67070129 129.57980347 412.68515259 129.55853271 411.66973877 C129.55823059 410.7490863 129.55792847 409.82843384 129.55761719 408.87988281 C129.54873474 408.0715802 129.53985229 407.26327759 129.53070068 406.43048096 C130.25969657 403.05486278 131.08687336 402.10810536 134.01171875 400.203125 C137.71122817 399.61881397 141.37637367 399.69879951 145.11425781 399.74902344 C146.2462561 399.74843933 147.37825439 399.74785522 148.54455566 399.74725342 C152.28912943 399.75004187 156.0329089 399.78117148 159.77734375 399.8125 C162.37237106 399.81995964 164.96740401 399.82565388 167.56243896 399.82965088 C173.69650191 399.843367 179.83023667 399.8748975 185.96417594 399.91504884 C193.63361455 399.96416046 201.30309962 399.98604347 208.97265625 400.0078125 C222.65256608 400.04676137 236.33185307 400.12689045 250.01171875 400.203125 C250.01171875 381.723125 250.01171875 363.243125 250.01171875 344.203125 C242.839375 344.24953125 235.66703125 344.2959375 228.27734375 344.34375 C223.73826681 344.36418393 219.19924644 344.3834394 214.66015625 344.3984375 C207.45267994 344.42236517 200.24540654 344.4506961 193.03808594 344.50488281 C187.22851078 344.5482884 181.41915317 344.57225124 175.60942841 344.58263397 C173.39099451 344.5900348 171.17257275 344.60448657 168.95423126 344.62604523 C165.85106004 344.65500834 162.74879207 344.6590839 159.64550781 344.65722656 C158.72481506 344.67160767 157.80412231 344.68598877 156.85552979 344.70080566 C150.65849729 344.66057094 150.65849729 344.66057094 147.449646 342.39105225 C145.74073118 339.79079462 145.31727374 337.73056015 145.48632812 334.62597656 C146.66479027 329.19146989 149.6147204 324.41619254 152.26171875 319.578125 C152.90486938 318.37476334 153.54661518 317.17064988 154.18701172 315.96582031 C156.10696651 312.36628799 158.05714723 308.78398083 160.01171875 305.203125 C160.55538086 304.20249023 161.09904297 303.20185547 161.65917969 302.17089844 C163.6356101 298.53421609 165.61614594 294.89991895 167.61035156 291.27294922 C171.16838985 284.79552516 174.61168576 278.2647084 178.01171875 271.703125 C181.98879263 264.02975774 186.04556954 256.4074097 190.19921875 248.828125 C193.91172295 242.04971713 197.61908592 235.26941359 201.26171875 228.453125 C201.64481201 227.74365723 202.02790527 227.03418945 202.42260742 226.30322266 C204.35829328 222.94026396 204.35829328 222.94026396 205.01171875 219.203125 C194.78171875 214.913125 184.55171875 210.623125 174.01171875 206.203125 C175.86547497 200.64185633 177.64432501 195.50157765 180.01171875 190.203125 C183.63222335 190.8208383 186.76567622 191.81076124 190.13964844 193.25341797 C191.1396991 193.67831512 192.13974976 194.10321228 193.17010498 194.54098511 C194.24705627 195.00441315 195.32400757 195.46784119 196.43359375 195.9453125 C197.5658136 196.42831818 198.69803345 196.91132385 199.86456299 197.40896606 C202.27296567 198.43740895 204.68039128 199.46814243 207.08691406 200.50097656 C210.67705546 202.04178931 214.26983892 203.57627885 217.86328125 205.109375 C223.74088661 207.61979025 229.61141175 210.1462548 235.47875977 212.68054199 C239.07698372 214.23125194 242.68006899 215.77030966 246.28320312 217.30957031 C248.57317798 218.29692018 250.86290214 219.28485177 253.15234375 220.2734375 C254.21878113 220.7260495 255.28521851 221.1786615 256.38397217 221.64498901 C257.35973206 222.06910065 258.33549194 222.49321228 259.34082031 222.93017578 C260.19790588 223.29813263 261.05499146 223.66608948 261.93804932 224.04519653 C264.01171875 225.203125 264.01171875 225.203125 266.01171875 228.203125 C266.26471841 230.36648601 266.26471841 230.36648601 266.26898766 232.93395901 C266.27543655 233.91281612 266.28188544 234.89167323 266.28852975 235.90019268 C266.28543255 236.9781912 266.28233535 238.05618972 266.27914429 239.16685486 C266.2836754 240.30999053 266.28820651 241.4531262 266.29287493 242.63090235 C266.3033675 245.8088858 266.30484097 248.98672746 266.30248618 252.1647228 C266.30207877 255.59015304 266.31310981 259.01554927 266.32260132 262.44096375 C266.33922829 269.15360251 266.34471161 275.86620616 266.34582607 282.57886379 C266.34677567 288.03356914 266.3508815 293.48826288 266.35722733 298.94296455 C266.37484371 314.3994913 266.38406548 329.85599025 266.38256638 345.31252711 C266.38244651 346.5629446 266.38244651 346.5629446 266.38232422 347.83862305 C266.38224246 348.67324944 266.3821607 349.50787583 266.38207646 350.36779393 C266.38126325 363.89938862 266.40040849 377.43087207 266.42860095 390.96243458 C266.45730362 404.8481492 266.47114272 418.73380953 266.4694134 432.61955458 C266.46874863 440.41876487 266.47427889 448.21785854 266.4957695 456.01704216 C266.51394687 462.65648013 266.51835711 469.2957486 266.50475065 475.93520062 C266.49820365 479.32410662 266.49816547 482.71268712 266.51545715 486.1015625 C266.53079129 489.77214027 266.5216791 493.44185362 266.50619507 497.1124115 C266.51648219 498.1881793 266.52676932 499.26394709 266.53736818 500.37231392 C266.47031524 507.52745858 266.47031524 507.52745858 264.2047224 510.86543655 C260.81505763 512.93306439 257.80068495 512.82733772 254.01171875 512.203125 C250.34489129 511.15239869 246.85807499 509.75235386 243.33227539 508.3034668 C242.29217819 507.88888214 241.25208099 507.47429749 240.1804657 507.04714966 C236.75563134 505.67838088 233.33892565 504.29041654 229.921875 502.90234375 C227.53399426 501.94418456 225.14559368 500.98731994 222.75669861 500.0316925 C217.11478822 497.77150455 211.47777507 495.49951096 205.8431229 493.22129899 C197.59285726 489.88620202 189.3346962 486.57075775 181.07615566 483.2562151 C175.14601659 480.87602295 169.21723108 478.49266016 163.29249573 476.0990448 C161.13518644 475.22967617 158.9778736 474.36031637 156.82055664 473.4909668 C155.85560272 473.09967087 154.8906488 472.70837494 153.89645386 472.30522156 C151.27566704 471.25080715 148.64618513 470.22279357 146.01171875 469.203125 C145.20643549 468.87565057 144.40115223 468.54817614 143.57146645 468.21077824 C138.54758641 466.30386235 135.68010016 465.90896206 130.49707031 467.93188477 C129.28554794 468.38877182 128.07402557 468.84565887 126.82579041 469.31639099 C125.51777199 469.84193312 124.20996268 470.36799593 122.90234375 470.89453125 C121.51284 471.43017856 120.12235518 471.96328685 118.73097229 472.49403381 C115.76891295 473.62987129 112.81431797 474.78273869 109.8644104 475.94976807 C105.23923549 477.77920138 100.59905177 479.56808842 95.95581055 481.35107422 C89.66610529 483.77046976 83.38269248 486.20541615 77.10498047 488.65576172 C65.15963966 493.31822625 53.20283118 497.94924445 41.2232666 502.52316284 C37.88863237 503.80339533 34.562876 505.10488765 31.23730469 506.40844727 C29.21063159 507.18725938 27.18363272 507.96522451 25.15625 508.7421875 C24.26756729 509.09716812 23.37888458 509.45214874 22.46327209 509.81788635 C11.0437152 514.13222406 2.90956769 511.93481339 -8.147892 507.44517708 C-10.35357952 506.54960916 -12.56645514 505.67443891 -14.78219604 504.80406189 C-17.12805369 503.88223295 -19.47332115 502.95912249 -21.81624794 502.02986622 C-29.56830578 498.95601526 -37.36907623 496.01862403 -45.1815567 493.10243607 C-47.50100329 492.23644823 -49.81957431 491.36815631 -52.13787842 490.49911499 C-55.23698245 489.33744224 -58.33634817 488.17647382 -61.43603516 487.01635742 C-66.17390531 485.24309915 -70.91120946 483.46833222 -75.6484375 481.69335938 C-80.1221843 480.01720833 -84.59597307 478.34117002 -89.07009888 476.66603088 C-89.74092436 476.41436378 -90.41174984 476.16269667 -91.10290337 475.90340328 C-92.42446084 475.40965112 -93.74736082 474.91947589 -95.07164192 474.4330759 C-98.49960251 473.16853205 -101.87654481 471.83678688 -105.23138428 470.38839722 C-105.93498518 470.09579986 -106.63858608 469.8032025 -107.36350822 469.50173855 C-108.69522729 468.94622589 -110.01821109 468.36902456 -111.32888985 467.76554203 C-116.12172802 465.80632655 -118.98875769 466.38129752 -123.58460999 468.18593884 C-124.77442726 468.68944599 -124.77442726 468.68944599 -125.98828125 469.203125 C-127.69772405 469.86772285 -129.40724602 470.5321171 -131.11683655 471.19633484 C-133.01133924 471.95854522 -134.90470734 472.72357986 -136.79711914 473.4909668 C-137.83896866 473.91080841 -138.88081818 474.33065002 -139.95423889 474.76321411 C-142.20205846 475.66905725 -144.44946232 476.57593249 -146.69648933 477.48373985 C-152.09774986 479.66395389 -157.5039207 481.83191494 -162.90948761 484.00142443 C-171.18860624 487.32460621 -179.46585073 490.65230595 -187.73657227 493.99633789 C-193.93410583 496.5020709 -200.13731901 498.99324024 -206.34405327 501.47611427 C-208.70350731 502.42286698 -211.06097387 503.37458875 -213.41636848 504.3313961 C-216.70889318 505.66819499 -220.00786556 506.98769316 -223.30883789 508.3034668 C-224.75930511 508.89951973 -224.75930511 508.89951973 -226.23907471 509.50761414 C-231.72683007 511.67115549 -236.08048461 513.01731064 -241.98828125 512.203125 C-244.4598999 510.75933838 -244.4598999 510.75933838 -245.98828125 508.203125 C-246.53469707 505.22806273 -246.49368065 502.32101502 -246.44238281 499.30371094 C-246.44325897 497.95684204 -246.44325897 497.95684204 -246.44415283 496.58276367 C-246.44136793 493.61728141 -246.41025659 490.65280649 -246.37890625 487.6875 C-246.37144531 485.63055979 -246.36575169 483.57361246 -246.36175537 481.5166626 C-246.34648753 476.10449578 -246.30719551 470.69275879 -246.26293945 465.28076172 C-246.22201174 459.75754613 -246.20374968 454.23426104 -246.18359375 448.7109375 C-246.14070261 437.87481122 -246.07243712 427.03900386 -245.98828125 416.203125 C-240.70828125 416.203125 -235.42828125 416.203125 -229.98828125 416.203125 C-229.98828125 440.953125 -229.98828125 465.703125 -229.98828125 491.203125 C-220.08828125 487.243125 -210.18828125 483.283125 -199.98828125 479.203125 C-199.32828125 479.203125 -198.66828125 479.203125 -197.98828125 479.203125 C-197.74369329 462.35502755 -197.59311255 445.50894835 -197.55043793 428.65919209 C-197.52849192 420.83299473 -197.47730518 413.00914921 -197.35400391 405.18383789 C-197.24644255 398.35252278 -197.19707886 391.52351333 -197.21383238 384.69133347 C-197.22074943 381.08195251 -197.2011057 377.47769782 -197.11140442 373.86931801 C-196.70530237 356.6159047 -198.15305468 344.61459178 -210.18371582 331.56510925 C-217.02952039 323.9250642 -222.9029921 315.4617317 -228.98828125 307.203125 C-229.31828125 337.893125 -229.64828125 368.583125 -229.98828125 400.203125 C-235.26828125 400.203125 -240.54828125 400.203125 -245.98828125 400.203125 C-246.05768316 377.06390918 -246.11124203 353.92471836 -246.14371777 330.78541946 C-246.15919659 320.04180614 -246.18030551 309.2982586 -246.21459961 298.5546875 C-246.24447087 289.19223956 -246.26384886 279.82983927 -246.27054673 270.467345 C-246.27446285 265.50847652 -246.28368733 260.54974435 -246.30547142 255.59091949 C-246.32580066 250.92556633 -246.33212227 246.26040592 -246.32760429 241.59501266 C-246.32843109 239.88092121 -246.33441794 238.16682345 -246.34589767 236.45277023 C-246.36078629 234.11551231 -246.35724849 231.77898567 -246.3490448 229.44171143 C-246.35181018 228.13276539 -246.35457556 226.82381935 -246.35742474 225.47520828 C-245.96449909 221.9923202 -245.45612608 220.63499618 -242.98828125 218.203125 C-240.03733826 216.76196289 -240.03733826 216.76196289 -236.38061523 215.42578125 C-235.71349014 215.17802948 -235.04636505 214.93027771 -234.35902405 214.67501831 C-232.15502924 213.85985428 -229.94492844 213.06281281 -227.734375 212.265625 C-226.19277891 211.69914731 -224.65161141 211.13150199 -223.1108551 210.56274414 C-219.04986595 209.06700978 -214.98354493 207.58634462 -210.91583252 206.10900879 C-206.00487236 204.3223953 -201.1002552 202.5184646 -196.19474125 200.71696472 C-192.37037708 199.31286571 -188.54514945 197.91130758 -184.71690369 196.51782227 C-183.3117731 196.00555123 -181.90670612 195.49310568 -180.50170898 194.98046875 C-179.83937476 194.73911697 -179.17704054 194.4977652 -178.49463558 194.24909973 C-173.91332432 192.56962024 -169.390121 190.7782277 -164.89979553 188.86938477 C-162.98828125 188.203125 -162.98828125 188.203125 -159.98828125 188.203125 C-159.12056096 190.28084971 -158.26954506 192.36555677 -157.42578125 194.453125 C-156.95011719 195.61328125 -156.47445312 196.7734375 -155.984375 197.96875 C-154.6113058 202.42718647 -154.6113058 202.42718647 -155.98828125 205.203125 C-158.24378765 206.35459511 -160.26999151 207.19641104 -162.6484375 208 C-163.3129039 208.2384967 -163.9773703 208.47699341 -164.66197205 208.72271729 C-166.7865381 209.48137834 -168.91818342 210.21738235 -171.05078125 210.953125 C-172.49205843 211.46337174 -173.93282155 211.97507304 -175.37304688 212.48828125 C-178.9057136 213.74352167 -182.44489136 214.97849912 -185.98828125 216.203125 C-184.72787832 219.59627846 -183.28997285 222.48808001 -181.2578125 225.47998047 C-180.43555176 226.69812943 -180.43555176 226.69812943 -179.59667969 227.94088745 C-179.0040332 228.80859772 -178.41138672 229.67630798 -177.80078125 230.5703125 C-176.87507324 231.93798264 -176.87507324 231.93798264 -175.93066406 233.33328247 C-173.95429445 236.25125903 -171.97148834 239.16479233 -169.98828125 242.078125 C-168.04105549 244.94792455 -166.09514222 247.81857699 -164.15286255 250.69172668 C-162.8787474 252.56577487 -161.59446387 254.4329509 -160.30001831 256.29301453 C-157.45918943 260.39708508 -154.79412365 264.40975005 -152.59814453 268.89770508 C-149.66040097 274.74909177 -149.66040097 274.74909177 -144.98828125 279.203125 C-137.86183652 281.49198095 -130.21262392 280.6162622 -122.86328125 280.140625 C-120.83748698 280.06528956 -118.81142325 279.99686467 -116.78515625 279.93554688 C-111.84615612 279.77111644 -106.92020529 279.51299908 -101.98828125 279.203125 C-102.50342285 278.50840088 -103.01856445 277.81367676 -103.54931641 277.09790039 C-107.73299614 271.40908675 -111.72696742 265.69345437 -115.36328125 259.640625 C-115.82532959 258.87379395 -116.28737793 258.10696289 -116.76342773 257.31689453 C-118.18039903 254.95068535 -119.58537485 252.57769421 -120.98828125 250.203125 C-121.41931152 249.48237793 -121.8503418 248.76163086 -122.29443359 248.01904297 C-133.39317336 229.3558945 -141.61816516 209.23723008 -146.98828125 188.203125 C-147.32730469 186.94113281 -147.66632813 185.67914063 -148.015625 184.37890625 C-152.43485166 164.56366411 -152.20155917 139.80002513 -146.98828125 120.203125 C-146.8166748 119.52121094 -146.64506836 118.83929688 -146.46826172 118.13671875 C-139.80906389 91.9045972 -126.57919665 68.80641698 -107.98828125 49.203125 C-107.14523438 48.30722656 -106.3021875 47.41132812 -105.43359375 46.48828125 C-78.6530232 18.81502502 -38.7432819 0.24859687 0 0 Z M-216.98828125 226.640625 C-218.12007812 227.06150391 -219.251875 227.48238281 -220.41796875 227.91601562 C-221.49304688 228.31884766 -222.568125 228.72167969 -223.67578125 229.13671875 C-225.16658203 229.6944397 -225.16658203 229.6944397 -226.6875 230.26342773 C-228.91359236 230.99935192 -228.91359236 230.99935192 -229.98828125 232.203125 C-233.43608945 260.72557131 -233.43608945 260.72557131 -224.97436523 286.91113281 C-222.17112754 290.12057576 -219.25666172 293.14158351 -216.15136719 296.05957031 C-212.60057124 299.5783049 -209.85253874 303.62294455 -206.98828125 307.703125 C-205.86386264 309.24676847 -204.73490627 310.7871162 -203.6015625 312.32421875 C-203.02615723 313.10522949 -202.45075195 313.88624023 -201.85791016 314.69091797 C-197.64830422 320.34733545 -193.34998304 325.93736251 -189.05273438 331.52734375 C-188.40626953 332.37039063 -187.75980469 333.2134375 -187.09375 334.08203125 C-186.51778076 334.8304126 -185.94181152 335.57879395 -185.34838867 336.34985352 C-182.99813232 339.55229401 -182.85620888 341.51802202 -182.83006287 345.4548645 C-182.82027405 346.56828217 -182.81048523 347.68169983 -182.80039978 348.82885742 C-182.79176659 350.66951782 -182.79176659 350.66951782 -182.78295898 352.54736328 C-182.77305939 353.83512665 -182.76315979 355.12289001 -182.75296021 356.44967651 C-182.72588198 359.98661539 -182.70488825 363.52356766 -182.68495822 367.06055307 C-182.66311663 370.75482031 -182.63571902 374.44904616 -182.60890198 378.14328003 C-182.55895033 385.14138594 -182.51402069 392.13951479 -182.47087961 399.13766563 C-182.42152834 407.1037304 -182.3666024 415.06975365 -182.31120002 423.03577828 C-182.19734204 439.4248556 -182.09051133 455.81397095 -181.98828125 472.203125 C-174.28137866 469.95860507 -174.28137866 469.95860507 -166.73803711 467.22607422 C-165.84108627 466.86915497 -164.94413544 466.51223572 -164.02000427 466.14450073 C-162.62564903 465.58184006 -162.62564903 465.58184006 -161.203125 465.0078125 C-159.72967369 464.41844406 -159.72967369 464.41844406 -158.22645569 463.81716919 C-156.17105761 462.99394554 -154.11649507 462.16863291 -152.06274414 461.34130859 C-148.90526825 460.06986488 -145.74485439 458.80594767 -142.58398438 457.54296875 C-140.58185551 456.74002139 -138.57989608 455.9366514 -136.578125 455.1328125 C-135.15644264 454.56407913 -135.15644264 454.56407913 -133.70603943 453.9838562 C-132.83745804 453.63324127 -131.96887665 453.28262634 -131.07397461 452.92138672 C-130.3069371 452.61288788 -129.5398996 452.30438904 -128.74961853 451.98654175 C-127.00010339 451.33451831 -127.00010339 451.33451831 -125.98828125 450.203125 C-125.87883137 447.05327712 -125.83403981 443.92455325 -125.83056641 440.77392578 C-125.82548569 439.78373444 -125.82040497 438.79354309 -125.81517029 437.77334595 C-125.80444083 435.61527527 -125.79583083 433.45719329 -125.78905106 431.2991066 C-125.7773052 427.88724104 -125.75786404 424.47550456 -125.7359314 421.06369019 C-125.67416724 411.36037466 -125.62022334 401.65707141 -125.58691406 391.95361328 C-125.56601412 386.02608107 -125.53074708 380.09878217 -125.48615646 374.1713829 C-125.47195703 371.90752782 -125.46326519 369.64363144 -125.46010208 367.37973404 C-125.45521483 364.21661076 -125.4321129 361.05411076 -125.40478516 357.89111328 C-125.40929436 356.4789856 -125.40929436 356.4789856 -125.41389465 355.03833008 C-125.39725517 353.74694626 -125.39725517 353.74694626 -125.38027954 352.42947388 C-125.37696939 351.681355 -125.37365925 350.93323612 -125.37024879 350.16244698 C-124.87636712 347.62905576 -124.03358003 346.74170108 -121.98828125 345.203125 C-119.4992121 344.89375981 -117.25420876 344.76557441 -114.76293945 344.77075195 C-113.66500565 344.75546448 -113.66500565 344.75546448 -112.54489136 344.73986816 C-110.12620446 344.70968068 -107.70791321 344.70046374 -105.2890625 344.69140625 C-103.61181821 344.67456377 -101.93458659 344.65641412 -100.25737 344.63700867 C-95.84333246 344.58945547 -91.42934623 344.55968066 -87.01513672 344.53356934 C-82.5106391 344.50379055 -78.00631835 344.45725106 -73.50195312 344.41210938 C-64.66415492 344.32601583 -55.82632037 344.25869755 -46.98828125 344.203125 C-51.55387991 338.8246228 -51.55387991 338.8246228 -56.3203125 333.625 C-56.8862915 333.02751953 -57.45227051 332.43003906 -58.03540039 331.81445312 C-58.90926392 330.8930957 -58.90926392 330.8930957 -59.80078125 329.953125 C-63.85819947 325.64075992 -67.82621192 321.31055521 -71.55078125 316.703125 C-72.22931152 315.90205322 -72.9078418 315.10098145 -73.60693359 314.27563477 C-75.40086769 311.96102942 -76.71330732 309.95187671 -78.10302734 307.42651367 C-81.68874038 301.56587751 -85.41385127 297.06903142 -92.31478882 295.39727783 C-101.44259371 294.32920851 -110.61128208 294.62321106 -119.77929688 294.94274902 C-125.75866833 295.13458505 -131.74132264 295.18593741 -137.72314262 295.25073814 C-139.80291363 295.28461828 -141.87953767 295.35116972 -143.95826721 295.42402649 C-145.84689735 295.46707161 -145.84689735 295.46707161 -147.77368164 295.51098633 C-148.88030655 295.54734695 -149.98693146 295.58370758 -151.12709045 295.62117004 C-154.73992758 295.09330289 -155.73665388 294.01756321 -157.98828125 291.203125 C-158.9773663 289.86652997 -159.92609712 288.49923596 -160.8347168 287.10668945 C-161.36068954 286.30598526 -161.88666229 285.50528107 -162.42857361 284.68031311 C-162.98839432 283.81772385 -163.54821503 282.95513458 -164.125 282.06640625 C-164.71781265 281.16180161 -165.31062531 280.25719696 -165.92140198 279.32518005 C-167.18848362 277.39098159 -168.45351391 275.45543801 -169.7166748 273.51867676 C-172.98286157 268.51204329 -176.2655363 263.5162418 -179.546875 258.51953125 C-180.19073151 257.5383432 -180.83458801 256.55715515 -181.49795532 255.54623413 C-186.68803908 247.64301053 -191.92772984 239.77586406 -197.23828125 231.953125 C-197.92752686 230.93259033 -198.61677246 229.91205566 -199.3269043 228.8605957 C-199.94218994 227.95784912 -200.55747559 227.05510254 -201.19140625 226.125 C-201.71379883 225.35768555 -202.23619141 224.59037109 -202.77441406 223.79980469 C-203.17499023 223.27290039 -203.57556641 222.74599609 -203.98828125 222.203125 C-208.11074977 222.203125 -213.16627299 225.20628363 -216.98828125 226.640625 Z M222.01171875 226.203125 C221.31163696 227.52812012 221.31163696 227.52812012 220.59741211 228.87988281 C212.58192571 244.04747853 204.56186832 259.21221025 196.44921875 274.328125 C191.26831746 283.98299296 186.10288604 293.64586576 180.95852661 303.32025146 C180.21252192 304.72298675 179.46617344 306.12553925 178.7194519 307.52789307 C177.67652897 309.48680374 176.6349536 311.44642503 175.59375 313.40625 C174.99796143 314.52676758 174.40217285 315.64728516 173.78833008 316.80175781 C171.81587375 320.57807519 169.91703536 324.39249178 168.01171875 328.203125 C195.07171875 328.203125 222.13171875 328.203125 250.01171875 328.203125 C250.01171875 298.503125 250.01171875 268.803125 250.01171875 238.203125 C243.67322371 235.03387748 237.49052191 232.03398836 230.94921875 229.390625 C230.19189453 229.07931641 229.43457031 228.76800781 228.65429688 228.44726562 C225.43052769 226.89038458 225.43052769 226.89038458 222.01171875 226.203125 Z M-109.98828125 360.203125 C-109.98828125 389.903125 -109.98828125 419.603125 -109.98828125 450.203125 C-80.91841346 461.33357214 -80.91841346 461.33357214 -51.77685547 472.27099609 C-43.45121897 475.36668608 -35.15343831 478.51433001 -26.90187073 481.80322266 C-22.80877516 483.43234264 -18.70725724 485.03964713 -14.60513306 486.64587402 C-12.62799442 487.42715406 -10.65501823 488.21906026 -8.68661499 489.02209473 C-5.93516141 490.14362761 -3.1713478 491.22735995 -0.40234375 492.3046875 C0.40332535 492.64438568 1.20899445 492.98408386 2.03907776 493.33407593 C8.50828152 495.78525567 12.70290174 494.71724999 19.01171875 492.203125 C20.87570312 491.54256104 20.87570312 491.54256104 22.77734375 490.86865234 C23.9271875 490.4298877 25.07703125 489.99112305 26.26171875 489.5390625 C27.19890747 489.18275253 27.19890747 489.18275253 28.1550293 488.81924438 C29.45277298 488.3251439 30.74989413 487.82940526 32.04638672 487.33203125 C34.0347655 486.56928421 36.02501065 485.81157879 38.015625 485.0546875 C44.09864676 482.82555695 44.09864676 482.82555695 50.01171875 480.203125 C50.01171875 440.933125 50.01171875 401.663125 50.01171875 361.203125 C45.95429827 363.90807199 43.31025181 365.67183802 40.13671875 369.015625 C36.26152131 372.97823291 32.2608348 376.64604739 28.01171875 380.203125 C27.22522949 380.8842334 27.22522949 380.8842334 26.42285156 381.57910156 C24.63577572 383.12044199 22.82631906 384.63183183 21.01171875 386.140625 C20.15779541 386.88662964 20.15779541 386.88662964 19.28662109 387.64770508 C16.2101575 390.15440446 13.9031802 391.54639967 9.87890625 391.734375 C5.74364008 391.16629803 4.20931476 390.49268685 1.13671875 387.765625 C0.29625 387.03601563 -0.54421875 386.30640625 -1.41015625 385.5546875 C-2.68632812 384.39066406 -2.68632812 384.39066406 -3.98828125 383.203125 C-5.26445312 382.07003906 -5.26445312 382.07003906 -6.56640625 380.9140625 C-8.25629509 379.40560344 -9.93870213 377.88871817 -11.61328125 376.36328125 C-14.36208079 373.86313956 -17.13500652 371.39861786 -19.98205566 369.01075745 C-21.98828125 367.203125 -21.98828125 367.203125 -23.47399902 365.36631775 C-26.61843164 361.79809073 -29.04861267 360.35437354 -33.79370117 359.59060669 C-38.61923636 359.30039781 -43.43951717 359.41428533 -48.26953125 359.51953125 C-49.84991733 359.52983767 -51.43032737 359.53697003 -53.01074219 359.54089355 C-58.83695559 359.57742729 -64.66265571 359.67515716 -70.48828125 359.765625 C-90.04078125 359.9821875 -90.04078125 359.9821875 -109.98828125 360.203125 Z M146.01171875 416.203125 C146.01171875 427.423125 146.01171875 438.643125 146.01171875 450.203125 C152.81104581 453.29372821 159.55147964 456.30854861 166.47460938 459.07543945 C167.34921814 459.42729813 168.2238269 459.7791568 169.12493896 460.14167786 C171.97154257 461.28594809 174.81964418 462.42642724 177.66796875 463.56640625 C179.6629124 464.36631435 181.65782564 465.16629831 183.65270996 465.96635437 C187.81071107 467.63312859 191.9695486 469.29779571 196.12890625 470.96118164 C201.46530534 473.0956799 206.79880599 475.23732258 212.13162994 477.38073444 C216.2393409 479.0304724 220.34891161 480.67553595 224.45903015 482.31926537 C226.42773418 483.10745586 228.39576608 483.89732729 230.3631134 484.68889809 C233.10147333 485.79009362 235.84235428 486.88475977 238.58398438 487.9777832 C239.39748352 488.30655457 240.21098267 488.63532593 241.0491333 488.97406006 C245.39598717 490.70744851 245.39598717 490.70744851 250.01171875 491.203125 C250.01171875 466.453125 250.01171875 441.703125 250.01171875 416.203125 C215.69171875 416.203125 181.37171875 416.203125 146.01171875 416.203125 Z " fill="#000000" transform="translate(245.98828125,-0.203125)"/>
<path d="M0 0 C3.04332765 1.3584202 5.12309151 2.88463024 7.453125 5.2578125 C8.071875 5.88300781 8.690625 6.50820313 9.328125 7.15234375 C9.96234375 7.80332031 10.5965625 8.45429687 11.25 9.125 C12.22453125 10.11306641 12.22453125 10.11306641 13.21875 11.12109375 C14.81711727 12.74296643 16.41061897 14.3693281 18 16 C21.04332765 14.6415798 23.12309151 13.11536976 25.453125 10.7421875 C26.071875 10.11699219 26.690625 9.49179687 27.328125 8.84765625 C28.27945313 7.87119141 28.27945313 7.87119141 29.25 6.875 C29.8996875 6.21628906 30.549375 5.55757812 31.21875 4.87890625 C32.81711727 3.25703357 34.41061897 1.6306719 36 0 C39.63303084 1.69586126 41.94549046 3.73800488 44.75 6.625 C45.94882812 7.85089844 45.94882812 7.85089844 47.171875 9.1015625 C47.77515625 9.72804688 48.3784375 10.35453125 49 11 C47.67879172 13.93230193 46.25361803 15.98664899 43.9609375 18.234375 C43.38085938 18.80800781 42.80078125 19.38164063 42.203125 19.97265625 C41.59984375 20.55917969 40.9965625 21.14570312 40.375 21.75 C39.45847656 22.65298828 39.45847656 22.65298828 38.5234375 23.57421875 C37.02011376 25.05405305 35.51065144 26.52764676 34 28 C35.6246127 29.01538294 37.2495712 30.03021558 38.87597656 31.04272461 C40.31594629 31.9459332 41.75005779 32.85853681 43.17871094 33.77954102 C46.77615542 36.08138865 50.29854144 38.20204148 54.203125 39.94140625 C66.74559902 45.84144385 70.41033798 55.52611937 75.20605469 67.91941833 C79.15066046 78.07804431 83.54789236 88.0499206 87.84881592 98.06121826 C90.37494676 103.95996867 92.87054358 109.87162297 95.37109375 115.78125 C98.71799755 123.68474913 102.11146932 131.56322607 105.59765625 139.40625 C106.57754113 141.6317954 107.55576727 143.85806064 108.53326416 146.08465576 C109.12489276 147.41962386 109.72417797 148.75123144 110.33197021 150.07891846 C114.17490224 158.47504089 115.6268908 164.74455606 115 174 C120.28 174 125.56 174 131 174 C131 179.28 131 184.56 131 190 C57.08 190 -16.84 190 -93 190 C-93 184.72 -93 179.44 -93 174 C-87.72 174 -82.44 174 -77 174 C-77.08636719 172.24719727 -77.17273438 170.49439453 -77.26171875 168.68847656 C-77.24894102 161.97156974 -75.55850845 157.04034253 -72.8125 150.984375 C-72.36670593 149.95366379 -71.92091187 148.92295258 -71.46160889 147.86100769 C-69.9945399 144.48147466 -68.4975356 141.11612909 -67 137.75 C-65.96690339 135.38579498 -64.93601595 133.02062351 -63.90722656 130.65454102 C-62.2940492 126.94842835 -60.67928408 123.24313614 -59.05303955 119.54273987 C-55.05396192 110.44278511 -51.12557359 101.31453501 -47.234375 92.16796875 C-46.68262487 90.87224299 -46.13082669 89.57653769 -45.57897949 88.28085327 C-44.49808853 85.74261952 -43.41739623 83.20430135 -42.33691406 80.66589355 C-42.07442871 80.04924332 -41.81194336 79.43259308 -41.54150391 78.79725647 C-41.01371734 77.55714322 -40.48604812 76.31698002 -39.95849609 75.07676697 C-38.22220798 70.99560639 -36.47960472 66.91718744 -34.734375 62.83984375 C-34.29784607 61.81207321 -33.86131714 60.78430267 -33.41156006 59.72538757 C-33.00471985 58.77694473 -32.59787964 57.82850189 -32.17871094 56.85131836 C-31.82838806 56.03046249 -31.47806519 55.20960663 -31.11712646 54.36387634 C-28.395365 48.60453957 -25.66950254 45.76299534 -20.14453125 42.64453125 C-19.48289474 42.25682053 -18.82125824 41.8691098 -18.13957214 41.46965027 C-16.03698455 40.23911748 -13.92570842 39.02468891 -11.8125 37.8125 C-9.68961475 36.58800769 -7.56896939 35.36012351 -5.45329285 34.12321472 C-4.13897173 33.35540976 -2.82028222 32.59502651 -1.49702454 31.84272766 C0.035507 30.95038654 1.52340284 29.98213359 3 29 C3.21586138 26.92324141 3.21586138 26.92324141 1.71484375 25.48779297 C1.12832031 24.91174316 0.54179687 24.33569336 -0.0625 23.7421875 C-0.69414062 23.11699219 -1.32578125 22.49179688 -1.9765625 21.84765625 C-2.64429688 21.19667969 -3.31203125 20.54570313 -4 19.875 C-4.66773438 19.21628906 -5.33546875 18.55757812 -6.0234375 17.87890625 C-7.67792249 16.24805676 -9.33688616 14.6220415 -11 13 C-9.30413874 9.36696916 -7.26199512 7.05450954 -4.375 4.25 C-3.55773437 3.45078125 -2.74046875 2.6515625 -1.8984375 1.828125 C-1.27195312 1.22484375 -0.64546875 0.6215625 0 0 Z M11.85546875 43.578125 C10.94526726 44.1298941 10.94526726 44.1298941 10.01667786 44.69281006 C8.73010793 45.47421135 7.44487936 46.25782475 6.16088867 47.04345703 C4.20913303 48.23677342 2.25243496 49.42162648 0.29492188 50.60546875 C-0.9560368 51.36668218 -2.20669738 52.12838573 -3.45703125 52.890625 C-4.32760918 53.41743866 -4.32760918 53.41743866 -5.21577454 53.95489502 C-6.82665433 54.94411885 -8.41400996 55.97134403 -10 57 C-10.85190918 57.51208008 -11.70381836 58.02416016 -12.58154297 58.55175781 C-16.44157359 62.45932767 -18.13004557 67.26503746 -20.23828125 72.28125 C-20.72274216 73.40454712 -21.20720306 74.52784424 -21.7063446 75.68518066 C-23.25466988 79.28472843 -24.78349352 82.89221022 -26.3125 86.5 C-27.32887136 88.86640409 -28.34643795 91.2322952 -29.36523438 93.59765625 C-35.11418516 106.98733491 -40.64895405 120.44657418 -46 134 C-39.4 134 -32.8 134 -26 134 C-21.82983246 125.83156731 -18.01054615 117.60737467 -14.453125 109.15625 C-13.955849 107.98412964 -13.458573 106.81200928 -12.94622803 105.60437012 C-11.64233273 102.5296534 -10.3415913 99.4536466 -9.04266357 96.37683105 C-7.20244013 92.01963763 -5.35691582 87.66468911 -3.51092529 83.30993652 C-2.53214179 81.00015289 -1.5549078 78.68971187 -0.57940674 76.37854004 C-0.13844666 75.33645386 0.30251343 74.29436768 0.75683594 73.22070312 C1.14289001 72.30647583 1.52894409 71.39224854 1.92669678 70.45031738 C4.68258727 64.15870636 4.68258727 64.15870636 7 63 C10.97359569 62.7312662 14.95583892 62.76842295 18.9375 62.75 C20.60329102 62.7190625 20.60329102 62.7190625 22.30273438 62.6875 C23.36685547 62.68234375 24.43097656 62.6771875 25.52734375 62.671875 C26.50437256 62.6625293 27.48140137 62.65318359 28.48803711 62.64355469 C31.53159143 63.07543235 32.06500896 63.67691318 34 66 C35.19355774 68.27864075 35.19355774 68.27864075 36.35668945 70.98364258 C36.79757401 71.99932816 37.23845856 73.01501373 37.69270325 74.06147766 C38.16149399 75.16138535 38.63028473 76.26129303 39.11328125 77.39453125 C39.6053154 78.53347336 40.09734955 79.67241547 40.60429382 80.84587097 C41.91408491 83.88133245 43.21761034 86.91933048 44.51818848 89.95874023 C45.82138133 93.00012438 47.13281434 96.03795018 48.44335938 99.07617188 C51.99015005 107.30569864 55.53386555 115.53657344 59.03271484 123.78662109 C59.31696823 124.45545822 59.60122162 125.12429535 59.89408875 125.81340027 C60.59856324 127.47319423 61.29982406 129.13435126 62.00073242 130.7956543 C62.8120849 132.92944387 62.8120849 132.92944387 64 134 C65.4887186 134.08669432 66.981445 134.10703494 68.47265625 134.09765625 C69.28226807 134.09515869 70.09187988 134.09266113 70.92602539 134.09008789 C71.96106201 134.08098389 72.99609863 134.07187988 74.0625 134.0625 C75.83520291 134.05101153 77.60790819 134.0398853 79.38061523 134.02905273 C81.69030762 134.01452637 81.69030762 134.01452637 84 134 C78.20300195 119.24592657 72.11522081 104.62579942 65.84448242 90.06689453 C64.811934 87.66282561 63.7853614 85.25618234 62.7644043 82.84716797 C61.26891761 79.31936539 59.75571673 75.79965753 58.23828125 72.28125 C57.78608719 71.20532593 57.33389313 70.12940186 56.86799622 69.02087402 C53.80317964 61.92585913 53.80317964 61.92585913 48 57 C46.97495361 56.33516602 45.94990723 55.67033203 44.89379883 54.98535156 C43.75054516 54.28329187 42.60484572 53.58520307 41.45703125 52.890625 C40.84736008 52.51895203 40.2376889 52.14727905 39.60954285 51.76434326 C38.33068928 50.98615568 37.05074914 50.20975118 35.76977539 49.43505859 C33.80446479 48.24513497 31.84449192 47.04674924 29.88476562 45.84765625 C28.63833263 45.09063223 27.3915984 44.3341039 26.14453125 43.578125 C25.55807327 43.21881897 24.9716153 42.85951294 24.36738586 42.48931885 C18.81516997 39.14914423 17.09067525 40.3706637 11.85546875 43.578125 Z M17 78 C13.32604356 85.12092291 10.04937031 92.35243668 6.9375 99.734375 C6.46856827 100.83914185 5.99963654 101.94390869 5.51649475 103.08215332 C4.00815038 106.63690323 2.50403059 110.19342306 1 113.75 C-1.06219221 118.61526699 -3.12654698 123.47961441 -5.19140625 128.34375 C-5.69515274 129.53107727 -6.19889923 130.71840454 -6.71791077 131.94171143 C-9.5847911 138.6922113 -12.47191611 145.43308822 -15.40234375 152.15625 C-15.71595856 152.87596985 -16.02957336 153.5956897 -16.35269165 154.33721924 C-17.74425027 157.52658977 -19.14163993 160.71322152 -20.54492188 163.89746094 C-21.01349609 164.96770508 -21.48207031 166.03794922 -21.96484375 167.140625 C-22.3630835 168.04329102 -22.76132324 168.94595703 -23.17163086 169.87597656 C-24.12111509 171.93057816 -24.12111509 171.93057816 -24 174 C4.38 174 32.76 174 62 174 C59.59201991 166.69680181 59.59201991 166.69680181 56.77026367 159.63671875 C56.14695915 158.20425812 56.14695915 158.20425812 55.51106262 156.74285889 C55.06784164 155.73459045 54.62462067 154.72632202 54.16796875 153.6875 C53.69916794 152.61171692 53.23036713 151.53593384 52.74736023 150.42755127 C51.2312456 146.95000993 49.70983453 143.47482257 48.1875 140 C46.0979271 135.22497491 44.01055693 130.44899655 41.92578125 125.671875 C41.41257324 124.49622986 40.89936523 123.32058472 40.37060547 122.10931396 C37.35118169 115.17077217 34.40279508 108.20887223 31.54296875 101.203125 C31.21977158 100.41675659 30.8965744 99.63038818 30.56358337 98.82019043 C29.10317767 95.2662061 27.66058933 91.70714933 26.25073242 88.1328125 C25.7529126 86.91851562 25.25509277 85.70421875 24.7421875 84.453125 C24.3282373 83.41317383 23.91428711 82.37322266 23.48779297 81.30175781 C22.20160371 78.73611379 22.20160371 78.73611379 19.40701294 78.35614014 C18.61269867 78.23861389 17.8183844 78.12108765 17 78 Z M-53 150 C-54.32 152.84625 -55.64 155.6925 -57 158.625 C-57.41765625 159.51010254 -57.8353125 160.39520508 -58.265625 161.30712891 C-58.75289062 162.38099854 -58.75289062 162.38099854 -59.25 163.4765625 C-59.58515625 164.19924316 -59.9203125 164.92192383 -60.265625 165.66650391 C-61.30019507 168.54615684 -61.30019507 168.54615684 -61 174 C-55.06 174 -49.12 174 -43 174 C-36.251806 162.49579637 -36.251806 162.49579637 -33 150 C-39.6 150 -46.2 150 -53 150 Z M71 150 C72.90028939 155.70086816 74.75812825 161.02883918 77.125 166.5 C77.64320313 167.7065625 78.16140625 168.913125 78.6953125 170.15625 C79.7295599 172.84550386 79.7295599 172.84550386 81 174 C82.34267413 174.08631874 83.68974322 174.10706473 85.03515625 174.09765625 C85.84404297 174.09443359 86.65292969 174.09121094 87.48632812 174.08789062 C88.7615332 174.07532227 88.7615332 174.07532227 90.0625 174.0625 C90.91650391 174.05798828 91.77050781 174.05347656 92.65039062 174.04882812 C94.76695663 174.03700373 96.88348685 174.01906769 99 174 C99.61484096 168.06294193 97.46554438 163.85001361 95 158.625 C93.68 155.77875 92.36 152.9325 91 150 C84.4 150 77.8 150 71 150 Z " fill="#000000" transform="translate(237,42)"/>
<path d="M0 0 C8.80288754 6.34043826 15.4186507 14.72648904 17.58203125 25.4921875 C18.92007691 37.90936834 17.85729499 48.88109459 10.39453125 59.2421875 C3.58210875 67.3274193 -4.72289951 73.55522767 -15.48876953 74.71533203 C-28.40007937 75.61089799 -39.16843729 74.04490094 -49.3515625 65.46484375 C-57.86959925 57.33325857 -62.42046403 48.68416257 -62.88867188 36.85693359 C-63.04371176 24.34263074 -60.22647828 14.71931927 -51.41796875 5.4921875 C-37.63784493 -7.66275112 -16.31305228 -10.17259803 0 0 Z M-41.97265625 21.39453125 C-46.0977477 27.38148831 -46.13405017 33.44153962 -45.41796875 40.4921875 C-43.64454442 47.13691664 -38.97130405 51.66586709 -33.41796875 55.4921875 C-27.41909871 58.43281007 -20.53513345 58.59102538 -14.10546875 56.875 C-7.97664014 54.16969675 -3.17844083 49.08355055 -0.24609375 43.1015625 C1.66008982 37.09528598 1.64641812 29.98927192 -0.91796875 24.1796875 C-4.40259013 18.23971013 -9.85252705 13.57583067 -16.41796875 11.4921875 C-27.85241972 10.13582504 -34.59614364 12.76572696 -41.97265625 21.39453125 Z " fill="#000000" transform="translate(278.41796875,261.5078125)"/>
</svg>
