<?xml version="1.0" encoding="UTF-8"?>
<svg version="1.1" xmlns="http://www.w3.org/2000/svg" width="512" height="512">
<path d="M0 0 C1.64350514 1.43744634 3.270714 2.89391002 4.875 4.375 C5.52726563 4.95894531 6.17953125 5.54289062 6.8515625 6.14453125 C15.13246228 13.93295461 21.13974683 24.11288598 25.875 34.375 C25.875 35.365 25.875 36.355 25.875 37.375 C30.82137321 32.79431197 34.71283668 27.50536906 38.75 22.125 C41.45564924 18.53963116 44.16421619 14.9564881 46.875 11.375 C47.52243164 10.51455078 48.16986328 9.65410156 48.83691406 8.76757812 C49.45018555 7.96255859 50.06345703 7.15753906 50.6953125 6.328125 C51.50766357 5.25546387 51.50766357 5.25546387 52.33642578 4.16113281 C54.7928063 1.30951747 56.51762269 0.42132669 60.25 -0.0625 C65.63208712 0.58706224 67.66909975 3.89493019 70.98828125 7.96875 C72.07689453 9.40734375 72.07689453 9.40734375 73.1875 10.875 C73.81156738 11.69653564 73.81156738 11.69653564 74.44824219 12.53466797 C75.39281423 13.77825336 76.33592048 15.02295298 77.27783203 16.26855469 C79.04088715 18.59378238 80.81467284 20.91057215 82.58984375 23.2265625 C89.7325705 32.5553195 96.78684636 41.93903681 103.72558594 51.42041016 C108.24531252 57.57375739 112.91312605 63.59974672 117.62548828 69.60620117 C122.41892479 75.73679643 127.03350055 81.98696616 131.625 88.26953125 C135.61627022 93.71298238 139.70865776 99.06461402 143.875 104.375 C149.28369738 111.27054141 154.52260436 118.27359847 159.69970703 125.34423828 C165.07480923 132.67555964 170.58825179 139.89463074 176.12841797 147.1015625 C185.10957705 158.79188307 194.01994742 170.52477294 202.72631836 182.42138672 C207.24577773 188.57442428 211.91337804 194.60006791 216.62548828 200.60620117 C221.41892479 206.73679643 226.03350055 212.98696616 230.625 219.26953125 C234.61626896 224.71298066 238.70860847 230.06465367 242.875 235.375 C248.3565112 242.36215905 253.66333481 249.46119584 258.91064453 256.62548828 C263.3228967 262.64444987 267.83617078 268.57113206 272.40527344 274.47216797 C275.57479867 278.5757028 278.72566559 282.6934615 281.875 286.8125 C282.83575439 288.06329346 282.83575439 288.06329346 283.81591797 289.33935547 C285.09647932 291.01562677 286.3612254 292.70410908 287.60913086 294.40483093 C289.8474981 297.41810866 289.8474981 297.41810866 292.42605591 300.23204041 C301.12751833 310.36267305 301.26821662 319.57674909 300.9921875 332.5078125 C300.98366866 334.5184506 300.97902806 336.52910849 300.97805786 338.5397644 C300.96580745 342.72437584 300.92078607 346.90681174 300.84912109 351.09082031 C300.75799011 356.45331541 300.72903412 361.81386678 300.72164726 367.1770649 C300.71279943 371.31559368 300.6822187 375.45371543 300.6438942 379.59206772 C300.62615398 381.57039941 300.61268223 383.5487742 300.60357285 385.52716446 C300.5855028 388.28204097 300.54076063 391.03515227 300.48779297 393.78955078 C300.48646362 394.60409225 300.48513428 395.41863373 300.48376465 396.25785828 C300.39636915 399.54754216 300.24281292 401.8486845 298.33150673 404.58363485 C294.97289597 407.0328438 292.02378314 406.92861928 288.02258301 406.87836456 C286.82208895 406.88708521 286.82208895 406.88708521 285.59734249 406.89598203 C282.89857769 406.91065335 280.20071225 406.89666387 277.50195312 406.88293457 C275.55444115 406.88754067 273.60693265 406.89389162 271.65943146 406.90184355 C266.2945545 406.91859995 260.92996077 406.91026187 255.56508255 406.89789867 C249.78449802 406.88887626 244.0039634 406.90280392 238.22338867 406.91381836 C226.89401483 406.93163826 215.56474678 406.92774815 204.23536873 406.9161678 C195.03068292 406.90714738 185.82602684 406.90590343 176.62133789 406.91026306 C175.31306424 406.91087599 174.00479058 406.91148893 172.65687227 406.91212043 C169.99943732 406.91339929 167.34200238 406.91469614 164.68456745 406.9160108 C140.45627352 406.92750327 116.22803314 406.91558499 91.99974835 406.89464041 C69.87219711 406.87565732 47.74473794 406.87735581 25.6171875 406.89648438 C0.76885292 406.91789306 -24.07943 406.92632803 -48.92777252 406.91403532 C-51.57562764 406.91276108 -54.22348276 406.91150359 -56.87133789 406.91026306 C-58.82571376 406.90933741 -58.82571376 406.90933741 -60.81957197 406.90839306 C-70.0170156 406.90493417 -79.21442665 406.91078009 -88.41186523 406.92018127 C-99.61501476 406.93138049 -110.81805212 406.92840502 -122.02118874 406.9070583 C-127.74112753 406.8965199 -133.46087909 406.89247348 -139.18081665 406.90565491 C-144.41152667 406.91752693 -149.64187496 406.91110231 -154.87255192 406.8897447 C-156.7701993 406.88525654 -158.6678769 406.88759412 -160.56550503 406.89724785 C-163.13497231 406.90932213 -165.70318261 406.89702924 -168.27258301 406.87836456 C-169.39098241 406.89241156 -169.39098241 406.89241156 -170.53197575 406.90674233 C-173.9189566 406.85719429 -175.81289754 406.60301866 -178.57982445 404.581532 C-180.92834512 401.22781209 -180.76394651 397.8234338 -180.80126953 393.86889648 C-180.83587784 392.58243729 -180.83587784 392.58243729 -180.8711853 391.26998901 C-180.93985189 388.42861553 -180.9768353 385.58811559 -181.0078125 382.74609375 C-181.02161831 381.76951372 -181.03542412 380.79293369 -181.04964828 379.78676033 C-181.12138781 374.60368335 -181.16840545 369.42104232 -181.19580078 364.23754883 C-181.22216487 359.97918244 -181.29128201 355.72504355 -181.40087891 351.46801758 C-182.46630422 309.24926659 -182.46630422 309.24926659 -171.6633606 297.55552673 C-170.46131232 296.388834 -169.23483786 295.24668962 -167.9833374 294.13320923 C-164.58736459 290.92021317 -161.92138651 287.10588581 -159.125 283.375 C-157.96132226 281.88308052 -156.79500848 280.39320991 -155.625 278.90625 C-152.03683648 274.2928969 -148.57332609 269.5933569 -145.125 264.875 C-139.99979984 257.86217031 -134.73642184 250.9779506 -129.375 244.14453125 C-125.19071915 238.79276132 -121.13335291 233.35949627 -117.125 227.875 C-111.94812854 220.79318465 -106.63796538 213.83355813 -101.22998047 206.92700195 C-97.02312954 201.54870484 -92.89979221 196.11497364 -88.81738281 190.6418457 C-83.83566759 183.96902138 -78.78510302 177.34926004 -73.73095703 170.73120117 C-69.8373295 165.63091134 -65.96464669 160.51606972 -62.125 155.375 C-63.383125 155.16746094 -64.64125 154.95992187 -65.9375 154.74609375 C-90.59856897 150.41436548 -111.85164524 139.44996241 -127.25390625 119.1484375 C-141.81588152 97.56388125 -145.9485739 73.89194007 -141.125 48.375 C-135.90001194 26.09863047 -122.05778546 6.51098642 -102.875 -5.8125 C-70.24543326 -25.01536343 -29.93065783 -23.8955933 0 0 Z M-110.28125 21.64453125 C-124.04181463 37.6014937 -127.44267663 56.89714497 -126.125 77.375 C-124.22628009 94.91023682 -114.00206835 110.72702615 -100.9375 122.125 C-84.64178078 134.87817156 -66.41554632 138.78521463 -46.125 137.375 C-27.27221286 134.90319957 -10.80135339 124.20181775 0.8125 109.5 C12.60810816 92.74807209 16.2034125 74.27273074 13.58203125 54.12304688 C10.19177508 35.0391855 -2.06132887 18.86017376 -17.4921875 7.65625 C-48.65881018 -12.37213703 -85.68551204 -4.2433741 -110.28125 21.64453125 Z M50.875 34.375 C49.85759542 35.55323797 48.88274873 36.76826231 47.92578125 37.99609375 C47.32443359 38.76759766 46.72308594 39.53910156 46.10351562 40.33398438 C45.47123047 41.15189453 44.83894531 41.96980469 44.1875 42.8125 C43.26807617 43.9871582 43.26807617 43.9871582 42.33007812 45.18554688 C40.48491067 47.56293654 38.67504698 49.96331042 36.875 52.375 C36.28976563 53.13635254 35.70453125 53.89770508 35.1015625 54.68212891 C31.32420657 59.87150714 30.09469996 63.50340454 30.25 69.875 C29.79234814 92.87500088 20.77563772 112.79395959 5.125 129.5625 C-5.20952535 139.38743337 -18.87506536 147.9025964 -33 150.625 C-39.36603716 152.23286842 -42.14868543 156.31025347 -45.81738281 161.52294922 C-47.28460106 163.60105184 -48.79134764 165.64665437 -50.3046875 167.69140625 C-52.0820509 170.09375168 -53.85659209 172.49780584 -55.62036133 174.91015625 C-59.69265535 180.47687509 -63.86603421 185.95009523 -68.125 191.375 C-72.90273875 197.46406563 -77.55818142 203.62620583 -82.125 209.875 C-87.25020016 216.88782969 -92.51357816 223.7720494 -97.875 230.60546875 C-102.05927885 235.95723612 -106.11671838 241.39045394 -110.125 246.875 C-114.69182516 253.12380318 -119.34749313 259.28574606 -124.125 265.375 C-129.60133921 272.35556643 -134.9046157 279.44689092 -140.14526367 286.60571289 C-144.20257911 292.14269437 -148.33439445 297.61072854 -152.55078125 303.02734375 C-152.92411591 303.52916672 -153.29745056 304.03098969 -153.68209839 304.54801941 C-155.125 306.375 -155.125 306.375 -157.3142395 308.73970032 C-164.59919501 317.1817799 -165.35321344 324.2027137 -165.00390625 335.078125 C-164.99063412 336.47571567 -164.98147693 337.87335148 -164.97644043 339.27099609 C-164.92971038 344.38969026 -164.8040587 349.50741974 -164.6875 354.625 C-164.501875 366.0925 -164.31625 377.56 -164.125 389.375 C-123.535 389.375 -82.945 389.375 -41.125 389.375 C-45.61001936 382.32711244 -50.11215713 375.42431574 -54.9375 368.625 C-59.34042877 362.37861413 -63.70134302 356.11091711 -67.9375 349.75 C-68.35169189 349.12899414 -68.76588379 348.50798828 -69.19262695 347.86816406 C-72.1938219 343.33839821 -73.65704632 340.90828173 -73.125 335.375 C-70.19965621 330.49477253 -66.61946968 326.19004069 -63 321.8125 C-58.10106947 315.83817775 -53.33500293 309.79102325 -48.6484375 303.6484375 C-45.38451529 299.39058497 -42.01732107 295.21601283 -38.65820312 291.03320312 C-35.26934834 286.81123679 -31.90417948 282.57190158 -28.5625 278.3125 C-28.11124756 277.73749756 -27.65999512 277.16249512 -27.19506836 276.57006836 C-24.94335634 273.6988633 -22.69517465 270.82492789 -20.44921875 267.94921875 C-15.54961222 261.68426469 -10.59357073 255.47252977 -5.5625 249.3125 C-1.6582111 244.53107379 2.19375117 239.72076852 5.9375 234.8125 C9.99780668 229.49073881 14.15052771 224.25221646 18.34179688 219.03320312 C23.10441059 213.0997548 27.80674893 207.12037371 32.49853516 201.13085938 C33.91789995 199.32027555 35.33946468 197.51143996 36.76171875 195.703125 C37.24116943 195.093479 37.72062012 194.48383301 38.21459961 193.85571289 C39.1124357 192.7141851 40.0103737 191.57273746 40.90844727 190.43139648 C41.73968278 189.37400066 42.56255545 188.3099676 43.37619686 187.23897457 C44.875 185.375 44.875 185.375 46.64228916 183.56359959 C52.74462166 176.88914798 52.84007696 171.08927737 52.66967773 162.31811523 C52.6676998 160.91779175 52.66881822 159.51746102 52.67277527 158.11714172 C52.67477257 154.34028873 52.63380461 150.56501206 52.58475757 146.78852344 C52.54080875 142.83281761 52.53687163 138.87707014 52.52857971 134.92115784 C52.50687804 127.44125911 52.44951088 119.96208201 52.37913328 112.48250014 C52.30071821 103.96260418 52.26236041 95.44267261 52.22726524 86.92250526 C52.15422238 69.40625373 52.03120688 51.89070332 51.875 34.375 C51.545 34.375 51.215 34.375 50.875 34.375 Z M67.875 34.375 C67.57022524 52.61272432 67.34154738 70.84978068 67.20144176 89.08950806 C67.13463461 97.56021661 67.0436957 106.02933577 66.89428711 114.49902344 C66.76399993 121.88832872 66.68067889 129.27648236 66.65184957 136.66690445 C66.6350158 140.57455446 66.59597437 144.47891248 66.50050926 148.38549805 C65.49412965 168.53274528 65.49412965 168.53274528 74.1418457 186.0078125 C75.80093047 187.70235383 77.49650399 189.30672623 79.27350807 190.87664795 C81.84745622 193.28482773 83.79664508 196.03249402 85.875 198.875 C89.61868174 203.78554358 93.46600949 208.59520319 97.375 213.375 C101.30112763 218.17676754 105.17682896 223.00490957 108.9375 227.9375 C112.99842779 233.26007526 117.15135829 238.49975401 121.34399414 243.71899414 C124.71442385 247.91707853 128.05593915 252.13620661 131.375 256.375 C135.17928465 261.23195647 139.01490432 266.0622843 142.875 270.875 C147.19361975 276.25939737 151.47421126 281.67168757 155.73046875 287.10546875 C159.08552366 291.38340409 162.47357041 295.63387323 165.875 299.875 C170.68145465 305.87106379 175.46547136 311.88330761 180.18359375 317.94921875 C182.01350004 320.29716232 183.88379926 322.6041303 185.78515625 324.89453125 C186.25163574 325.46864746 186.71811523 326.04276367 187.19873047 326.63427734 C188.48022505 328.21125439 189.77673162 329.77599845 191.07421875 331.33984375 C193.36697678 335.20421033 193.64199292 336.93672999 192.875 341.375 C191.20724302 344.72478808 189.10332379 347.70512705 186.9375 350.75 C186.32374512 351.64178955 185.70999023 352.5335791 185.07763672 353.45239258 C183.74306885 355.38996397 182.4016173 357.32280759 181.05419922 359.25146484 C177.55237702 364.27076949 174.09975571 369.32337243 170.65133667 374.37945557 C169.50983207 376.0481273 168.36109852 377.71162941 167.21118164 379.37451172 C166.51500732 380.38916504 165.81883301 381.40381836 165.1015625 382.44921875 C164.47846191 383.35244873 163.85536133 384.25567871 163.21337891 385.1862793 C161.70110507 387.2317972 161.70110507 387.2317972 161.875 389.375 C202.135 389.375 242.395 389.375 283.875 389.375 C284.08125 377.928125 284.2875 366.48125 284.5 354.6875 C284.63656006 349.30497925 284.63656006 349.30497925 284.77587891 343.8137207 C284.80936289 340.54212358 284.80936289 340.54212358 284.82943726 337.27043152 C284.8446009 335.83485226 284.87936959 334.39938481 284.93075562 332.96464539 C285.34736117 320.69858753 282.04491489 314.24608296 273.875 305.375 C272.5285168 303.6574642 271.19661103 301.92821452 269.890625 300.1796875 C269.27300293 299.37184814 268.65538086 298.56400879 268.01904297 297.73168945 C261.60253628 289.32439498 255.27032657 280.86425637 249.02441406 272.32958984 C244.50468748 266.17624261 239.83687395 260.15025328 235.12451172 254.14379883 C230.33107521 248.01320357 225.71649945 241.76303384 221.125 235.48046875 C217.13373104 230.03701934 213.04139153 224.68534633 208.875 219.375 C203.3934888 212.38784095 198.08666519 205.28880416 192.83935547 198.12451172 C188.42153864 192.09795912 183.90215401 186.16423144 179.32714844 180.25585938 C170.41854331 168.71720875 161.63341883 157.09328085 153.02441406 145.32958984 C148.50468748 139.17624261 143.83687395 133.15025328 139.12451172 127.14379883 C134.33107521 121.01320357 129.71649945 114.76303384 125.125 108.48046875 C121.13373104 103.03701934 117.04139153 97.68534633 112.875 92.375 C107.39575371 85.39072798 102.09079581 78.29485465 96.84594727 71.13330078 C92.79387951 65.60531431 88.6715824 60.14511782 84.46875 54.73046875 C82.42868385 52.10160963 80.41473818 49.45384131 78.40625 46.80078125 C77.81078369 46.01590332 77.21531738 45.23102539 76.60180664 44.42236328 C75.42412717 42.86915688 74.24876896 41.31418726 73.07592773 39.75732422 C72.54427002 39.05752441 72.0126123 38.35772461 71.46484375 37.63671875 C70.75122681 36.69252075 70.75122681 36.69252075 70.02319336 35.72924805 C69.64428955 35.28234619 69.26538574 34.83544434 68.875 34.375 C68.545 34.375 68.215 34.375 67.875 34.375 Z M58.875 204.375 C58.47410156 205.43259521 58.07320313 206.49019043 57.66015625 207.57983398 C50.20777932 227.23039121 42.71984626 246.86577833 35.0625 266.4375 C34.73745483 267.26840149 34.41240967 268.09930298 34.07751465 268.9553833 C33.40991483 270.66183976 32.74230199 272.36829113 32.07467651 274.07473755 C31.7393692 274.93179291 31.40406189 275.78884827 31.05859375 276.671875 C30.72095001 277.53481171 30.38330627 278.39774841 30.03543091 279.28683472 C19.28520211 306.77378737 8.65540302 334.30823089 -1.95422363 361.84970093 C-2.85709243 364.19302562 -3.76049104 366.53614625 -4.66442871 368.87905884 C-5.91728631 372.12706281 -7.16795469 375.3759008 -8.41796875 378.625 C-8.79509506 379.60164108 -9.17222137 380.57828217 -9.56077576 381.58451843 C-9.90060989 382.4692836 -10.24044403 383.35404877 -10.59057617 384.265625 C-10.88856613 385.03938477 -11.18655609 385.81314453 -11.49357605 386.61035156 C-12.18115009 388.21955427 -12.18115009 388.21955427 -12.125 389.375 C35.395 389.375 82.915 389.375 131.875 389.375 C126.99159162 375.48336643 126.99159162 375.48336643 121.80078125 361.71875 C121.43949631 360.7891748 121.07821136 359.85959961 120.70597839 358.90185547 C119.53556786 355.8919571 118.36153221 352.88348732 117.1875 349.875 C116.34867784 347.71951018 115.51014238 345.56390876 114.671875 343.40820312 C112.93550949 338.94358057 111.19792979 334.4794335 109.45947266 330.015625 C105.81181392 320.64680805 102.17925132 311.27214397 98.54638672 301.89758301 C96.58749178 296.84295634 94.62775037 291.78865793 92.66796875 286.734375 C92.08346451 285.22686676 92.08346451 285.22686676 91.4871521 283.68890381 C89.00305384 277.2826022 86.51755003 270.87684742 84.03115845 264.47143555 C82.32594551 260.07833368 80.62120842 255.68504722 78.91650391 251.29174805 C78.11481914 249.22606407 77.31290917 247.16046747 76.51074219 245.0949707 C71.24700043 231.54117282 66.03364719 217.96916007 60.875 204.375 C60.215 204.375 59.555 204.375 58.875 204.375 Z M28.875 232.375 C26.87866428 234.72542584 24.92986359 237.09573211 23 239.5 C22.41428223 240.22558105 21.82856445 240.95116211 21.22509766 241.69873047 C15.71296161 248.54225708 10.28186118 255.44820127 4.875 262.375 C-1.45294869 270.48181567 -7.8533129 278.51869248 -14.35888672 286.48388672 C-18.5190625 291.59241958 -22.53686608 296.7918633 -26.53125 302.03125 C-29.48711828 305.87387876 -32.55634045 309.62228695 -35.625 313.375 C-46.04215108 325.89868647 -46.04215108 325.89868647 -55.125 339.375 C-43.25508191 357.35319935 -43.25508191 357.35319935 -30.84765625 374.9609375 C-29.125 377.375 -29.125 377.375 -28.125 379.375 C-27.465 379.375 -26.805 379.375 -26.125 379.375 C-25.66351563 378.16593994 -25.20203125 376.95687988 -24.7265625 375.71118164 C-16.60884955 354.44996379 -8.47674759 333.19502962 -0.1875 312 C0.45274131 310.36198824 1.09295925 308.72396734 1.7331543 307.0859375 C2.71830695 304.56565196 3.70352798 302.04539319 4.68885803 299.525177 C5.75100199 296.8084891 6.81302341 294.09175333 7.875 291.375 C8.27730835 290.34590515 8.6796167 289.3168103 9.09411621 288.25653076 C11.70311657 281.58102907 14.30751813 274.90375743 16.90701294 268.22454834 C17.7515051 266.05671186 18.59740092 263.88942158 19.4447937 261.72271729 C20.62958974 258.69284871 21.80946268 255.66110457 22.98828125 252.62890625 C23.33756683 251.73896469 23.68685242 250.84902313 24.04672241 249.93211365 C26.28492768 244.15533905 28.18033926 238.33365868 29.875 232.375 C29.545 232.375 29.215 232.375 28.875 232.375 Z M89.875 232.375 C91.81270214 239.17656278 94.07019937 245.76728493 96.65625 252.34765625 C97.02196106 253.28758926 97.38767212 254.22752228 97.76446533 255.19593811 C98.96445804 258.27784337 100.16976792 261.35764037 101.375 264.4375 C102.22469766 266.61751454 103.073974 268.79769334 103.92285156 270.97802734 C105.68844116 275.51188093 107.45584119 280.04502227 109.22460938 284.57763672 C112.97521659 294.19220966 116.70702486 303.81406592 120.43734741 313.43652344 C121.61975162 316.48646212 122.80265905 319.5362053 123.9855957 322.5859375 C131.32034806 341.50090597 138.60666333 360.43442415 145.875 379.375 C146.535 379.375 147.195 379.375 147.875 379.375 C149.55181591 377.21179804 149.55181591 377.21179804 151.3125 374.375 C152.02277344 373.281875 152.73304688 372.18875 153.46484375 371.0625 C154.04468018 370.16917969 154.04468018 370.16917969 154.63623047 369.2578125 C156.82813398 365.92632652 159.10573475 362.65404902 161.375 359.375 C165.9446944 352.75354136 170.43862769 346.08676098 174.875 339.375 C172.08682243 335.08648669 169.11777024 331.0080357 165.9375 327 C165.46513916 326.40131104 164.99277832 325.80262207 164.50610352 325.18579102 C160.27232396 319.83716907 155.95920875 314.55404007 151.64501953 309.27026367 C148.3025097 305.1652965 145.02288492 301.02149797 141.8125 296.8125 C137.75157221 291.48992474 133.59864171 286.25024599 129.40600586 281.03100586 C126.03557615 276.83292147 122.69406085 272.61379339 119.375 268.375 C115.07988482 262.89139681 110.74177791 257.44384597 106.37963867 252.01342773 C103.8001225 248.79778557 101.23915613 245.56954297 98.70703125 242.31640625 C97.94616211 241.33994141 97.94616211 241.33994141 97.16992188 240.34375 C96.19846358 239.09454935 95.22961336 237.84331514 94.26367188 236.58984375 C93.1567979 235.16695643 92.01911641 233.76811735 90.875 232.375 C90.545 232.375 90.215 232.375 89.875 232.375 Z " fill="#000000" transform="translate(196.125,62.625)"/>
<path d="M0 0 C2.15312783 3.22969174 2.09894711 3.75106196 2 7.375 C2.1081621 9.80398506 2.1081621 9.80398506 3 12 C5.34348449 13.67006941 7.70909785 14.6603211 10.359375 15.7734375 C16.76442338 18.74856352 20.7210034 24.06846746 23.27734375 30.53125 C24.91773874 36.13519398 25.98999204 41.64287611 23.6875 47.125 C21.30910219 49.76766423 20.28328539 49.96792996 16.6875 50.375 C13 50 13 50 10.25 48.1875 C8.02514525 45.03562244 7.38491737 43.1148233 6.5 39.4375 C5.64501189 35.9470815 5.16715987 34.2064916 2.875 31.375 C-2.32709549 28.88704129 -6.89882372 28.26069723 -12.375 30.1875 C-16.61134253 33.11259365 -17.72540218 34.78392396 -18.875 39.875 C-19.24474023 44.01917174 -18.37532604 46.51618847 -16 50 C-12.07418065 53.83234746 -8.52936915 54.74020142 -3.25 55.4375 C5.81665053 56.90643317 12.95320262 59.55498476 18.71484375 67.08203125 C24.46791213 75.6679175 25.00262324 83.91174965 24 94 C22.38653677 100.72117229 18.24706459 106.55183058 13 111 C11.23314584 111.86513125 9.43972941 112.67790612 7.625 113.4375 C5.04208011 114.48282747 5.04208011 114.48282747 3 116 C2.20306275 118.39947413 2.12646253 120.38699666 2.10546875 122.90625 C2 125 2 125 0.4375 127.5625 C-3.07420027 129.63350272 -6.02623536 129.76543827 -10 129 C-12.5 127.625 -12.5 127.625 -14 125 C-14.31607666 121.63905152 -14.2311397 118.3643667 -14 115 C-14.825 114.95875 -15.65 114.9175 -16.5 114.875 C-23.5484415 113.11288962 -28.65605618 108.06047269 -32.7421875 102.19921875 C-36.23633636 96.08988394 -37.7466854 89.83332226 -36.5625 82.8515625 C-36 81 -36 81 -34.4375 78.9375 C-30.88409045 77.57080402 -27.75157093 77.33614177 -24 78 C-21.24344037 79.66844399 -20.27653671 80.99167568 -19.42578125 84.09375 C-19.09834381 85.66544973 -18.78336489 87.23979303 -18.48046875 88.81640625 C-17.52485943 93.15937871 -15.92957051 95.35146243 -12.3125 97.875 C-8.17921734 99.27875637 -5.14468782 99.40150269 -1 98 C2.59049221 95.19004958 5.07694908 92.51269338 6 88 C5.73204162 83.26318734 4.69634756 79.91519965 1.8125 76.125 C-2.04188392 73.33128193 -6.6545136 73.00523704 -11.24658203 72.22192383 C-20.1915549 70.58725921 -26.49484283 66.60575829 -31.74609375 59.22265625 C-34.94924454 53.54479705 -36.53725052 48.64726991 -36.4375 42.125 C-36.42920166 41.42246094 -36.42090332 40.71992187 -36.41235352 39.99609375 C-36.12488883 31.14095368 -32.93435254 25.24176184 -27.078125 18.76171875 C-24.72139211 16.76381173 -22.46755101 15.75231064 -19.625 14.5625 C-17.04208011 13.51717253 -17.04208011 13.51717253 -15 12 C-14.20046386 9.59270096 -14.125 7.61762787 -14.125 5.08984375 C-14 3 -14 3 -12.125 0.5 C-7.64765821 -2.66047656 -4.95841168 -1.80305879 0 0 Z " fill="#000000" transform="translate(146,66)"/>
</svg>
