<?xml version="1.0" standalone="no"?>
<!DOCTYPE svg PUBLIC "-//W3C//DTD SVG 20010904//EN"
 "http://www.w3.org/TR/2001/REC-SVG-20010904/DTD/svg10.dtd">
<svg version="1.0" xmlns="http://www.w3.org/2000/svg"
 width="512.000000pt" height="512.000000pt" viewBox="0 0 512.000000 512.000000"
 preserveAspectRatio="xMidYMid meet">

<g transform="translate(0.000000,512.000000) scale(0.100000,-0.100000)"
fill="#000000" stroke="none">
<path d="M2163 5106 c-88 -28 -157 -90 -197 -175 -19 -42 -21 -69 -26 -290
l-5 -243 -40 -16 c-22 -8 -76 -30 -119 -49 l-79 -34 -166 165 c-104 103 -181
171 -204 181 -112 47 -221 38 -316 -26 -31 -20 -158 -141 -284 -267 -261 -264
-281 -294 -282 -417 0 -122 15 -147 206 -340 l169 -171 -49 -119 -50 -120
-243 -5 c-241 -5 -244 -5 -300 -33 -65 -32 -121 -89 -152 -156 -20 -44 -21
-59 -21 -431 l0 -385 28 -57 c32 -65 89 -121 156 -152 42 -19 68 -21 289 -26
l243 -5 50 -120 49 -119 -169 -171 c-191 -193 -206 -218 -206 -340 1 -126 20
-153 303 -436 145 -145 264 -255 287 -267 89 -44 196 -47 292 -7 23 10 100 78
203 180 l166 165 119 -49 120 -50 5 -243 c5 -221 7 -247 26 -289 31 -67 87
-124 152 -156 l57 -28 385 0 385 0 57 28 c65 32 121 89 152 156 19 42 21 68
26 289 l5 243 119 50 120 49 170 -169 c152 -149 177 -170 226 -186 66 -22 159
-23 219 -1 70 26 124 72 359 309 256 259 276 289 277 412 0 122 -15 147 -206
340 l-169 171 49 119 50 120 243 5 c241 5 244 5 300 33 65 32 121 89 152 156
20 44 21 59 21 431 0 372 -1 387 -21 431 -31 67 -87 124 -152 156 -56 28 -59
28 -300 33 l-243 5 -50 120 -49 119 169 171 c191 193 206 218 206 340 -1 123
-21 153 -277 412 -235 237 -289 283 -359 309 -60 22 -153 21 -219 -1 -49 -16
-74 -37 -226 -186 l-170 -169 -120 49 -119 50 -5 243 c-5 241 -5 244 -33 300
-32 65 -89 121 -156 152 -44 20 -61 21 -416 23 -285 2 -380 -1 -412 -11z m746
-220 c48 -25 51 -46 51 -332 0 -284 4 -307 52 -332 12 -6 64 -26 113 -43 50
-17 138 -53 197 -81 86 -41 113 -49 140 -44 26 5 72 45 218 192 102 102 199
192 217 200 24 10 39 11 60 3 32 -12 467 -440 489 -482 27 -50 7 -79 -187
-272 -177 -177 -209 -215 -209 -253 0 -10 22 -66 49 -123 27 -57 63 -144 80
-194 17 -49 37 -101 43 -113 25 -48 48 -52 332 -52 286 0 307 -3 332 -51 19
-37 21 -653 2 -694 -23 -52 -44 -55 -333 -55 -286 0 -308 -3 -333 -52 -6 -12
-26 -63 -43 -113 -17 -49 -53 -137 -81 -195 -39 -84 -48 -112 -44 -140 4 -28
38 -67 195 -225 105 -104 195 -202 200 -217 7 -19 7 -37 0 -55 -13 -37 -445
-471 -486 -489 -24 -10 -39 -11 -60 -3 -15 5 -114 95 -218 200 -158 157 -197
191 -225 195 -28 4 -57 -5 -150 -49 -63 -30 -146 -65 -185 -77 -172 -55 -165
-38 -165 -374 0 -286 -3 -307 -51 -332 -41 -21 -657 -21 -698 0 -48 25 -51 46
-51 332 0 284 -4 307 -52 332 -12 6 -63 26 -113 43 -49 17 -137 53 -194 80
-57 27 -113 49 -123 49 -38 0 -76 -32 -248 -205 -96 -98 -190 -183 -208 -191
-27 -12 -37 -12 -65 0 -41 18 -473 451 -486 489 -8 21 -7 36 3 60 8 18 93 111
191 207 174 172 205 210 205 248 0 11 -22 66 -49 123 -27 57 -63 145 -80 194
-17 50 -37 101 -43 113 -25 49 -47 52 -333 52 -289 0 -310 3 -333 55 -17 37
-17 653 0 690 23 52 44 55 333 55 286 0 308 3 333 52 6 12 26 64 43 113 17 50
53 137 80 194 27 57 49 113 49 123 0 38 -32 76 -209 253 -194 193 -214 222
-187 272 21 40 456 470 486 481 50 18 80 -3 275 -198 158 -158 197 -192 225
-196 28 -4 56 5 140 44 58 28 146 64 195 81 50 17 101 37 113 43 48 25 52 47
52 335 1 286 3 303 51 329 36 20 659 20 698 0z"/>
<path d="M2445 3480 c-322 -45 -588 -241 -725 -533 -60 -127 -83 -237 -83
-387 0 -94 5 -147 21 -214 83 -338 350 -605 688 -688 124 -30 304 -30 428 0
336 83 595 337 683 671 35 132 37 315 5 445 -101 405 -445 690 -861 710 -53 3
-123 1 -156 -4z m351 -257 c202 -76 349 -223 427 -425 31 -80 32 -88 32 -238
0 -150 -1 -158 -32 -238 -79 -207 -233 -356 -442 -430 -69 -25 -89 -27 -221
-27 -134 0 -151 2 -225 28 -206 73 -359 223 -438 429 -31 80 -32 88 -32 238 0
149 2 158 32 236 87 229 256 382 498 450 35 10 91 13 185 11 121 -3 143 -7
216 -34z"/>
</g>
</svg>
