<?xml version="1.0" encoding="UTF-8"?>
<svg version="1.1" xmlns="http://www.w3.org/2000/svg" width="512" height="512">
<path d="M0 0 C1.18814707 -0.00679667 1.18814707 -0.00679667 2.40029711 -0.01373065 C5.0516278 -0.02637962 7.70275321 -0.02475393 10.35411072 -0.02310181 C12.25653853 -0.02908696 14.15896392 -0.03589247 16.06138611 -0.04345703 C21.2290993 -0.06113082 26.39674625 -0.06581314 31.56448674 -0.0670886 C34.79604419 -0.06851058 38.02758483 -0.07278119 41.25913811 -0.07808304 C52.54194583 -0.09659159 63.82470629 -0.10475308 75.10752869 -0.10317993 C85.60878459 -0.10198001 96.10983446 -0.12305089 106.61103827 -0.15466726 C115.63716407 -0.18086964 124.66322279 -0.19154548 133.68938631 -0.19026911 C139.07545901 -0.18976042 144.46134883 -0.19539178 149.8473835 -0.21662521 C154.91917536 -0.23607296 159.99061123 -0.23608745 165.06241608 -0.22159195 C166.91666373 -0.21951048 168.77093403 -0.22416498 170.62514305 -0.23631287 C187.23018533 -0.33799131 202.67167537 2.79582847 215.38902283 14.44320679 C221.02970193 20.54088536 225.95483232 27.54614274 229.07652283 35.26742554 C229.37429626 35.98930054 229.6720697 36.71117554 229.97886658 37.45492554 C232.56104475 44.68978419 233.21099756 52.67448444 232.07652283 60.26742554 C229.88038099 63.22004925 228.73011935 64.16929109 225.05210876 64.7215271 C223.90000916 64.70057983 222.74790955 64.67963257 221.56089783 64.65805054 C220.3105072 64.64515991 219.06011658 64.63226929 217.77183533 64.61898804 C216.4698822 64.58547241 215.16792908 64.55195679 213.82652283 64.51742554 C212.50910095 64.49937866 211.19167908 64.48133179 209.83433533 64.46273804 C206.58142127 64.41559436 203.32888066 64.3438517 200.07652283 64.26742554 C200.07652283 69.54742554 200.07652283 74.82742554 200.07652283 80.26742554 C202.04397713 80.25410187 202.04397713 80.25410187 204.05117798 80.24050903 C216.45279038 80.15918513 228.85434819 80.09934607 241.25616741 80.06017685 C247.63105123 80.03936214 254.00571861 80.01115635 260.38047791 79.96566772 C266.54022136 79.92199183 272.6997575 79.8982425 278.85964394 79.88791656 C281.20181857 79.88056413 283.54398272 79.8662072 285.88606834 79.84450531 C304.86892022 79.67571202 322.47984162 81.16158575 337.00328064 95.05331421 C345.80755026 104.4558014 351.10941679 115.9124581 356.33604431 127.5262146 C357.5242613 130.1651645 358.7314159 132.79480936 359.9417572 135.42367554 C360.71564593 137.11848515 361.48847156 138.81378069 362.26011658 140.50961304 C362.61528854 141.28577972 362.97046051 142.06194641 363.33639526 142.8616333 C367.03561611 151.10870951 369.56834322 158.37429195 366.35777283 167.25570679 C364.0513107 171.89845599 360.76179935 174.3495818 356.07652283 176.26742554 C353.22259256 176.62133907 350.77597527 176.77798344 347.93809509 176.7215271 C346.76613335 176.72240326 346.76613335 176.72240326 345.57049561 176.72329712 C343.01084067 176.72053013 340.45237831 176.68950563 337.89292908 176.65805054 C336.10932043 176.65058318 334.32570355 176.64489258 332.54208374 176.64089966 C327.86479237 176.62568224 323.18800379 176.58643437 318.51091003 176.54208374 C313.73141785 176.50104672 308.95184382 176.48287069 304.17222595 176.46273804 C294.80677158 176.41993602 285.44168914 176.35173225 276.07652283 176.26742554 C276.3020282 177.01022766 276.52753357 177.75302979 276.75987244 178.51834106 C278.88451578 185.52032296 281.00385094 192.52387894 283.11724854 199.52926254 C284.20394153 203.13070206 285.29267327 206.73149866 286.38609314 210.3309021 C287.44131094 213.80481993 288.49113524 217.28032572 289.5372467 220.75699615 C289.93721531 222.0828366 290.33912082 223.40809434 290.74299622 224.73274994 C291.30852145 226.58878148 291.86651613 228.4471025 292.42417908 230.30551147 C292.74394714 231.36252258 293.06371521 232.41953369 293.39317322 233.50857544 C294.07652283 236.26742554 294.07652283 236.26742554 294.07652283 240.26742554 C294.98723541 240.36503174 295.897948 240.46263794 296.83625793 240.5632019 C319.11719598 242.95419001 341.39648867 245.36159388 363.66020584 247.90864563 C367.89973025 248.3934435 372.13974156 248.8726701 376.38121033 249.34017944 C380.60741963 249.80616875 384.83192483 250.28548656 389.05558395 250.77403259 C390.63129842 250.95406738 392.2075405 251.12955542 393.78432083 251.30000305 C406.2371817 252.65093582 418.48196111 254.21340995 427.07652283 264.26742554 C430.91717671 270.34101772 432.22739174 275.78302245 432.25352478 282.9324646 C432.26009598 283.71169785 432.26666718 284.49093109 432.2734375 285.29377747 C432.29315342 287.87353616 432.30482984 290.45323665 432.31480408 293.03305054 C432.3188796 293.91519981 432.32295513 294.79734909 432.32715416 295.70623016 C432.34800853 300.37620306 432.36231247 305.04614663 432.37168884 309.71615601 C432.38274653 314.53253833 432.41714073 319.34845781 432.45686054 324.16467667 C432.48304388 327.87424562 432.49138224 331.58370462 432.49497032 335.29335785 C432.49983255 337.06831739 432.51143619 338.84327214 432.53000832 340.61814117 C432.55443483 343.10739999 432.55342861 345.59546563 432.54649353 348.08480835 C432.56570862 349.17610298 432.56570862 349.17610298 432.58531189 350.28944397 C432.52957224 355.80281839 431.09745506 358.81988849 428.07652283 363.26742554 C424.08898824 366.9631893 421.10243124 368.3964396 415.69688416 368.38095093 C414.81619766 368.3808754 413.93551117 368.38079987 413.02813721 368.38072205 C411.60769356 368.37298012 411.60769356 368.37298012 410.15855408 368.36508179 C409.18617294 368.36366684 408.21379181 368.36225189 407.21194458 368.36079407 C404.10427279 368.3551937 400.99667287 368.34264116 397.88902283 368.32992554 C395.78290408 368.32491058 393.6767842 368.32034767 391.57066345 368.31625366 C386.40592219 368.30522416 381.2412347 368.28795929 376.07652283 368.26742554 C375.87688683 369.19471214 375.87688683 369.19471214 375.67321777 370.14073181 C375.49636948 370.95154709 375.31952118 371.76236237 375.13731384 372.5977478 C374.96297318 373.40156387 374.78863251 374.20537994 374.60900879 375.03355408 C371.799339 386.82060877 362.6387896 396.3797899 352.70542908 402.79476929 C340.94747301 409.3813212 327.58395638 410.0101113 314.47496033 407.60726929 C302.43807752 404.01486628 291.6201071 395.39655432 285.20933533 384.59164429 C282.84733169 379.74546441 280.07652283 373.72752224 280.07652283 368.26742554 C216.71652283 368.26742554 153.35652283 368.26742554 88.07652283 368.26742554 C87.41652283 371.23742554 86.75652283 374.20742554 86.07652283 377.26742554 C81.51174018 390.00848555 71.35827616 399.56374001 59.47886658 405.58383179 C47.83720945 410.2830661 32.33066111 410.26159024 20.68199158 405.59555054 C7.78301314 399.02035913 -1.54596436 389.61809242 -6.23597717 375.89242554 C-7.92347717 370.62315676 -7.92347717 370.62315676 -7.92347717 368.26742554 C-8.73502258 368.2883728 -9.54656799 368.30932007 -10.38270569 368.3309021 C-14.0836686 368.41439637 -17.78443283 368.46619309 -21.48597717 368.51742554 C-22.76279358 368.55094116 -24.03960999 368.58445679 -25.3551178 368.61898804 C-32.42692032 368.69246131 -37.25725364 368.69239953 -42.92347717 364.26742554 C-46.65156067 360.24501966 -48.0454806 357.23936795 -48.05769825 351.7948494 C-48.06215609 350.87357671 -48.06661394 349.95230402 -48.07120687 349.00311399 C-48.07102251 347.989417 -48.07083814 346.97572001 -48.07064819 345.93130493 C-48.07432488 344.85562279 -48.07800157 343.77994066 -48.08178967 342.67166209 C-48.09284734 339.04895608 -48.09667387 335.42627873 -48.10047913 331.80355835 C-48.10674215 329.21352039 -48.1133888 326.62348333 -48.12039185 324.03344727 C-48.14015302 316.24817219 -48.15022177 308.46289582 -48.15911964 300.67760193 C-48.16350288 297.01150498 -48.16886958 293.34540947 -48.17410851 289.67931366 C-48.19112002 277.492792 -48.20561446 265.30627124 -48.21285725 253.11973953 C-48.21476714 249.95737965 -48.21668748 246.79501977 -48.21864319 243.63265991 C-48.21912693 242.84667029 -48.21961067 242.06068067 -48.22010907 241.25087318 C-48.22841042 228.51669077 -48.25374943 215.78260227 -48.28622387 203.04846087 C-48.31929135 189.97521674 -48.3373057 176.90202034 -48.34050149 163.82873416 C-48.34266682 156.4882848 -48.35141879 149.14797239 -48.37696266 141.80756378 C-48.40093413 134.90306349 -48.40449729 127.99881353 -48.39420128 121.09428024 C-48.39370457 118.55904445 -48.40006457 116.02379673 -48.41375732 113.48859787 C-48.43139715 110.02926114 -48.42440809 106.57081741 -48.41122437 103.11148071 C-48.42219361 102.10670661 -48.43316286 101.10193251 -48.4444645 100.06671071 C-48.38786174 93.92084665 -47.52642891 90.29319055 -43.92347717 85.26742554 C-38.72285265 80.44733452 -34.60216134 80.12399364 -27.75550842 80.16976929 C-26.56328926 80.17189171 -26.56328926 80.17189171 -25.34698486 80.17405701 C-22.80994392 80.17965176 -20.27299142 80.19220326 -17.73597717 80.20492554 C-16.01527532 80.20994122 -14.29457209 80.21450401 -12.5738678 80.21859741 C-8.35700948 80.22876832 -4.14034227 80.2483447 0.07652283 80.26742554 C0.07652283 74.98742554 0.07652283 69.70742554 0.07652283 64.26742554 C-1.32082092 64.31383179 -2.71816467 64.36023804 -4.15785217 64.40805054 C-5.99637246 64.44557136 -7.83491587 64.48197119 -9.67347717 64.51742554 C-10.5938678 64.55094116 -11.51425842 64.58445679 -12.46253967 64.61898804 C-13.3519928 64.63187866 -14.24144592 64.64476929 -15.15785217 64.65805054 C-15.97479553 64.6789978 -16.79173889 64.69994507 -17.63343811 64.7215271 C-21.00374194 64.05321525 -21.99955625 63.13219468 -23.92347717 60.26742554 C-24.5152489 57.02248966 -24.48379611 53.82413106 -24.45472717 50.53305054 C-24.45855408 49.58105774 -24.46238098 48.62906494 -24.46632385 47.64822388 C-24.46904418 45.63423608 -24.46167458 43.62021302 -24.44496155 41.60629272 C-24.42364811 38.54200113 -24.44471019 35.48007945 -24.47035217 32.41586304 C-24.46770707 30.4549204 -24.46257833 28.49397924 -24.45472717 26.53305054 C-24.4628241 25.62444275 -24.47092102 24.71583496 -24.47926331 23.7796936 C-24.37863633 16.85716851 -22.74577496 11.53800776 -18.17738342 6.24398804 C-17.61921936 5.79797241 -17.0610553 5.35195679 -16.48597717 4.89242554 C-15.93039124 4.43094116 -15.3748053 3.96945679 -14.80238342 3.49398804 C-10.01459843 0.36849014 -5.60120405 -0.02357122 0 0 Z M-5.92347717 19.26742554 C-10.25681051 27.9340922 -7.92347717 38.57779763 -7.92347717 48.26742554 C65.33652283 48.26742554 138.59652283 48.26742554 214.07652283 48.26742554 C212.54191912 37.52519957 207.87218848 31.1313673 199.64292908 24.17758179 C187.7230139 15.30568145 172.75672393 15.96904254 158.54551697 15.99276733 C156.80803714 15.98841172 155.07055922 15.98322576 153.33308411 15.97727966 C148.64970211 15.96397909 143.96640123 15.96330026 139.28300405 15.96584296 C135.36598934 15.96691741 131.44899073 15.96201796 127.5319795 15.95723754 C118.2957569 15.94617631 109.059575 15.94568778 99.823349 15.95175171 C90.29942846 15.95780811 80.77565504 15.94543061 71.25175959 15.92418164 C63.06041494 15.90657888 54.86911721 15.90056164 46.67775434 15.90381938 C41.79115151 15.90563232 36.90465398 15.90299371 32.01806831 15.88910484 C27.43049947 15.87655043 22.84316137 15.87844785 18.25559616 15.89151573 C16.57256302 15.89388515 14.88951373 15.89113376 13.2064991 15.88289261 C10.90961382 15.87245554 8.61350749 15.88050026 6.31665039 15.89320374 C5.03158631 15.89303599 3.74652224 15.89286825 2.42251682 15.89269543 C-1.22036276 16.30067484 -3.0675095 16.99761486 -5.92347717 19.26742554 Z M16.07652283 64.26742554 C16.07652283 69.54742554 16.07652283 74.82742554 16.07652283 80.26742554 C71.51652283 80.26742554 126.95652283 80.26742554 184.07652283 80.26742554 C184.07652283 74.98742554 184.07652283 69.70742554 184.07652283 64.26742554 C128.63652283 64.26742554 73.19652283 64.26742554 16.07652283 64.26742554 Z M-31.92347717 98.26742554 C-32.22550943 100.19847508 -32.22550943 100.19847508 -32.17515945 102.44351196 C-32.18037495 103.32407635 -32.18559044 104.20464073 -32.19096398 105.11188889 C-32.18650254 106.08521793 -32.1820411 107.05854698 -32.17744446 108.06137085 C-32.18056444 109.09072376 -32.18368442 110.12007668 -32.18689895 111.1806221 C-32.19491778 114.65232205 -32.18854019 118.12384909 -32.18226624 121.59555054 C-32.18497437 124.0753286 -32.1885343 126.55510587 -32.19288635 129.03488159 C-32.20108241 135.08459082 -32.1998509 141.13423143 -32.19406107 147.18393803 C-32.18955117 152.09901907 -32.18892876 157.01408619 -32.1911087 161.9291687 C-32.19141517 162.62771131 -32.19172164 163.32625391 -32.19203739 164.04596448 C-32.19267682 165.46487395 -32.19332524 166.88378342 -32.19398257 168.30269289 C-32.19969078 181.61953324 -32.19312029 194.93634609 -32.18238184 208.25318193 C-32.17344588 219.68893316 -32.17499778 231.12464379 -32.18421936 242.56039429 C-32.19491334 255.8283645 -32.19914141 269.09631059 -32.19299483 282.36428452 C-32.19235771 283.7780838 -32.19172897 285.19188308 -32.1911087 286.60568237 C-32.19080015 287.30136676 -32.1904916 287.99705115 -32.1901737 288.71381688 C-32.18844414 293.62512492 -32.19136748 298.53641771 -32.19606781 303.44772339 C-32.20225052 310.05338279 -32.19787235 316.65897713 -32.1862793 323.26463318 C-32.18362454 325.69552991 -32.18441159 328.12643306 -32.18880463 330.55732727 C-32.19422945 333.86280044 -32.18746334 337.16802323 -32.17744446 340.47348022 C-32.1819059 341.44680927 -32.18636734 342.42013832 -32.19096398 343.42296219 C-32.18574849 344.30352657 -32.18053299 345.18409096 -32.17515945 346.09133911 C-32.17483475 346.85501171 -32.17451005 347.61868431 -32.1741755 348.4054985 C-32.08198308 350.5132039 -32.08198308 350.5132039 -29.92347717 352.26742554 C-27.59530513 352.5450797 -27.59530513 352.5450797 -24.91566467 352.46273804 C-23.92953186 352.45629272 -22.94339905 352.44984741 -21.92738342 352.44320679 C-20.89484436 352.42644897 -19.8623053 352.40969116 -18.79847717 352.39242554 C-17.23806702 352.37889038 -17.23806702 352.37889038 -15.64613342 352.36508179 C-13.07168625 352.34146301 -10.49769505 352.30852703 -7.92347717 352.26742554 C-7.57156311 351.2168396 -7.21964905 350.16625366 -6.85707092 349.08383179 C-1.66151717 334.09885492 5.90236136 323.42055251 20.48667908 316.31039429 C32.3252007 311.54284485 47.54914485 311.143193 59.47496033 315.94711304 C73.03327489 322.82805947 80.39680574 332.34781586 86.07652283 346.26742554 C86.40652283 346.26742554 86.73652283 346.26742554 87.07652283 346.26742554 C87.07983297 345.51443585 87.08314312 344.76144617 87.08655357 343.98563862 C87.16776402 325.66610117 87.25985008 307.34664796 87.36404991 289.02722645 C87.41417768 280.1681014 87.4606206 271.30898562 87.49839783 262.44979858 C87.53133271 254.72838616 87.57117224 247.00704557 87.61931288 239.28571242 C87.64456298 235.19710359 87.66634867 231.10854233 87.67986679 227.01987648 C87.69270066 223.17115864 87.71476935 219.32260402 87.74390602 215.47397614 C87.75297143 214.06188154 87.75866962 212.64976066 87.76073647 211.23763847 C87.76406614 209.30818397 87.78073252 207.37876626 87.79804993 205.4493866 C87.80634606 203.83025722 87.80634606 203.83025722 87.8148098 202.17841816 C88.08714027 199.1493294 88.69993469 196.97205134 90.07652283 194.26742554 C93.29263122 192.65937134 96.80057907 193.11116345 100.33409119 193.10629272 C101.18787857 193.10132782 102.04166595 193.09636292 102.92132568 193.09124756 C105.75301409 193.07661113 108.58464651 193.06982203 111.41636658 193.06430054 C113.379303 193.05855099 115.3422394 193.05279324 117.30517578 193.04702759 C121.42354088 193.03651385 125.54188643 193.0306734 129.66026306 193.02719116 C134.94443037 193.02170091 140.22834072 192.9976631 145.51242733 192.96921921 C149.56754316 192.95062259 153.62259667 192.94538885 157.67775154 192.94385529 C159.626256 192.94082227 161.5747592 192.93277203 163.52322197 192.9196701 C166.24553539 192.90266915 168.96721539 192.90447499 171.68955994 192.91098022 C172.49849701 192.90176544 173.30743408 192.89255066 174.1408844 192.88305664 C179.55788767 192.92373207 179.55788767 192.92373207 181.78211021 194.3976984 C183.67128638 197.12653764 183.46199267 199.24941685 183.47525024 202.55055237 C183.48778839 203.86728439 183.50032654 205.18401642 183.51324463 206.54064941 C183.51207051 208.00320459 183.51061133 209.46575957 183.50889587 210.92831421 C183.51791022 212.46569102 183.52823663 214.00306062 183.53977966 215.54042053 C183.56741451 219.71781446 183.57664293 223.89507226 183.58263373 228.07254577 C183.59200059 232.43682128 183.61820255 236.80099444 183.64263916 241.16520691 C183.68635445 249.43117353 183.71487048 257.69712034 183.73796254 265.96316749 C183.76498731 275.3730321 183.80890045 284.78279399 183.85425127 294.19258535 C183.94716956 313.55081308 184.01821828 332.90906475 184.07652283 352.26742554 C189.02652283 352.26742554 193.97652283 352.26742554 199.07652283 352.26742554 C199.07983297 351.07121488 199.08314312 349.87500422 199.08655357 348.64254475 C199.16555476 320.25308512 199.25476841 291.86367016 199.35657444 263.47428321 C199.36909345 259.98077037 199.38152621 256.48725723 199.39390564 252.9937439 C199.39637163 252.29824221 199.39883763 251.60274052 199.40137835 250.88616302 C199.44111248 239.62163158 199.47385692 228.35709011 199.50402264 217.09252945 C199.53512609 205.5358372 199.57387885 193.97919182 199.61931288 182.42254657 C199.64459234 175.93060827 199.6663694 169.43870022 199.67986679 162.94672585 C199.69267393 156.83926376 199.71471392 150.73190535 199.74390602 144.62450027 C199.75299232 142.38031953 199.75867447 140.13612209 199.76073647 137.8919239 C199.76405152 134.83259059 199.77950875 131.77355254 199.79804993 128.71427917 C199.79611519 127.82225243 199.79418046 126.93022568 199.79218709 126.01116782 C199.83132511 121.70398223 199.91058118 118.12388065 202.07652283 114.26742554 C205.1125198 112.74942705 208.26860086 113.11135105 211.59971619 113.10629272 C212.37547501 113.10132782 213.15123383 113.09636292 213.95050049 113.09124756 C216.52246479 113.07661555 219.09436745 113.06982276 221.66636658 113.06430054 C223.44994102 113.05855061 225.23351545 113.05279286 227.01708984 113.04702759 C230.7588276 113.0365151 234.50054386 113.03067384 238.24229431 113.02719116 C243.04219972 113.02170126 247.84182219 112.99766378 252.64163876 112.96921921 C256.32617022 112.95061849 260.01063313 112.94538864 263.6952076 112.94385529 C265.46508394 112.94082318 267.23495893 112.93277593 269.00478935 112.9196701 C271.47805866 112.90266044 273.95063126 112.90447697 276.42393494 112.91098022 C277.1580661 112.90176544 277.89219727 112.89255066 278.64857483 112.88305664 C283.5725397 112.92372048 283.5725397 112.92372048 285.90730286 114.51597595 C287.23898465 116.51078752 288.37060095 118.49651956 289.43663025 120.64706421 C289.8768602 121.5277507 290.31709015 122.40843719 290.7706604 123.31581116 C291.23639969 124.26277359 291.70213898 125.20973602 292.18199158 126.18539429 C292.66605972 127.15777542 293.15012787 128.13015656 293.64886475 129.13200378 C295.1929064 132.23687304 296.72854845 135.34581194 298.26402283 138.45492554 C299.30969606 140.56131882 300.35591347 142.66744204 301.4026947 144.77328491 C303.96799879 149.9344082 306.52190486 155.10094921 309.07652283 160.26742554 C322.60652283 160.26742554 336.13652283 160.26742554 350.07652283 160.26742554 C350.40652283 159.60742554 350.73652283 158.94742554 351.07652283 158.26742554 C350.01950808 155.55816902 348.89426193 152.96140357 347.66636658 150.32992554 C347.30184891 149.53521851 346.93733124 148.74051147 346.56176758 147.92172241 C345.78444974 146.23197385 345.00319296 144.54403271 344.21836853 142.85775757 C343.0338656 140.31010379 341.86380059 137.75621093 340.69566345 135.20101929 C333.31165754 119.15098674 326.63627883 104.88391373 309.07652283 98.26742554 C300.51355317 96.20805266 291.9979161 95.98182019 283.23274231 96.01345825 C281.87499962 96.0111485 280.51725818 96.00796855 279.15951931 96.00400376 C275.46214343 95.99571876 271.76487189 95.99975198 268.06749582 96.0059762 C264.06762419 96.01052525 260.06776976 96.00350513 256.06790161 95.99801636 C248.24823589 95.98914921 240.42860868 95.99103168 232.60894148 95.99684164 C226.25674336 96.00136546 219.90455599 96.00196793 213.55235672 95.99979401 C212.19434702 95.99933431 212.19434702 95.99933431 210.80890278 95.99886532 C208.96963365 95.99822586 207.13036452 95.99757743 205.29109539 95.99692014 C188.07084401 95.99122554 170.85061398 95.99776275 153.6303661 96.00852087 C138.84613166 96.01747076 124.06192859 96.01589084 109.2776947 96.00668335 C92.10193526 95.99599143 74.92619444 95.99175883 57.75043213 95.99790788 C55.92113185 95.99854498 54.09183157 95.99917372 52.26253128 95.99979401 C51.3624885 96.00010256 50.46244572 96.00041111 49.53512891 96.00072901 C43.18350359 96.00245806 36.83189007 95.99953665 30.48026657 95.9948349 C22.75077777 95.98923872 15.02132961 95.99071642 7.29184549 96.00139639 C3.34627237 96.00666785 -0.59923285 96.00868468 -4.54480553 96.00209808 C-8.15157016 95.99616778 -11.75820352 95.99936491 -15.36495613 96.01005319 C-17.29752124 96.01336901 -19.23009537 96.00679066 -21.16265118 95.99993873 C-22.86612928 96.00776197 -22.86612928 96.00776197 -24.60402107 96.01574326 C-25.59010514 96.01606796 -26.57618922 96.01639266 -27.59215462 96.01672721 C-30.11584651 96.04149436 -30.11584651 96.04149436 -31.92347717 98.26742554 Z M216.07652283 128.26742554 C216.07652283 138.82742554 216.07652283 149.38742554 216.07652283 160.26742554 C240.49652283 160.26742554 264.91652283 160.26742554 290.07652283 160.26742554 C286.35123387 149.09155868 280.34487699 138.80413386 275.07652283 128.26742554 C255.60652283 128.26742554 236.13652283 128.26742554 216.07652283 128.26742554 Z M216.07652283 176.26742554 C216.07652283 197.38742554 216.07652283 218.50742554 216.07652283 240.26742554 C235.87652283 240.26742554 255.67652283 240.26742554 276.07652283 240.26742554 C275.40340266 235.5555844 274.74229576 231.6965518 273.40245056 227.24032593 C273.06217331 226.09967178 272.72189606 224.95901764 272.37130737 223.78379822 C272.00461441 222.5731218 271.63792145 221.36244537 271.26011658 220.11508179 C270.69623985 218.2321769 270.69623985 218.2321769 270.12097168 216.31123352 C269.12751046 212.9940589 268.12806029 209.67871894 267.12730408 206.36373901 C266.10476369 202.9727069 265.08790894 199.57997091 264.07066345 196.18734741 C262.0787214 189.54551006 260.07739984 182.90660281 258.07652283 176.26742554 C244.21652283 176.26742554 230.35652283 176.26742554 216.07652283 176.26742554 Z M104.07652283 208.26742554 C104.07652283 255.78742554 104.07652283 303.30742554 104.07652283 352.26742554 C125.19652283 352.26742554 146.31652283 352.26742554 168.07652283 352.26742554 C168.07652283 304.74742554 168.07652283 257.22742554 168.07652283 208.26742554 C146.95652283 208.26742554 125.83652283 208.26742554 104.07652283 208.26742554 Z M216.07652283 256.26742554 C216.07652283 287.94742554 216.07652283 319.62742554 216.07652283 352.26742554 C237.19652283 352.26742554 258.31652283 352.26742554 280.07652283 352.26742554 C280.07652283 320.58742554 280.07652283 288.90742554 280.07652283 256.26742554 C258.95652283 256.26742554 237.83652283 256.26742554 216.07652283 256.26742554 Z M296.07652283 258.26742554 C296.07652283 279.71742554 296.07652283 301.16742554 296.07652283 323.26742554 C299.37652283 321.28742554 302.67652283 319.30742554 306.07652283 317.26742554 C317.990537 311.26224858 333.21443135 311.22377535 345.76402283 315.32992554 C357.6791247 320.30853618 366.31501487 328.94362576 371.93589783 340.48226929 C373.51792472 344.34523221 374.79649294 348.2957592 376.07652283 352.26742554 C381.45167187 352.31678063 386.82668967 352.35312355 392.20201111 352.37728882 C394.03146156 352.38736038 395.86089586 352.40101829 397.69029236 352.41830444 C400.31647217 352.44250231 402.94243958 352.45389686 405.56871033 352.46273804 C406.38959137 352.47306061 407.21047241 352.48338318 408.05622864 352.49401855 C410.06441425 352.49441738 412.07207665 352.38992093 414.07652283 352.26742554 C416.29523276 350.4703299 416.29523276 350.4703299 416.30357361 348.02084351 C416.29309998 347.10963745 416.28262634 346.1984314 416.27183533 345.25961304 C416.26539001 344.27348022 416.2589447 343.28734741 416.25230408 342.27133179 C416.23554626 341.23879272 416.21878845 340.20625366 416.20152283 339.14242554 C416.19249939 338.1021521 416.18347595 337.06187866 416.17417908 335.99008179 C416.1505603 333.41563461 416.11762432 330.84164341 416.07652283 328.26742554 C415.24403015 328.25284302 414.41153748 328.2382605 413.55381775 328.22323608 C410.4616263 328.16213923 407.37010201 328.08797998 404.27842712 328.00497437 C402.28361653 327.95541235 400.28845025 327.9209142 398.2933197 327.88656616 C396.41289978 327.83339233 396.41289978 327.83339233 394.49449158 327.77914429 C393.33715515 327.75296021 392.17981873 327.72677612 390.9874115 327.69979858 C388.07652283 327.26742554 388.07652283 327.26742554 386.20030212 326.18466187 C384.44460238 323.18933054 384.68700797 320.52321739 384.67808533 317.07992554 C384.67521515 316.38101196 384.67234497 315.68209839 384.66938782 314.96200562 C384.66734857 313.48600452 384.6728688 312.00997632 384.68540955 310.5340271 C384.70146703 308.27527416 384.68555812 306.01831036 384.66636658 303.75961304 C384.66834904 302.32471326 384.67219277 300.88981459 384.67808533 299.45492554 C384.68146912 298.14910522 384.68485291 296.84328491 384.68833923 295.49789429 C385.07652283 292.26742554 385.07652283 292.26742554 386.20030212 290.35018921 C388.97141576 288.7509844 391.31021277 288.82774929 394.49449158 288.75570679 C395.74810486 288.72025757 397.00171814 288.68480835 398.2933197 288.64828491 C399.60365173 288.62572632 400.91398376 288.60316772 402.26402283 288.57992554 C403.59934296 288.54674888 404.93463114 288.51225887 406.2698822 288.47640991 C409.53867787 288.39380497 412.80720094 288.32469325 416.07652283 288.26742554 C415.96865716 286.67282399 415.84598855 285.07921953 415.71714783 283.48617554 C415.61708435 282.15489624 415.61708435 282.15489624 415.51499939 280.79672241 C414.80209393 276.68441698 413.14681804 275.058603 410.07652283 272.26742554 C405.6747274 270.03085006 401.17048765 269.60455339 396.33335876 269.04647827 C395.46260712 268.94050323 394.59185547 268.8345282 393.69471741 268.7253418 C390.81755456 268.37704967 387.93931253 268.0387972 385.06089783 267.70101929 C383.04605226 267.46010782 381.0312622 267.21873178 379.01652527 266.97691345 C374.78703258 266.47081361 370.55700512 265.96952956 366.32652283 265.47177124 C360.94989196 264.83889383 355.57458304 264.19552747 350.19962692 263.54859829 C346.03204029 263.04798221 341.86386056 262.55245303 337.69548798 262.05842781 C335.71653574 261.82341428 333.73774481 261.58703773 331.75913239 261.34918022 C328.96412967 261.01409424 326.16840719 260.68574656 323.37242126 260.35897827 C322.58112823 260.26285751 321.78983521 260.16673676 320.9745636 260.06770325 C312.66717796 259.11065312 304.47334642 258.76135634 296.07652283 258.26742554 Z M400.07652283 304.26742554 C400.07652283 306.90742554 400.07652283 309.54742554 400.07652283 312.26742554 C405.35652283 312.26742554 410.63652283 312.26742554 416.07652283 312.26742554 C416.07652283 309.62742554 416.07652283 306.98742554 416.07652283 304.26742554 C410.79652283 304.26742554 405.51652283 304.26742554 400.07652283 304.26742554 Z M16.07652283 339.26742554 C9.52280506 348.6383523 8.19862496 355.83002374 9.07652283 367.26742554 C11.26030098 376.51416617 16.23550384 382.69880787 24.20152283 387.64242554 C32.06194195 392.2215482 41.12515057 392.6729453 49.97105408 390.58383179 C59.85458068 386.92495327 65.47218552 380.63060811 70.07652283 371.26742554 C72.8511886 363.12840593 71.94588985 353.12179447 68.32652283 345.44320679 C63.99052983 337.89586898 57.52149557 332.46457534 49.18589783 329.62289429 C36.81954543 327.5389349 24.56808256 329.49177629 16.07652283 339.26742554 Z M304.07652283 339.26742554 C297.52280506 348.6383523 296.19862496 355.83002374 297.07652283 367.26742554 C299.26030098 376.51416617 304.23550384 382.69880787 312.20152283 387.64242554 C320.06194195 392.2215482 329.12515057 392.6729453 337.97105408 390.58383179 C347.85458068 386.92495327 353.47218552 380.63060811 358.07652283 371.26742554 C360.8511886 363.12840593 359.94588985 353.12179447 356.32652283 345.44320679 C351.99052983 337.89586898 345.52149557 332.46457534 337.18589783 329.62289429 C324.81954543 327.5389349 312.56808256 329.49177629 304.07652283 339.26742554 Z " fill="#000000" transform="translate(63.92347717285156,55.732574462890625)"/>
<path d="M0 0 C0.78463749 -0.00623996 1.56927498 -0.01247993 2.37768936 -0.01890898 C5.00958463 -0.03487699 7.64055863 -0.02222024 10.27246094 -0.00964355 C12.15816794 -0.01506299 14.04387071 -0.02218465 15.92956543 -0.03088379 C21.05350598 -0.04914126 26.17712489 -0.04203958 31.30107117 -0.02936745 C36.65905637 -0.01925235 42.01701373 -0.02862898 47.375 -0.03491211 C56.37342278 -0.04219286 65.37171432 -0.03258957 74.37011719 -0.0135498 C84.77894229 0.00821971 95.18745401 0.00116865 105.59627151 -0.02085543 C114.52715363 -0.03899722 123.45794132 -0.04157371 132.38883591 -0.03110075 C137.72546273 -0.02485912 143.06194217 -0.02404861 148.39855957 -0.0372467 C153.41535641 -0.0487868 158.43174855 -0.04081311 163.44850159 -0.01766968 C165.29158353 -0.01237274 167.13469943 -0.01391314 168.97776794 -0.02272034 C171.49019841 -0.03362079 174.00132493 -0.01997986 176.51367188 0 C177.2463541 -0.00892289 177.97903633 -0.01784577 178.73392105 -0.02703905 C182.15220999 0.02583896 183.95628305 0.27867878 186.70903778 2.3784256 C188.68347874 5.09492304 188.76349438 6.69748507 188.77441406 10.03918457 C188.78702271 11.14713379 188.79963135 12.25508301 188.81262207 13.39660645 C188.80452515 14.58834473 188.79642822 15.78008301 188.78808594 17.00793457 C188.79191284 18.2357666 188.79573975 19.46359863 188.79968262 20.7286377 C188.80240435 23.32434916 188.79502505 25.92008793 188.77832031 28.51574707 C188.75691668 32.49293056 188.77811556 36.46830739 188.80371094 40.44543457 C188.80106771 42.9662719 188.79594284 45.4871081 188.78808594 48.00793457 C188.79618286 49.19967285 188.80427979 50.39141113 188.81262207 51.6192627 C188.79370911 53.28118652 188.79370911 53.28118652 188.77441406 54.97668457 C188.77123169 55.95057129 188.76804932 56.92445801 188.76477051 57.92785645 C188.08465791 61.38252115 187.05190318 62.3759126 184.25683594 64.50793457 C181.54027463 64.90092201 179.22859868 65.04893257 176.51367188 65.01586914 C175.72903439 65.0221091 174.9443969 65.02834907 174.13598251 65.03477812 C171.50408724 65.05074613 168.87311325 65.03808938 166.24121094 65.0255127 C164.35550394 65.03093213 162.46980117 65.03805379 160.58410645 65.04675293 C155.46016589 65.0650104 150.33654699 65.05790872 145.21260071 65.04523659 C139.8546155 65.03512149 134.49665814 65.04449812 129.13867188 65.05078125 C120.14024909 65.058062 111.14195755 65.04845871 102.14355469 65.02941895 C91.73472959 65.00764943 81.32621787 65.01470049 70.91740036 65.03672457 C61.98651824 65.05486636 53.05573056 65.05744285 44.12483597 65.04696989 C38.78820915 65.04072826 33.4517297 65.03991775 28.1151123 65.05311584 C23.09831546 65.06465594 18.08192333 65.05668225 13.06517029 65.03353882 C11.22208834 65.02824188 9.37897244 65.02978228 7.53590393 65.03858948 C5.02347346 65.04948993 2.51234694 65.03584901 0 65.01586914 C-0.73268223 65.02479203 -1.46536446 65.03371491 -2.22024918 65.04290819 C-5.63853811 64.99003018 -7.44261118 64.73719036 -10.19536591 62.63744354 C-12.16980687 59.9209461 -12.2498225 58.31838407 -12.26074219 54.97668457 C-12.27335083 53.86873535 -12.28595947 52.76078613 -12.2989502 51.6192627 C-12.29085327 50.42752441 -12.28275635 49.23578613 -12.27441406 48.00793457 C-12.27824097 46.78010254 -12.28206787 45.55227051 -12.28601074 44.28723145 C-12.28873248 41.69151998 -12.28135317 39.09578121 -12.26464844 36.50012207 C-12.24324481 32.52293858 -12.26444369 28.54756175 -12.29003906 24.57043457 C-12.28739584 22.04959724 -12.28227097 19.52876104 -12.27441406 17.00793457 C-12.28251099 15.81619629 -12.29060791 14.62445801 -12.2989502 13.39660645 C-12.28634155 12.28865723 -12.27373291 11.18070801 -12.26074219 10.03918457 C-12.25755981 9.06529785 -12.25437744 8.09141113 -12.25109863 7.0880127 C-10.92639803 0.35913215 -5.95190707 -0.07248462 0 0 Z M4.25683594 16.50793457 C4.25683594 27.06793457 4.25683594 37.62793457 4.25683594 48.50793457 C59.69683594 48.50793457 115.13683594 48.50793457 172.25683594 48.50793457 C172.25683594 37.94793457 172.25683594 27.38793457 172.25683594 16.50793457 C116.81683594 16.50793457 61.37683594 16.50793457 4.25683594 16.50793457 Z " fill="#000000" transform="translate(59.7431640625,167.4920654296875)"/>
<path d="M0 0 C0.77444458 -0.00700928 1.54888916 -0.01401855 2.34680176 -0.02124023 C4.90344232 -0.03882686 7.45897344 -0.02719576 10.015625 -0.01367188 C11.79394747 -0.01636661 13.57226851 -0.02024888 15.35058594 -0.02526855 C19.07631468 -0.03116448 22.80165964 -0.02259774 26.52734375 -0.00390625 C31.30261787 0.01888354 36.07699276 0.00576094 40.85223389 -0.01819611 C44.52399468 -0.03265162 48.19554235 -0.02804927 51.86730957 -0.01768494 C53.62797146 -0.01501696 55.38865271 -0.01828992 57.14929199 -0.02760315 C59.61046587 -0.03776495 62.0701845 -0.0222744 64.53125 0 C65.2586438 -0.00809692 65.9860376 -0.01619385 66.73547363 -0.02453613 C69.96759086 0.02964532 71.98579312 0.33549717 74.7166748 2.11242676 C76.81918468 5.37712469 76.77340419 7.64365157 76.78320312 11.51757812 C76.7902124 12.21399414 76.79722168 12.91041016 76.80444336 13.62792969 C76.82201696 15.92488744 76.81040419 18.22060833 76.796875 20.51757812 C76.79957013 22.11653886 76.80345273 23.715498 76.80847168 25.31445312 C76.81436582 28.66357038 76.80580692 32.01226056 76.78710938 35.36132812 C76.76431935 39.65236403 76.77744296 43.94239924 76.80139923 48.23339844 C76.8158598 51.53458179 76.81125015 54.83552823 76.80088806 58.13671875 C76.79822146 59.71875121 76.80148822 61.30080524 76.81080627 62.8828125 C76.82097679 65.09497975 76.8054669 67.30553112 76.78320312 69.51757812 C76.78002075 70.77570313 76.77683838 72.03382813 76.77355957 73.33007812 C76.265625 76.51757812 76.265625 76.51757812 74.7166748 78.92272949 C71.36825756 81.101477 68.39871316 81.0782066 64.53125 81.03515625 C63.75680542 81.04216553 62.98236084 81.0491748 62.18444824 81.05639648 C59.62780768 81.07398311 57.07227656 81.06235201 54.515625 81.04882812 C52.73730253 81.05152286 50.95898149 81.05540513 49.18066406 81.0604248 C45.45493532 81.06632073 41.72959036 81.05775399 38.00390625 81.0390625 C33.22863213 81.01627271 28.45425724 81.02939531 23.67901611 81.05335236 C20.00725532 81.06780787 16.33570765 81.06320552 12.66394043 81.05284119 C10.90327854 81.05017321 9.14259729 81.05344617 7.38195801 81.0627594 C4.92078413 81.0729212 2.4610655 81.05743065 0 81.03515625 C-0.7273938 81.04325317 -1.4547876 81.0513501 -2.20422363 81.05969238 C-5.43634086 81.00551093 -7.45454312 80.69965908 -10.1854248 78.92272949 C-12.28793468 75.65803156 -12.24215419 73.39150468 -12.25195312 69.51757812 C-12.2589624 68.82116211 -12.26597168 68.12474609 -12.27319336 67.40722656 C-12.29076696 65.11026881 -12.27915419 62.81454792 -12.265625 60.51757812 C-12.26832013 58.91861739 -12.27220273 57.31965825 -12.27722168 55.72070312 C-12.28311582 52.37158587 -12.27455692 49.02289569 -12.25585938 45.67382812 C-12.23306935 41.38279222 -12.24619296 37.09275701 -12.27014923 32.80175781 C-12.2846098 29.50057446 -12.28000015 26.19962802 -12.26963806 22.8984375 C-12.26697146 21.31640504 -12.27023822 19.73435101 -12.27955627 18.15234375 C-12.28972679 15.9401765 -12.2742169 13.72962513 -12.25195312 11.51757812 C-12.24877075 10.25945312 -12.24558838 9.00132812 -12.24230957 7.70507812 C-11.734375 4.51757812 -11.734375 4.51757812 -10.1854248 2.11242676 C-6.83700756 -0.06632075 -3.86746316 -0.04305035 0 0 Z M4.265625 16.51757812 C4.265625 32.35757812 4.265625 48.19757813 4.265625 64.51757812 C22.745625 64.51757812 41.225625 64.51757812 60.265625 64.51757812 C60.265625 48.67757812 60.265625 32.83757812 60.265625 16.51757812 C41.785625 16.51757812 23.305625 16.51757812 4.265625 16.51757812 Z " fill="#000000" transform="translate(59.734375,247.482421875)"/>
<path d="M0 0 C5.82485779 3.51996782 10.54466582 8.98962934 12.5625 15.5 C13.36764105 23.33608208 13.68710392 31.11922577 8.5625 37.5 C3.75801361 42.54521222 -0.59927055 46.10562995 -7.70703125 46.8359375 C-16.22326573 46.92983204 -22.11345494 46.6177288 -28.40234375 40.62890625 C-34.7841668 33.72505269 -35.91792252 28.29832071 -35.7421875 18.9453125 C-35.04689797 11.08319245 -31.38995981 6.95041296 -25.53515625 1.9453125 C-18.47077988 -2.92213491 -7.84396301 -3.47595223 0 0 Z M-16.8125 17.125 C-18.92456506 20.21186432 -19.04945145 21.8282913 -18.4375 25.5 C-16.9375 28 -16.9375 28 -14.4375 29.5 C-10.7657913 30.11195145 -9.14936432 29.98706506 -6.0625 27.875 C-3.95043494 24.78813568 -3.82554855 23.1717087 -4.4375 19.5 C-5.9375 17 -5.9375 17 -8.4375 15.5 C-12.1092087 14.88804855 -13.72563568 15.01293494 -16.8125 17.125 Z " fill="#000000" transform="translate(403.4375,393.5)"/>
<path d="M0 0 C5.82485779 3.51996782 10.54466582 8.98962934 12.5625 15.5 C13.36764105 23.33608208 13.68710392 31.11922577 8.5625 37.5 C3.75801361 42.54521222 -0.59927055 46.10562995 -7.70703125 46.8359375 C-16.22326573 46.92983204 -22.11345494 46.6177288 -28.40234375 40.62890625 C-34.7841668 33.72505269 -35.91792252 28.29832071 -35.7421875 18.9453125 C-35.04689797 11.08319245 -31.38995981 6.95041296 -25.53515625 1.9453125 C-18.47077988 -2.92213491 -7.84396301 -3.47595223 0 0 Z M-16.8125 17.125 C-18.92456506 20.21186432 -19.04945145 21.8282913 -18.4375 25.5 C-16.9375 28 -16.9375 28 -14.4375 29.5 C-10.7657913 30.11195145 -9.14936432 29.98706506 -6.0625 27.875 C-3.95043494 24.78813568 -3.82554855 23.1717087 -4.4375 19.5 C-5.9375 17 -5.9375 17 -8.4375 15.5 C-12.1092087 14.88804855 -13.72563568 15.01293494 -16.8125 17.125 Z " fill="#000000" transform="translate(115.4375,393.5)"/>
</svg>
